{"glyphs":{"0":{"ha":1250,"x_min":83,"x_max":1167,"o":"m 328 1032 l 328 1032 q 420 1033 335 1032 q 631 1033 506 1033 l 926 1033 l 942 1031 q 1063 978 1008 1018 q 1085 956 1071 969 q 1107 932 1099 943 q 1160 826 1146 885 q 1161 822 1161 824 q 1164 807 1163 814 q 1166 787 1165 800 q 1167 748 1167 774 q 1167 676 1167 722 q 1167 651 1167 665 q 1167 563 1167 596 q 1167 514 1167 531 q 1165 489 1167 497 q 1163 472 1164 481 q 1085 332 1146 390 q 940 258 1026 274 l 924 256 l 632 256 q 486 254 543 254 q 397 255 429 254 q 347 256 364 256 q 323 256 331 256 q 307 258 315 257 q 307 260 307 258 q 147 351 211 276 q 86 482 100 407 l 83 499 l 83 643 l 83 788 l 86 803 q 163 954 100 892 q 328 1032 231 1021 m 699 774 l 699 774 q 664 772 681 779 q 638 747 647 765 q 635 742 636 744 q 635 736 635 739 q 635 726 635 733 q 635 717 635 721 q 635 712 635 714 q 638 707 636 710 q 660 684 646 692 q 690 679 674 676 q 725 703 714 683 q 729 744 736 722 q 717 762 725 754 q 699 774 708 769 m 854 728 l 854 728 l 854 776 l 842 776 l 829 776 l 829 754 l 828 733 l 815 754 l 801 775 l 789 775 l 775 775 l 775 726 l 775 679 l 789 679 l 803 679 l 803 700 l 803 722 l 817 701 l 831 679 l 843 679 l 854 679 l 854 728 m 228 774 l 228 774 q 222 774 225 774 q 215 775 219 775 q 200 775 210 775 l 179 775 l 179 726 l 179 679 l 192 679 l 206 679 l 206 694 l 206 710 l 215 711 q 224 712 221 711 q 231 714 228 713 q 249 744 250 725 q 228 774 246 765 m 353 763 l 353 763 l 353 775 l 322 775 l 290 775 l 290 726 l 290 679 l 322 679 l 353 679 l 353 692 l 353 704 l 335 704 l 318 704 l 318 708 l 318 714 l 333 714 l 349 714 l 349 726 l 349 739 l 333 739 l 318 739 l 318 744 l 318 749 l 335 749 l 353 749 l 353 763 m 454 771 l 454 771 l 449 775 l 424 775 l 400 775 l 400 728 l 400 679 l 413 679 l 426 679 l 426 694 q 426 706 426 703 q 428 710 426 710 q 432 706 429 710 q 439 694 435 701 l 449 679 l 464 679 q 474 679 469 679 q 479 679 479 679 q 476 685 479 679 q 468 697 472 690 l 457 714 l 461 718 q 465 723 463 721 q 468 728 467 725 q 471 733 471 731 q 471 742 471 736 q 471 751 471 747 q 469 756 471 754 q 454 771 464 765 m 567 774 l 567 774 q 552 775 561 775 q 538 772 543 775 q 515 749 517 765 q 516 738 515 742 q 521 729 517 733 q 549 717 528 721 q 560 714 557 715 q 565 710 564 713 q 565 708 565 708 q 564 706 565 707 q 553 703 560 703 q 543 708 546 704 l 540 711 l 533 710 q 532 710 533 710 q 526 708 529 708 q 521 707 522 707 q 515 704 515 706 q 517 697 514 703 q 541 679 524 683 q 576 683 558 675 q 592 711 594 692 q 558 739 592 733 q 544 749 538 743 q 553 751 547 751 q 561 747 558 751 l 564 744 l 578 747 q 585 749 582 749 q 588 749 588 749 q 590 751 589 750 q 589 753 590 751 q 581 765 588 760 q 567 774 575 771 m 957 768 l 957 768 l 954 775 l 939 775 l 925 775 l 910 728 q 899 694 904 708 q 894 679 894 681 q 899 679 894 679 q 908 679 903 679 l 922 679 l 924 685 l 925 690 l 940 689 l 954 689 l 956 683 l 957 679 l 971 679 q 982 679 979 679 q 985 681 985 679 q 982 688 985 681 q 971 722 978 700 q 963 749 967 736 q 957 767 958 761 q 957 768 957 768 m 1050 740 l 1050 740 l 1050 775 l 1038 775 l 1024 775 l 1024 726 l 1024 679 l 1051 679 l 1079 679 l 1079 692 l 1079 704 l 1065 704 l 1050 704 l 1050 740 m 685 607 l 685 607 q 643 596 661 611 q 627 552 624 576 q 654 515 631 528 q 660 512 658 513 q 666 511 663 511 q 676 511 669 511 q 685 511 682 511 q 691 512 689 511 q 697 515 693 513 q 711 525 704 518 q 721 538 718 532 q 725 568 728 553 q 710 594 721 583 q 685 607 699 604 m 849 560 l 849 560 l 849 608 l 835 608 q 822 607 821 608 q 821 600 821 606 q 821 586 821 594 l 821 567 l 808 586 l 794 607 l 782 607 l 769 607 l 769 558 l 769 511 l 783 511 l 796 511 l 796 532 l 797 554 l 811 532 l 824 511 l 836 511 l 849 511 l 849 560 m 231 578 l 231 578 l 231 607 l 217 607 l 204 607 l 204 572 l 204 538 l 208 532 q 217 520 211 525 q 229 513 222 515 q 243 511 235 511 q 258 513 251 511 q 272 522 265 515 q 279 535 278 528 q 281 541 281 538 q 282 551 282 544 q 282 574 282 558 l 282 607 l 269 607 l 256 607 l 256 578 q 256 553 256 561 q 254 543 256 546 q 250 538 253 540 q 242 536 246 536 q 235 539 239 536 q 232 544 233 540 q 231 554 231 547 q 231 578 231 561 m 381 606 l 381 606 q 366 607 375 607 q 350 606 357 607 q 340 600 344 604 q 332 592 335 596 q 328 588 329 590 q 328 581 328 585 q 329 569 328 572 q 335 561 331 565 q 345 554 339 557 q 363 549 351 551 q 378 542 378 546 q 373 536 378 538 q 363 535 368 535 q 356 540 358 536 l 353 543 l 340 540 q 331 538 335 539 q 326 538 328 538 q 327 534 326 536 q 330 528 328 532 q 333 522 332 525 q 363 511 343 511 q 400 525 389 510 q 403 531 403 528 q 404 536 404 533 q 375 571 407 564 q 358 576 361 574 q 357 582 354 578 q 360 583 358 583 q 365 583 363 583 q 371 583 369 583 q 374 579 372 582 l 376 576 l 389 579 q 398 581 394 581 q 401 582 401 582 q 402 585 403 583 q 400 589 401 586 q 381 606 393 601 m 511 594 l 511 594 l 511 607 l 481 607 l 449 607 l 449 558 l 449 511 l 481 511 l 511 511 l 511 524 l 511 536 l 493 536 l 476 536 l 476 542 l 476 546 l 492 546 l 507 546 l 507 558 l 507 571 l 492 571 l 476 571 l 476 576 l 476 582 l 493 582 l 511 582 l 511 594 m 922 572 l 922 572 l 922 607 l 910 607 l 896 607 l 896 558 l 896 511 l 924 511 l 951 511 l 951 524 l 951 536 l 936 536 l 922 536 l 922 572 m 1001 594 l 1001 594 l 994 607 l 979 607 l 963 607 l 965 604 q 971 594 967 601 q 982 576 975 586 l 996 551 l 996 531 l 996 511 l 1008 511 l 1022 511 l 1022 531 l 1022 551 l 1036 576 q 1048 595 1043 588 q 1053 604 1053 603 l 1054 607 l 1039 607 l 1024 607 l 1017 594 q 1012 585 1014 589 q 1008 582 1010 582 q 1006 585 1008 582 q 1001 594 1004 589 m 674 749 l 674 749 q 699 743 689 754 q 703 717 708 732 q 681 704 694 703 q 661 721 667 706 q 663 737 660 729 q 674 749 667 744 m 206 742 l 206 742 l 206 749 l 213 749 q 219 748 218 749 q 221 743 221 747 q 219 738 221 739 q 213 735 217 736 l 206 735 l 206 742 m 426 742 l 426 742 l 426 749 l 435 749 q 443 748 442 749 q 444 742 444 747 q 433 735 444 735 l 426 735 l 426 742 m 938 729 l 938 729 q 939 736 938 733 q 940 738 940 739 q 942 732 940 738 q 943 726 943 729 l 947 714 l 940 714 l 933 714 l 933 718 q 934 721 933 718 q 936 728 935 724 q 938 729 936 729 m 667 581 l 667 581 q 685 580 676 585 q 697 565 694 575 q 693 544 700 553 q 675 536 686 536 q 657 547 664 536 q 655 567 651 557 q 667 581 658 576 m 194 169 l 194 169 q 212 171 203 172 q 226 165 221 169 q 231 161 229 164 q 235 156 233 158 q 236 151 236 153 q 235 151 236 151 q 232 150 235 150 q 229 151 231 150 q 226 154 228 151 q 209 163 221 163 q 190 156 197 164 q 183 135 182 149 q 193 115 185 121 q 214 113 201 110 q 225 120 221 115 q 229 129 229 125 l 229 132 l 219 132 l 210 132 l 210 136 l 210 140 l 224 140 l 236 140 l 236 122 l 236 106 l 233 106 q 229 107 229 106 q 232 114 229 108 q 233 117 233 117 q 232 118 233 118 q 231 117 232 118 q 228 114 229 115 q 207 104 221 104 q 179 121 189 104 q 177 125 178 124 q 176 129 176 126 q 176 138 176 132 q 176 146 176 143 q 177 150 176 149 q 179 154 178 151 q 194 169 185 165 m 451 168 l 451 168 q 461 171 454 171 l 468 171 l 468 167 l 468 163 l 463 163 q 457 162 458 163 q 454 160 456 161 q 453 156 454 158 q 453 153 453 154 l 453 150 l 458 150 l 464 150 l 464 146 l 464 142 l 457 142 q 451 142 453 142 q 447 140 449 142 q 448 140 447 140 q 450 138 449 139 q 452 135 451 136 q 453 131 453 133 q 453 119 453 128 l 453 106 l 449 106 l 444 106 l 444 124 l 444 142 l 442 142 q 440 142 440 142 q 439 146 439 143 q 440 149 439 149 q 442 150 440 150 q 444 151 444 150 q 444 154 444 151 q 451 168 444 163 m 565 138 l 565 138 l 565 171 l 569 171 l 574 171 l 574 138 l 574 106 l 569 106 l 565 106 l 565 138 m 604 138 l 604 138 l 604 171 l 608 171 l 613 171 l 613 138 l 613 106 l 608 106 l 604 106 l 604 138 m 704 168 l 704 168 q 713 171 707 171 l 719 171 l 719 167 l 719 163 l 714 163 q 709 162 711 163 q 707 160 707 161 q 705 156 706 158 q 704 153 704 154 l 704 150 l 710 150 l 717 150 l 717 146 l 717 142 l 708 142 q 702 142 704 142 q 700 140 700 142 q 699 140 699 140 q 701 138 700 139 q 703 135 703 136 q 704 131 704 133 q 704 119 704 128 l 704 106 l 700 106 l 696 106 l 696 124 l 696 142 l 694 142 q 692 142 692 142 q 692 146 692 143 q 692 149 692 149 q 694 150 692 150 q 696 151 696 150 q 696 154 696 151 q 704 168 696 163 m 342 156 l 342 156 l 342 161 l 346 161 l 350 161 l 350 156 l 350 150 l 356 150 l 360 150 l 360 146 l 360 142 l 353 142 q 347 138 340 142 q 349 136 349 138 q 349 133 349 135 q 350 125 350 131 l 350 114 l 356 113 l 361 113 l 361 108 l 361 106 l 354 106 q 349 106 350 106 q 344 108 347 106 l 342 111 l 342 126 l 342 142 l 339 142 q 335 142 336 142 q 335 146 335 143 q 335 149 335 149 q 339 150 336 150 q 341 150 340 150 q 342 151 342 150 q 342 156 342 153 m 883 156 l 883 156 l 883 161 l 888 161 l 890 161 l 890 156 l 890 150 l 896 150 l 901 150 l 901 146 l 901 142 l 894 142 q 888 142 889 142 q 886 140 886 142 q 887 140 886 140 q 889 138 888 139 q 890 137 889 138 q 890 134 890 136 q 890 128 890 132 q 892 115 890 118 q 897 113 893 113 q 901 113 900 113 q 903 112 903 113 q 903 108 903 111 l 903 106 l 897 106 q 891 106 893 106 q 888 108 889 106 l 883 111 l 883 126 l 883 142 l 881 142 q 878 142 879 142 q 878 146 878 143 q 878 149 878 149 q 881 150 879 150 q 883 150 882 150 q 883 151 883 150 q 883 156 883 153 m 1050 156 l 1050 156 l 1050 161 l 1054 161 l 1058 161 l 1058 156 l 1058 150 l 1063 150 l 1068 150 l 1068 146 l 1068 142 l 1061 142 q 1055 142 1057 142 q 1053 140 1053 142 q 1053 140 1053 140 q 1056 138 1054 139 q 1057 137 1057 138 q 1058 134 1057 136 q 1058 128 1058 132 q 1059 115 1058 118 q 1065 113 1060 113 q 1068 113 1067 113 q 1069 112 1069 113 q 1069 108 1069 111 l 1069 106 l 1064 106 q 1058 106 1060 106 q 1054 108 1056 106 l 1050 111 l 1050 126 l 1050 142 l 1047 142 q 1045 142 1046 142 q 1044 146 1044 143 q 1045 149 1044 149 q 1047 150 1046 150 q 1049 150 1049 150 q 1050 151 1050 150 q 1050 156 1050 153 m 282 149 l 282 149 q 301 147 293 153 q 311 129 310 140 l 311 125 l 293 125 q 280 124 283 125 q 276 122 276 124 q 278 118 275 121 q 287 112 281 113 q 299 115 293 111 q 303 119 301 118 q 308 119 306 119 q 310 118 310 119 q 307 114 310 117 q 301 108 304 111 q 297 106 299 106 q 286 105 292 104 q 276 107 281 106 q 268 129 267 115 q 282 149 269 143 m 297 140 l 297 140 q 287 142 292 143 q 278 136 282 142 q 277 133 278 135 q 276 132 276 132 q 280 131 276 132 q 288 131 283 131 q 297 131 293 131 q 301 132 301 132 q 302 134 303 132 q 300 138 301 136 q 297 140 299 139 m 754 149 l 754 149 q 763 150 758 150 q 771 149 767 150 q 783 126 783 143 q 780 113 783 119 q 769 106 776 107 q 758 104 764 103 q 747 110 751 106 q 741 121 743 114 q 740 135 739 128 q 746 143 742 139 q 754 149 750 147 m 769 140 l 769 140 q 751 138 758 146 q 750 118 744 131 q 759 112 753 113 q 771 114 765 111 q 775 128 775 119 q 769 140 775 136 m 828 149 l 828 149 q 840 149 835 151 q 849 142 846 147 q 850 136 850 140 q 850 122 850 132 l 850 106 l 847 106 l 843 106 l 843 121 q 843 132 843 128 q 842 138 843 136 q 840 140 842 139 q 835 142 839 142 q 828 140 832 143 q 823 135 824 139 q 821 119 822 131 l 821 106 l 817 106 l 814 106 l 814 128 l 814 150 l 818 150 q 821 149 821 150 q 819 144 821 147 q 817 142 818 143 q 817 139 817 140 l 817 136 l 818 139 q 823 145 821 143 q 828 149 825 147 m 992 149 l 992 149 q 997 150 994 150 q 1001 150 999 150 q 1015 144 1011 150 q 1018 126 1018 139 q 1018 119 1018 121 q 1018 115 1018 117 q 1019 114 1018 114 q 1022 110 1021 113 q 1022 107 1022 108 q 1019 106 1021 106 q 1013 113 1015 106 l 1010 117 l 1010 114 q 1006 106 1008 108 q 996 104 1003 104 q 985 108 989 104 q 981 118 981 113 q 989 128 982 124 q 994 130 990 129 q 1001 132 997 131 q 1007 133 1004 132 q 1010 133 1010 133 q 1010 135 1010 133 q 1008 138 1010 136 q 1003 142 1007 140 q 996 142 1000 143 q 990 138 992 142 q 988 136 989 136 q 985 136 988 136 q 982 137 982 136 q 983 142 982 138 q 987 146 985 144 q 992 149 989 147 m 1010 124 l 1010 124 q 1008 126 1010 126 q 1003 125 1007 126 q 1001 125 1003 125 q 994 122 997 124 q 991 120 992 121 q 990 119 990 119 q 989 117 989 118 q 997 111 989 111 q 1006 115 1001 111 q 1010 124 1010 119 m 493 132 l 493 132 l 493 150 l 497 150 l 501 150 l 501 133 q 501 122 501 125 q 502 117 501 118 q 503 114 503 115 q 513 113 507 111 q 521 118 518 114 q 522 124 522 121 q 522 136 522 128 l 524 150 l 526 150 l 531 150 l 531 132 q 531 123 531 126 q 531 117 531 119 q 531 115 531 115 q 533 114 532 114 q 535 110 535 113 q 535 107 535 108 q 533 106 535 106 q 528 108 531 106 q 524 114 525 110 q 522 115 522 115 q 521 111 522 114 q 517 106 519 107 q 510 104 515 104 q 494 111 500 104 q 494 118 494 114 q 493 132 493 122 m 196 49 l 196 49 q 199 49 197 49 q 204 50 201 50 l 210 49 l 210 44 l 210 40 l 204 40 q 198 40 200 40 q 194 38 196 39 q 192 33 193 35 q 192 29 192 32 l 192 25 l 197 25 l 204 25 l 204 19 l 204 15 l 194 15 q 188 15 190 15 q 185 14 185 15 q 185 13 185 14 q 188 11 186 13 l 192 8 l 192 -10 l 192 -28 l 186 -28 l 182 -28 l 182 -7 l 182 15 l 178 15 q 176 15 176 15 q 175 17 175 15 q 175 19 175 18 q 176 24 175 22 q 178 25 176 25 q 180 25 179 25 q 181 26 181 25 q 182 31 182 28 q 196 49 183 46 m 575 36 l 575 36 l 575 50 l 579 50 l 585 50 l 585 17 q 585 1 585 7 q 585 -10 585 -6 q 585 -15 585 -14 q 586 -17 586 -17 q 588 -18 588 -18 q 589 -18 589 -18 q 590 -19 590 -18 q 590 -24 590 -21 q 590 -26 590 -25 q 589 -28 589 -28 q 584 -26 588 -28 q 579 -22 581 -25 l 576 -19 l 572 -24 q 549 -28 561 -32 q 536 -12 539 -22 q 537 9 533 -1 q 550 24 540 19 q 553 26 551 25 q 557 26 556 26 q 567 24 561 26 q 575 17 572 21 q 578 18 583 8 q 576 22 576 19 q 576 27 576 24 q 575 36 575 31 m 568 13 l 568 13 q 560 16 565 15 q 551 14 556 17 q 544 -4 544 8 q 547 -10 546 -7 q 547 -14 547 -12 q 557 -19 551 -18 q 568 -17 563 -21 q 575 -2 575 -11 q 568 13 575 7 m 626 44 l 626 44 l 626 50 l 631 50 l 635 49 l 636 44 l 636 39 l 631 39 l 626 39 l 626 44 m 397 32 l 397 32 l 397 39 l 401 39 l 407 39 l 407 32 l 407 25 l 413 25 l 419 25 l 419 19 l 419 15 l 410 15 q 403 15 406 15 q 401 14 401 14 q 402 12 401 13 q 403 11 403 11 q 403 11 403 11 q 406 10 404 11 q 406 6 406 10 q 407 -4 407 3 q 408 -17 407 -15 q 410 -18 408 -18 q 415 -18 413 -18 l 419 -18 l 419 -24 l 419 -28 l 414 -28 q 404 -26 407 -28 q 400 -22 401 -25 q 398 -15 399 -19 q 397 -1 397 -10 l 397 15 l 394 15 q 392 15 393 15 q 391 17 392 15 q 390 19 390 18 q 391 24 390 22 q 392 25 392 25 q 394 25 393 25 l 397 25 l 397 32 m 1051 32 l 1051 32 l 1051 39 l 1056 39 l 1061 39 l 1061 32 l 1061 25 l 1067 25 l 1072 25 l 1072 19 l 1072 15 l 1064 15 q 1056 15 1057 15 q 1058 11 1054 14 q 1060 8 1060 10 q 1060 4 1060 7 q 1061 -4 1061 1 l 1061 -18 l 1068 -18 l 1074 -18 l 1074 -24 l 1074 -29 l 1067 -28 q 1059 -27 1061 -28 q 1056 -24 1057 -26 l 1051 -21 l 1051 -3 l 1051 15 l 1047 15 q 1045 15 1046 15 q 1044 17 1044 15 q 1044 19 1044 18 q 1044 24 1044 22 q 1045 25 1044 25 q 1047 25 1046 25 l 1051 25 l 1051 32 m 249 25 l 249 25 q 260 25 254 26 q 271 19 267 24 l 274 17 l 274 21 q 274 24 274 24 q 278 25 275 25 l 282 25 l 282 -7 q 282 -26 282 -19 q 282 -35 282 -32 q 281 -40 282 -39 q 279 -43 281 -42 q 277 -46 279 -44 q 274 -49 275 -47 q 270 -51 272 -50 q 265 -51 268 -51 q 254 -51 261 -51 l 239 -51 l 239 -47 l 239 -43 l 251 -43 q 261 -42 257 -43 q 267 -42 265 -42 q 274 -29 274 -37 q 274 -26 274 -28 q 276 -22 275 -24 q 274 -19 281 -12 q 261 -28 268 -25 q 247 -28 254 -31 q 240 -22 243 -26 q 235 -12 236 -17 q 233 -2 233 -8 q 235 8 233 4 q 240 18 236 14 q 249 25 243 22 m 265 14 l 265 14 q 259 16 264 15 q 251 15 254 17 q 243 3 244 13 q 246 -14 242 -6 q 258 -20 250 -21 q 271 -11 265 -19 q 272 1 274 -6 q 265 14 271 8 m 331 25 l 331 25 q 336 25 333 25 q 342 25 339 25 q 358 15 354 25 q 360 10 361 11 q 356 8 360 8 q 350 10 350 8 q 347 15 350 13 q 340 17 343 17 q 331 13 333 17 q 332 7 328 8 q 337 5 333 6 q 344 3 340 4 q 358 -3 354 0 q 361 -12 361 -7 q 361 -17 361 -15 q 358 -22 361 -19 q 338 -29 350 -31 q 319 -18 325 -28 q 318 -11 318 -12 q 322 -10 318 -10 q 327 -10 326 -10 q 328 -12 328 -11 q 328 -14 328 -12 q 332 -17 329 -15 q 334 -19 333 -18 q 337 -19 335 -19 q 342 -19 339 -19 q 348 -19 346 -19 q 350 -17 350 -18 q 352 -15 351 -15 q 353 -12 353 -14 q 338 -6 353 -10 q 330 -3 333 -4 q 325 0 326 -1 q 321 5 322 1 q 319 13 319 8 q 324 20 321 17 q 331 25 328 24 m 689 25 l 689 25 q 705 24 697 26 q 718 14 713 21 q 720 7 719 10 q 721 0 721 4 q 713 -24 722 -15 q 689 -28 701 -32 q 672 -10 676 -24 q 671 1 671 -4 q 674 11 671 7 q 681 19 676 15 q 689 25 685 24 m 703 15 l 703 15 q 692 15 697 17 q 683 10 688 14 q 681 1 681 6 q 681 -8 681 -4 q 694 -19 685 -18 q 710 -12 704 -21 q 712 3 714 -6 q 703 15 710 11 m 768 24 l 768 24 q 786 24 778 28 q 793 19 790 22 q 796 14 796 15 q 797 12 796 13 q 797 10 797 11 q 797 9 797 10 q 793 8 796 8 q 789 9 790 8 q 788 11 788 10 q 781 15 786 14 q 770 15 775 17 q 765 10 765 14 q 767 8 765 8 q 772 6 768 7 q 783 1 775 4 q 793 -2 790 0 q 797 -8 796 -4 q 794 -24 800 -18 q 776 -29 788 -29 q 762 -24 768 -29 q 756 -12 756 -19 q 756 -10 756 -11 q 760 -10 757 -10 q 764 -10 763 -10 q 765 -12 765 -11 q 778 -19 767 -19 q 789 -14 786 -19 q 787 -10 789 -11 q 779 -7 785 -8 q 765 -2 769 -4 q 758 3 761 0 q 756 6 757 4 q 757 11 756 8 q 768 24 757 21 m 901 22 l 901 22 q 906 25 904 24 q 910 26 908 26 q 921 22 915 26 q 928 13 926 18 q 928 5 928 11 q 929 -10 929 -1 l 929 -28 l 924 -28 l 919 -28 l 919 -12 q 919 6 919 0 q 915 14 918 13 q 906 15 911 17 q 897 8 900 14 q 895 5 896 7 q 894 -1 894 3 q 894 -11 894 -4 l 893 -28 l 889 -28 l 885 -28 l 885 -1 l 885 25 l 889 25 q 893 24 892 25 q 894 22 894 24 q 893 21 894 22 q 892 18 892 19 q 889 13 889 15 q 889 10 889 10 q 892 15 889 11 q 901 22 896 19 m 983 25 l 983 25 q 996 25 989 26 q 1007 18 1003 24 q 1013 11 1011 15 q 1015 1 1014 7 l 1015 -6 l 994 -6 q 983 -6 988 -6 q 977 -6 979 -6 q 974 -6 975 -6 q 974 -7 974 -7 q 976 -12 974 -10 q 982 -18 979 -15 q 992 -19 986 -21 q 1003 -14 999 -18 q 1004 -12 1003 -12 q 1008 -11 1006 -11 q 1013 -12 1013 -11 q 1011 -18 1014 -14 q 997 -28 1006 -25 q 981 -28 989 -31 q 964 -1 964 -21 q 983 25 965 19 m 997 14 l 997 14 q 990 16 994 15 q 983 15 986 17 q 978 11 981 14 q 975 6 975 8 l 974 3 l 989 3 q 999 3 996 3 q 1003 3 1003 3 q 1004 6 1004 4 q 1002 10 1004 7 q 997 14 1000 13 m 454 6 l 454 6 l 454 25 l 458 25 l 463 25 l 463 6 q 463 -6 463 -1 q 463 -12 463 -10 q 464 -15 464 -14 q 465 -17 464 -15 q 476 -19 469 -21 q 485 -12 482 -18 q 487 -9 486 -11 q 488 -3 488 -7 q 488 8 488 1 l 489 25 l 493 25 l 497 25 l 497 6 l 497 -15 l 500 -17 q 502 -19 501 -18 q 503 -24 503 -21 q 501 -28 503 -28 q 495 -26 499 -28 q 490 -19 492 -24 q 488 -17 489 -17 q 486 -24 486 -18 q 481 -28 485 -26 q 471 -29 476 -29 q 461 -26 465 -29 q 458 -24 460 -25 q 456 -19 457 -22 q 455 -15 456 -18 q 454 -8 454 -12 q 454 6 454 -4 m 626 -1 l 626 -1 l 626 25 l 631 25 l 635 24 l 636 -1 l 636 -28 l 631 -28 l 626 -28 l 626 -1 m 836 -17 l 836 -17 q 838 -15 836 -15 q 842 -15 840 -15 l 847 -15 l 847 -22 l 847 -28 l 842 -28 l 835 -28 l 835 -22 q 835 -18 835 -19 q 836 -17 836 -17 z "},"1":{"ha":1250,"x_min":83,"x_max":1167,"o":"m 328 1032 l 328 1032 q 420 1033 335 1032 q 631 1033 506 1033 l 926 1033 l 942 1031 q 1063 978 1008 1018 q 1085 956 1071 969 q 1107 932 1099 943 q 1160 826 1146 885 q 1161 822 1161 824 q 1164 807 1163 814 q 1166 787 1165 800 q 1167 748 1167 774 q 1167 676 1167 722 q 1167 651 1167 665 q 1167 563 1167 596 q 1167 514 1167 531 q 1165 489 1167 497 q 1163 472 1164 481 q 1085 332 1146 390 q 940 258 1026 274 l 924 256 l 632 256 q 486 254 543 254 q 397 255 429 254 q 347 256 364 256 q 323 256 331 256 q 307 258 315 257 q 307 260 307 258 q 147 351 211 276 q 86 482 100 407 l 83 499 l 83 643 l 83 788 l 86 803 q 163 954 100 892 q 328 1032 231 1021 m 699 774 l 699 774 q 664 772 681 779 q 638 747 647 765 q 635 742 636 744 q 635 736 635 739 q 635 726 635 733 q 635 717 635 721 q 635 712 635 714 q 638 707 636 710 q 660 684 646 692 q 690 679 674 676 q 725 703 714 683 q 729 744 736 722 q 717 762 725 754 q 699 774 708 769 m 854 728 l 854 728 l 854 776 l 842 776 l 829 776 l 829 754 l 828 733 l 815 754 l 801 775 l 789 775 l 775 775 l 775 726 l 775 679 l 789 679 l 803 679 l 803 700 l 803 722 l 817 701 l 831 679 l 843 679 l 854 679 l 854 728 m 228 774 l 228 774 q 222 774 225 774 q 215 775 219 775 q 200 775 210 775 l 179 775 l 179 726 l 179 679 l 192 679 l 206 679 l 206 694 l 206 710 l 215 711 q 224 712 221 711 q 231 714 228 713 q 249 744 250 725 q 228 774 246 765 m 353 763 l 353 763 l 353 775 l 322 775 l 290 775 l 290 726 l 290 679 l 322 679 l 353 679 l 353 692 l 353 704 l 335 704 l 318 704 l 318 708 l 318 714 l 333 714 l 349 714 l 349 726 l 349 739 l 333 739 l 318 739 l 318 744 l 318 749 l 335 749 l 353 749 l 353 763 m 454 771 l 454 771 l 449 775 l 424 775 l 400 775 l 400 728 l 400 679 l 413 679 l 426 679 l 426 694 q 426 706 426 703 q 428 710 426 710 q 432 706 429 710 q 439 694 435 701 l 449 679 l 464 679 q 474 679 469 679 q 479 679 479 679 q 476 685 479 679 q 468 697 472 690 l 457 714 l 461 718 q 465 723 463 721 q 468 728 467 725 q 471 733 471 731 q 471 742 471 736 q 471 751 471 747 q 469 756 471 754 q 454 771 464 765 m 567 774 l 567 774 q 552 775 561 775 q 538 772 543 775 q 515 749 517 765 q 516 738 515 742 q 521 729 517 733 q 549 717 528 721 q 560 714 557 715 q 565 710 564 713 q 565 708 565 708 q 564 706 565 707 q 553 703 560 703 q 543 708 546 704 l 540 711 l 533 710 q 532 710 533 710 q 526 708 529 708 q 521 707 522 707 q 515 704 515 706 q 517 697 514 703 q 541 679 524 683 q 576 683 558 675 q 592 711 594 692 q 558 739 592 733 q 544 749 538 743 q 553 751 547 751 q 561 747 558 751 l 564 744 l 578 747 q 585 749 582 749 q 588 749 588 749 q 590 751 589 750 q 589 753 590 751 q 581 765 588 760 q 567 774 575 771 m 957 768 l 957 768 l 954 775 l 939 775 l 925 775 l 910 728 q 899 694 904 708 q 894 679 894 681 q 899 679 894 679 q 908 679 903 679 l 922 679 l 924 685 l 925 690 l 940 689 l 954 689 l 956 683 l 957 679 l 971 679 q 982 679 979 679 q 985 681 985 679 q 982 688 985 681 q 971 722 978 700 q 963 749 967 736 q 957 767 958 761 q 957 768 957 768 m 1050 740 l 1050 740 l 1050 775 l 1038 775 l 1024 775 l 1024 726 l 1024 679 l 1051 679 l 1079 679 l 1079 692 l 1079 704 l 1065 704 l 1050 704 l 1050 740 m 685 607 l 685 607 q 643 596 661 611 q 627 552 624 576 q 654 515 631 528 q 660 512 658 513 q 666 511 663 511 q 676 511 669 511 q 685 511 682 511 q 691 512 689 511 q 697 515 693 513 q 711 525 704 518 q 721 538 718 532 q 725 568 728 553 q 710 594 721 583 q 685 607 699 604 m 849 560 l 849 560 l 849 608 l 835 608 q 822 607 821 608 q 821 600 821 606 q 821 586 821 594 l 821 567 l 808 586 l 794 607 l 782 607 l 769 607 l 769 558 l 769 511 l 783 511 l 796 511 l 796 532 l 797 554 l 811 532 l 824 511 l 836 511 l 849 511 l 849 560 m 231 578 l 231 578 l 231 607 l 217 607 l 204 607 l 204 572 l 204 538 l 208 532 q 217 520 211 525 q 229 513 222 515 q 243 511 235 511 q 258 513 251 511 q 272 522 265 515 q 279 535 278 528 q 281 541 281 538 q 282 551 282 544 q 282 574 282 558 l 282 607 l 269 607 l 256 607 l 256 578 q 256 553 256 561 q 254 543 256 546 q 250 538 253 540 q 242 536 246 536 q 235 539 239 536 q 232 544 233 540 q 231 554 231 547 q 231 578 231 561 m 381 606 l 381 606 q 366 607 375 607 q 350 606 357 607 q 340 600 344 604 q 332 592 335 596 q 328 588 329 590 q 328 581 328 585 q 329 569 328 572 q 335 561 331 565 q 345 554 339 557 q 363 549 351 551 q 378 542 378 546 q 373 536 378 538 q 363 535 368 535 q 356 540 358 536 l 353 543 l 340 540 q 331 538 335 539 q 326 538 328 538 q 327 534 326 536 q 330 528 328 532 q 333 522 332 525 q 363 511 343 511 q 400 525 389 510 q 403 531 403 528 q 404 536 404 533 q 375 571 407 564 q 358 576 361 574 q 357 582 354 578 q 360 583 358 583 q 365 583 363 583 q 371 583 369 583 q 374 579 372 582 l 376 576 l 389 579 q 398 581 394 581 q 401 582 401 582 q 402 585 403 583 q 400 589 401 586 q 381 606 393 601 m 511 594 l 511 594 l 511 607 l 481 607 l 449 607 l 449 558 l 449 511 l 481 511 l 511 511 l 511 524 l 511 536 l 493 536 l 476 536 l 476 542 l 476 546 l 492 546 l 507 546 l 507 558 l 507 571 l 492 571 l 476 571 l 476 576 l 476 582 l 493 582 l 511 582 l 511 594 m 922 572 l 922 572 l 922 607 l 910 607 l 896 607 l 896 558 l 896 511 l 924 511 l 951 511 l 951 524 l 951 536 l 936 536 l 922 536 l 922 572 m 1001 594 l 1001 594 l 994 607 l 979 607 l 963 607 l 965 604 q 971 594 967 601 q 982 576 975 586 l 996 551 l 996 531 l 996 511 l 1008 511 l 1022 511 l 1022 531 l 1022 551 l 1036 576 q 1048 595 1043 588 q 1053 604 1053 603 l 1054 607 l 1039 607 l 1024 607 l 1017 594 q 1012 585 1014 589 q 1008 582 1010 582 q 1006 585 1008 582 q 1001 594 1004 589 m 674 749 l 674 749 q 699 743 689 754 q 703 717 708 732 q 681 704 694 703 q 661 721 667 706 q 663 737 660 729 q 674 749 667 744 m 206 742 l 206 742 l 206 749 l 213 749 q 219 748 218 749 q 221 743 221 747 q 219 738 221 739 q 213 735 217 736 l 206 735 l 206 742 m 426 742 l 426 742 l 426 749 l 435 749 q 443 748 442 749 q 444 742 444 747 q 433 735 444 735 l 426 735 l 426 742 m 938 729 l 938 729 q 939 736 938 733 q 940 738 940 739 q 942 732 940 738 q 943 726 943 729 l 947 714 l 940 714 l 933 714 l 933 718 q 934 721 933 718 q 936 728 935 724 q 938 729 936 729 m 667 581 l 667 581 q 685 580 676 585 q 697 565 694 575 q 693 544 700 553 q 675 536 686 536 q 657 547 664 536 q 655 567 651 557 q 667 581 658 576 m 194 169 l 194 169 q 212 171 203 172 q 226 165 221 169 q 231 161 229 164 q 235 156 233 158 q 236 151 236 153 q 235 151 236 151 q 232 150 235 150 q 229 151 231 150 q 226 154 228 151 q 209 163 221 163 q 190 156 197 164 q 183 135 182 149 q 193 115 185 121 q 214 113 201 110 q 225 120 221 115 q 229 129 229 125 l 229 132 l 219 132 l 210 132 l 210 136 l 210 140 l 224 140 l 236 140 l 236 122 l 236 106 l 233 106 q 229 107 229 106 q 232 114 229 108 q 233 117 233 117 q 232 118 233 118 q 231 117 232 118 q 228 114 229 115 q 207 104 221 104 q 179 121 189 104 q 177 125 178 124 q 176 129 176 126 q 176 138 176 132 q 176 146 176 143 q 177 150 176 149 q 179 154 178 151 q 194 169 185 165 m 451 168 l 451 168 q 461 171 454 171 l 468 171 l 468 167 l 468 163 l 463 163 q 457 162 458 163 q 454 160 456 161 q 453 156 454 158 q 453 153 453 154 l 453 150 l 458 150 l 464 150 l 464 146 l 464 142 l 457 142 q 451 142 453 142 q 447 140 449 142 q 448 140 447 140 q 450 138 449 139 q 452 135 451 136 q 453 131 453 133 q 453 119 453 128 l 453 106 l 449 106 l 444 106 l 444 124 l 444 142 l 442 142 q 440 142 440 142 q 439 146 439 143 q 440 149 439 149 q 442 150 440 150 q 444 151 444 150 q 444 154 444 151 q 451 168 444 163 m 565 138 l 565 138 l 565 171 l 569 171 l 574 171 l 574 138 l 574 106 l 569 106 l 565 106 l 565 138 m 604 138 l 604 138 l 604 171 l 608 171 l 613 171 l 613 138 l 613 106 l 608 106 l 604 106 l 604 138 m 704 168 l 704 168 q 713 171 707 171 l 719 171 l 719 167 l 719 163 l 714 163 q 709 162 711 163 q 707 160 707 161 q 705 156 706 158 q 704 153 704 154 l 704 150 l 710 150 l 717 150 l 717 146 l 717 142 l 708 142 q 702 142 704 142 q 700 140 700 142 q 699 140 699 140 q 701 138 700 139 q 703 135 703 136 q 704 131 704 133 q 704 119 704 128 l 704 106 l 700 106 l 696 106 l 696 124 l 696 142 l 694 142 q 692 142 692 142 q 692 146 692 143 q 692 149 692 149 q 694 150 692 150 q 696 151 696 150 q 696 154 696 151 q 704 168 696 163 m 342 156 l 342 156 l 342 161 l 346 161 l 350 161 l 350 156 l 350 150 l 356 150 l 360 150 l 360 146 l 360 142 l 353 142 q 347 138 340 142 q 349 136 349 138 q 349 133 349 135 q 350 125 350 131 l 350 114 l 356 113 l 361 113 l 361 108 l 361 106 l 354 106 q 349 106 350 106 q 344 108 347 106 l 342 111 l 342 126 l 342 142 l 339 142 q 335 142 336 142 q 335 146 335 143 q 335 149 335 149 q 339 150 336 150 q 341 150 340 150 q 342 151 342 150 q 342 156 342 153 m 883 156 l 883 156 l 883 161 l 888 161 l 890 161 l 890 156 l 890 150 l 896 150 l 901 150 l 901 146 l 901 142 l 894 142 q 888 142 889 142 q 886 140 886 142 q 887 140 886 140 q 889 138 888 139 q 890 137 889 138 q 890 134 890 136 q 890 128 890 132 q 892 115 890 118 q 897 113 893 113 q 901 113 900 113 q 903 112 903 113 q 903 108 903 111 l 903 106 l 897 106 q 891 106 893 106 q 888 108 889 106 l 883 111 l 883 126 l 883 142 l 881 142 q 878 142 879 142 q 878 146 878 143 q 878 149 878 149 q 881 150 879 150 q 883 150 882 150 q 883 151 883 150 q 883 156 883 153 m 1050 156 l 1050 156 l 1050 161 l 1054 161 l 1058 161 l 1058 156 l 1058 150 l 1063 150 l 1068 150 l 1068 146 l 1068 142 l 1061 142 q 1055 142 1057 142 q 1053 140 1053 142 q 1053 140 1053 140 q 1056 138 1054 139 q 1057 137 1057 138 q 1058 134 1057 136 q 1058 128 1058 132 q 1059 115 1058 118 q 1065 113 1060 113 q 1068 113 1067 113 q 1069 112 1069 113 q 1069 108 1069 111 l 1069 106 l 1064 106 q 1058 106 1060 106 q 1054 108 1056 106 l 1050 111 l 1050 126 l 1050 142 l 1047 142 q 1045 142 1046 142 q 1044 146 1044 143 q 1045 149 1044 149 q 1047 150 1046 150 q 1049 150 1049 150 q 1050 151 1050 150 q 1050 156 1050 153 m 282 149 l 282 149 q 301 147 293 153 q 311 129 310 140 l 311 125 l 293 125 q 280 124 283 125 q 276 122 276 124 q 278 118 275 121 q 287 112 281 113 q 299 115 293 111 q 303 119 301 118 q 308 119 306 119 q 310 118 310 119 q 307 114 310 117 q 301 108 304 111 q 297 106 299 106 q 286 105 292 104 q 276 107 281 106 q 268 129 267 115 q 282 149 269 143 m 297 140 l 297 140 q 287 142 292 143 q 278 136 282 142 q 277 133 278 135 q 276 132 276 132 q 280 131 276 132 q 288 131 283 131 q 297 131 293 131 q 301 132 301 132 q 302 134 303 132 q 300 138 301 136 q 297 140 299 139 m 754 149 l 754 149 q 763 150 758 150 q 771 149 767 150 q 783 126 783 143 q 780 113 783 119 q 769 106 776 107 q 758 104 764 103 q 747 110 751 106 q 741 121 743 114 q 740 135 739 128 q 746 143 742 139 q 754 149 750 147 m 769 140 l 769 140 q 751 138 758 146 q 750 118 744 131 q 759 112 753 113 q 771 114 765 111 q 775 128 775 119 q 769 140 775 136 m 828 149 l 828 149 q 840 149 835 151 q 849 142 846 147 q 850 136 850 140 q 850 122 850 132 l 850 106 l 847 106 l 843 106 l 843 121 q 843 132 843 128 q 842 138 843 136 q 840 140 842 139 q 835 142 839 142 q 828 140 832 143 q 823 135 824 139 q 821 119 822 131 l 821 106 l 817 106 l 814 106 l 814 128 l 814 150 l 818 150 q 821 149 821 150 q 819 144 821 147 q 817 142 818 143 q 817 139 817 140 l 817 136 l 818 139 q 823 145 821 143 q 828 149 825 147 m 992 149 l 992 149 q 997 150 994 150 q 1001 150 999 150 q 1015 144 1011 150 q 1018 126 1018 139 q 1018 119 1018 121 q 1018 115 1018 117 q 1019 114 1018 114 q 1022 110 1021 113 q 1022 107 1022 108 q 1019 106 1021 106 q 1013 113 1015 106 l 1010 117 l 1010 114 q 1006 106 1008 108 q 996 104 1003 104 q 985 108 989 104 q 981 118 981 113 q 989 128 982 124 q 994 130 990 129 q 1001 132 997 131 q 1007 133 1004 132 q 1010 133 1010 133 q 1010 135 1010 133 q 1008 138 1010 136 q 1003 142 1007 140 q 996 142 1000 143 q 990 138 992 142 q 988 136 989 136 q 985 136 988 136 q 982 137 982 136 q 983 142 982 138 q 987 146 985 144 q 992 149 989 147 m 1010 124 l 1010 124 q 1008 126 1010 126 q 1003 125 1007 126 q 1001 125 1003 125 q 994 122 997 124 q 991 120 992 121 q 990 119 990 119 q 989 117 989 118 q 997 111 989 111 q 1006 115 1001 111 q 1010 124 1010 119 m 493 132 l 493 132 l 493 150 l 497 150 l 501 150 l 501 133 q 501 122 501 125 q 502 117 501 118 q 503 114 503 115 q 513 113 507 111 q 521 118 518 114 q 522 124 522 121 q 522 136 522 128 l 524 150 l 526 150 l 531 150 l 531 132 q 531 123 531 126 q 531 117 531 119 q 531 115 531 115 q 533 114 532 114 q 535 110 535 113 q 535 107 535 108 q 533 106 535 106 q 528 108 531 106 q 524 114 525 110 q 522 115 522 115 q 521 111 522 114 q 517 106 519 107 q 510 104 515 104 q 494 111 500 104 q 494 118 494 114 q 493 132 493 122 m 196 49 l 196 49 q 199 49 197 49 q 204 50 201 50 l 210 49 l 210 44 l 210 40 l 204 40 q 198 40 200 40 q 194 38 196 39 q 192 33 193 35 q 192 29 192 32 l 192 25 l 197 25 l 204 25 l 204 19 l 204 15 l 194 15 q 188 15 190 15 q 185 14 185 15 q 185 13 185 14 q 188 11 186 13 l 192 8 l 192 -10 l 192 -28 l 186 -28 l 182 -28 l 182 -7 l 182 15 l 178 15 q 176 15 176 15 q 175 17 175 15 q 175 19 175 18 q 176 24 175 22 q 178 25 176 25 q 180 25 179 25 q 181 26 181 25 q 182 31 182 28 q 196 49 183 46 m 575 36 l 575 36 l 575 50 l 579 50 l 585 50 l 585 17 q 585 1 585 7 q 585 -10 585 -6 q 585 -15 585 -14 q 586 -17 586 -17 q 588 -18 588 -18 q 589 -18 589 -18 q 590 -19 590 -18 q 590 -24 590 -21 q 590 -26 590 -25 q 589 -28 589 -28 q 584 -26 588 -28 q 579 -22 581 -25 l 576 -19 l 572 -24 q 549 -28 561 -32 q 536 -12 539 -22 q 537 9 533 -1 q 550 24 540 19 q 553 26 551 25 q 557 26 556 26 q 567 24 561 26 q 575 17 572 21 q 578 18 583 8 q 576 22 576 19 q 576 27 576 24 q 575 36 575 31 m 568 13 l 568 13 q 560 16 565 15 q 551 14 556 17 q 544 -4 544 8 q 547 -10 546 -7 q 547 -14 547 -12 q 557 -19 551 -18 q 568 -17 563 -21 q 575 -2 575 -11 q 568 13 575 7 m 626 44 l 626 44 l 626 50 l 631 50 l 635 49 l 636 44 l 636 39 l 631 39 l 626 39 l 626 44 m 397 32 l 397 32 l 397 39 l 401 39 l 407 39 l 407 32 l 407 25 l 413 25 l 419 25 l 419 19 l 419 15 l 410 15 q 403 15 406 15 q 401 14 401 14 q 402 12 401 13 q 403 11 403 11 q 403 11 403 11 q 406 10 404 11 q 406 6 406 10 q 407 -4 407 3 q 408 -17 407 -15 q 410 -18 408 -18 q 415 -18 413 -18 l 419 -18 l 419 -24 l 419 -28 l 414 -28 q 404 -26 407 -28 q 400 -22 401 -25 q 398 -15 399 -19 q 397 -1 397 -10 l 397 15 l 394 15 q 392 15 393 15 q 391 17 392 15 q 390 19 390 18 q 391 24 390 22 q 392 25 392 25 q 394 25 393 25 l 397 25 l 397 32 m 1051 32 l 1051 32 l 1051 39 l 1056 39 l 1061 39 l 1061 32 l 1061 25 l 1067 25 l 1072 25 l 1072 19 l 1072 15 l 1064 15 q 1056 15 1057 15 q 1058 11 1054 14 q 1060 8 1060 10 q 1060 4 1060 7 q 1061 -4 1061 1 l 1061 -18 l 1068 -18 l 1074 -18 l 1074 -24 l 1074 -29 l 1067 -28 q 1059 -27 1061 -28 q 1056 -24 1057 -26 l 1051 -21 l 1051 -3 l 1051 15 l 1047 15 q 1045 15 1046 15 q 1044 17 1044 15 q 1044 19 1044 18 q 1044 24 1044 22 q 1045 25 1044 25 q 1047 25 1046 25 l 1051 25 l 1051 32 m 249 25 l 249 25 q 260 25 254 26 q 271 19 267 24 l 274 17 l 274 21 q 274 24 274 24 q 278 25 275 25 l 282 25 l 282 -7 q 282 -26 282 -19 q 282 -35 282 -32 q 281 -40 282 -39 q 279 -43 281 -42 q 277 -46 279 -44 q 274 -49 275 -47 q 270 -51 272 -50 q 265 -51 268 -51 q 254 -51 261 -51 l 239 -51 l 239 -47 l 239 -43 l 251 -43 q 261 -42 257 -43 q 267 -42 265 -42 q 274 -29 274 -37 q 274 -26 274 -28 q 276 -22 275 -24 q 274 -19 281 -12 q 261 -28 268 -25 q 247 -28 254 -31 q 240 -22 243 -26 q 235 -12 236 -17 q 233 -2 233 -8 q 235 8 233 4 q 240 18 236 14 q 249 25 243 22 m 265 14 l 265 14 q 259 16 264 15 q 251 15 254 17 q 243 3 244 13 q 246 -14 242 -6 q 258 -20 250 -21 q 271 -11 265 -19 q 272 1 274 -6 q 265 14 271 8 m 331 25 l 331 25 q 336 25 333 25 q 342 25 339 25 q 358 15 354 25 q 360 10 361 11 q 356 8 360 8 q 350 10 350 8 q 347 15 350 13 q 340 17 343 17 q 331 13 333 17 q 332 7 328 8 q 337 5 333 6 q 344 3 340 4 q 358 -3 354 0 q 361 -12 361 -7 q 361 -17 361 -15 q 358 -22 361 -19 q 338 -29 350 -31 q 319 -18 325 -28 q 318 -11 318 -12 q 322 -10 318 -10 q 327 -10 326 -10 q 328 -12 328 -11 q 328 -14 328 -12 q 332 -17 329 -15 q 334 -19 333 -18 q 337 -19 335 -19 q 342 -19 339 -19 q 348 -19 346 -19 q 350 -17 350 -18 q 352 -15 351 -15 q 353 -12 353 -14 q 338 -6 353 -10 q 330 -3 333 -4 q 325 0 326 -1 q 321 5 322 1 q 319 13 319 8 q 324 20 321 17 q 331 25 328 24 m 689 25 l 689 25 q 705 24 697 26 q 718 14 713 21 q 720 7 719 10 q 721 0 721 4 q 713 -24 722 -15 q 689 -28 701 -32 q 672 -10 676 -24 q 671 1 671 -4 q 674 11 671 7 q 681 19 676 15 q 689 25 685 24 m 703 15 l 703 15 q 692 15 697 17 q 683 10 688 14 q 681 1 681 6 q 681 -8 681 -4 q 694 -19 685 -18 q 710 -12 704 -21 q 712 3 714 -6 q 703 15 710 11 m 768 24 l 768 24 q 786 24 778 28 q 793 19 790 22 q 796 14 796 15 q 797 12 796 13 q 797 10 797 11 q 797 9 797 10 q 793 8 796 8 q 789 9 790 8 q 788 11 788 10 q 781 15 786 14 q 770 15 775 17 q 765 10 765 14 q 767 8 765 8 q 772 6 768 7 q 783 1 775 4 q 793 -2 790 0 q 797 -8 796 -4 q 794 -24 800 -18 q 776 -29 788 -29 q 762 -24 768 -29 q 756 -12 756 -19 q 756 -10 756 -11 q 760 -10 757 -10 q 764 -10 763 -10 q 765 -12 765 -11 q 778 -19 767 -19 q 789 -14 786 -19 q 787 -10 789 -11 q 779 -7 785 -8 q 765 -2 769 -4 q 758 3 761 0 q 756 6 757 4 q 757 11 756 8 q 768 24 757 21 m 901 22 l 901 22 q 906 25 904 24 q 910 26 908 26 q 921 22 915 26 q 928 13 926 18 q 928 5 928 11 q 929 -10 929 -1 l 929 -28 l 924 -28 l 919 -28 l 919 -12 q 919 6 919 0 q 915 14 918 13 q 906 15 911 17 q 897 8 900 14 q 895 5 896 7 q 894 -1 894 3 q 894 -11 894 -4 l 893 -28 l 889 -28 l 885 -28 l 885 -1 l 885 25 l 889 25 q 893 24 892 25 q 894 22 894 24 q 893 21 894 22 q 892 18 892 19 q 889 13 889 15 q 889 10 889 10 q 892 15 889 11 q 901 22 896 19 m 983 25 l 983 25 q 996 25 989 26 q 1007 18 1003 24 q 1013 11 1011 15 q 1015 1 1014 7 l 1015 -6 l 994 -6 q 983 -6 988 -6 q 977 -6 979 -6 q 974 -6 975 -6 q 974 -7 974 -7 q 976 -12 974 -10 q 982 -18 979 -15 q 992 -19 986 -21 q 1003 -14 999 -18 q 1004 -12 1003 -12 q 1008 -11 1006 -11 q 1013 -12 1013 -11 q 1011 -18 1014 -14 q 997 -28 1006 -25 q 981 -28 989 -31 q 964 -1 964 -21 q 983 25 965 19 m 997 14 l 997 14 q 990 16 994 15 q 983 15 986 17 q 978 11 981 14 q 975 6 975 8 l 974 3 l 989 3 q 999 3 996 3 q 1003 3 1003 3 q 1004 6 1004 4 q 1002 10 1004 7 q 997 14 1000 13 m 454 6 l 454 6 l 454 25 l 458 25 l 463 25 l 463 6 q 463 -6 463 -1 q 463 -12 463 -10 q 464 -15 464 -14 q 465 -17 464 -15 q 476 -19 469 -21 q 485 -12 482 -18 q 487 -9 486 -11 q 488 -3 488 -7 q 488 8 488 1 l 489 25 l 493 25 l 497 25 l 497 6 l 497 -15 l 500 -17 q 502 -19 501 -18 q 503 -24 503 -21 q 501 -28 503 -28 q 495 -26 499 -28 q 490 -19 492 -24 q 488 -17 489 -17 q 486 -24 486 -18 q 481 -28 485 -26 q 471 -29 476 -29 q 461 -26 465 -29 q 458 -24 460 -25 q 456 -19 457 -22 q 455 -15 456 -18 q 454 -8 454 -12 q 454 6 454 -4 m 626 -1 l 626 -1 l 626 25 l 631 25 l 635 24 l 636 -1 l 636 -28 l 631 -28 l 626 -28 l 626 -1 m 836 -17 l 836 -17 q 838 -15 836 -15 q 842 -15 840 -15 l 847 -15 l 847 -22 l 847 -28 l 842 -28 l 835 -28 l 835 -22 q 835 -18 835 -19 q 836 -17 836 -17 z "},"2":{"ha":1250,"x_min":83,"x_max":1167,"o":"m 328 1032 l 328 1032 q 420 1033 335 1032 q 631 1033 506 1033 l 926 1033 l 942 1031 q 1063 978 1008 1018 q 1085 956 1071 969 q 1107 932 1099 943 q 1160 826 1146 885 q 1161 822 1161 824 q 1164 807 1163 814 q 1166 787 1165 800 q 1167 748 1167 774 q 1167 676 1167 722 q 1167 651 1167 665 q 1167 563 1167 596 q 1167 514 1167 531 q 1165 489 1167 497 q 1163 472 1164 481 q 1085 332 1146 390 q 940 258 1026 274 l 924 256 l 632 256 q 486 254 543 254 q 397 255 429 254 q 347 256 364 256 q 323 256 331 256 q 307 258 315 257 q 307 260 307 258 q 147 351 211 276 q 86 482 100 407 l 83 499 l 83 643 l 83 788 l 86 803 q 163 954 100 892 q 328 1032 231 1021 m 699 774 l 699 774 q 664 772 681 779 q 638 747 647 765 q 635 742 636 744 q 635 736 635 739 q 635 726 635 733 q 635 717 635 721 q 635 712 635 714 q 638 707 636 710 q 660 684 646 692 q 690 679 674 676 q 725 703 714 683 q 729 744 736 722 q 717 762 725 754 q 699 774 708 769 m 854 728 l 854 728 l 854 776 l 842 776 l 829 776 l 829 754 l 828 733 l 815 754 l 801 775 l 789 775 l 775 775 l 775 726 l 775 679 l 789 679 l 803 679 l 803 700 l 803 722 l 817 701 l 831 679 l 843 679 l 854 679 l 854 728 m 228 774 l 228 774 q 222 774 225 774 q 215 775 219 775 q 200 775 210 775 l 179 775 l 179 726 l 179 679 l 192 679 l 206 679 l 206 694 l 206 710 l 215 711 q 224 712 221 711 q 231 714 228 713 q 249 744 250 725 q 228 774 246 765 m 353 763 l 353 763 l 353 775 l 322 775 l 290 775 l 290 726 l 290 679 l 322 679 l 353 679 l 353 692 l 353 704 l 335 704 l 318 704 l 318 708 l 318 714 l 333 714 l 349 714 l 349 726 l 349 739 l 333 739 l 318 739 l 318 744 l 318 749 l 335 749 l 353 749 l 353 763 m 454 771 l 454 771 l 449 775 l 424 775 l 400 775 l 400 728 l 400 679 l 413 679 l 426 679 l 426 694 q 426 706 426 703 q 428 710 426 710 q 432 706 429 710 q 439 694 435 701 l 449 679 l 464 679 q 474 679 469 679 q 479 679 479 679 q 476 685 479 679 q 468 697 472 690 l 457 714 l 461 718 q 465 723 463 721 q 468 728 467 725 q 471 733 471 731 q 471 742 471 736 q 471 751 471 747 q 469 756 471 754 q 454 771 464 765 m 567 774 l 567 774 q 552 775 561 775 q 538 772 543 775 q 515 749 517 765 q 516 738 515 742 q 521 729 517 733 q 549 717 528 721 q 560 714 557 715 q 565 710 564 713 q 565 708 565 708 q 564 706 565 707 q 553 703 560 703 q 543 708 546 704 l 540 711 l 533 710 q 532 710 533 710 q 526 708 529 708 q 521 707 522 707 q 515 704 515 706 q 517 697 514 703 q 541 679 524 683 q 576 683 558 675 q 592 711 594 692 q 558 739 592 733 q 544 749 538 743 q 553 751 547 751 q 561 747 558 751 l 564 744 l 578 747 q 585 749 582 749 q 588 749 588 749 q 590 751 589 750 q 589 753 590 751 q 581 765 588 760 q 567 774 575 771 m 957 768 l 957 768 l 954 775 l 939 775 l 925 775 l 910 728 q 899 694 904 708 q 894 679 894 681 q 899 679 894 679 q 908 679 903 679 l 922 679 l 924 685 l 925 690 l 940 689 l 954 689 l 956 683 l 957 679 l 971 679 q 982 679 979 679 q 985 681 985 679 q 982 688 985 681 q 971 722 978 700 q 963 749 967 736 q 957 767 958 761 q 957 768 957 768 m 1050 740 l 1050 740 l 1050 775 l 1038 775 l 1024 775 l 1024 726 l 1024 679 l 1051 679 l 1079 679 l 1079 692 l 1079 704 l 1065 704 l 1050 704 l 1050 740 m 685 607 l 685 607 q 643 596 661 611 q 627 552 624 576 q 654 515 631 528 q 660 512 658 513 q 666 511 663 511 q 676 511 669 511 q 685 511 682 511 q 691 512 689 511 q 697 515 693 513 q 711 525 704 518 q 721 538 718 532 q 725 568 728 553 q 710 594 721 583 q 685 607 699 604 m 849 560 l 849 560 l 849 608 l 835 608 q 822 607 821 608 q 821 600 821 606 q 821 586 821 594 l 821 567 l 808 586 l 794 607 l 782 607 l 769 607 l 769 558 l 769 511 l 783 511 l 796 511 l 796 532 l 797 554 l 811 532 l 824 511 l 836 511 l 849 511 l 849 560 m 231 578 l 231 578 l 231 607 l 217 607 l 204 607 l 204 572 l 204 538 l 208 532 q 217 520 211 525 q 229 513 222 515 q 243 511 235 511 q 258 513 251 511 q 272 522 265 515 q 279 535 278 528 q 281 541 281 538 q 282 551 282 544 q 282 574 282 558 l 282 607 l 269 607 l 256 607 l 256 578 q 256 553 256 561 q 254 543 256 546 q 250 538 253 540 q 242 536 246 536 q 235 539 239 536 q 232 544 233 540 q 231 554 231 547 q 231 578 231 561 m 381 606 l 381 606 q 366 607 375 607 q 350 606 357 607 q 340 600 344 604 q 332 592 335 596 q 328 588 329 590 q 328 581 328 585 q 329 569 328 572 q 335 561 331 565 q 345 554 339 557 q 363 549 351 551 q 378 542 378 546 q 373 536 378 538 q 363 535 368 535 q 356 540 358 536 l 353 543 l 340 540 q 331 538 335 539 q 326 538 328 538 q 327 534 326 536 q 330 528 328 532 q 333 522 332 525 q 363 511 343 511 q 400 525 389 510 q 403 531 403 528 q 404 536 404 533 q 375 571 407 564 q 358 576 361 574 q 357 582 354 578 q 360 583 358 583 q 365 583 363 583 q 371 583 369 583 q 374 579 372 582 l 376 576 l 389 579 q 398 581 394 581 q 401 582 401 582 q 402 585 403 583 q 400 589 401 586 q 381 606 393 601 m 511 594 l 511 594 l 511 607 l 481 607 l 449 607 l 449 558 l 449 511 l 481 511 l 511 511 l 511 524 l 511 536 l 493 536 l 476 536 l 476 542 l 476 546 l 492 546 l 507 546 l 507 558 l 507 571 l 492 571 l 476 571 l 476 576 l 476 582 l 493 582 l 511 582 l 511 594 m 922 572 l 922 572 l 922 607 l 910 607 l 896 607 l 896 558 l 896 511 l 924 511 l 951 511 l 951 524 l 951 536 l 936 536 l 922 536 l 922 572 m 1001 594 l 1001 594 l 994 607 l 979 607 l 963 607 l 965 604 q 971 594 967 601 q 982 576 975 586 l 996 551 l 996 531 l 996 511 l 1008 511 l 1022 511 l 1022 531 l 1022 551 l 1036 576 q 1048 595 1043 588 q 1053 604 1053 603 l 1054 607 l 1039 607 l 1024 607 l 1017 594 q 1012 585 1014 589 q 1008 582 1010 582 q 1006 585 1008 582 q 1001 594 1004 589 m 674 749 l 674 749 q 699 743 689 754 q 703 717 708 732 q 681 704 694 703 q 661 721 667 706 q 663 737 660 729 q 674 749 667 744 m 206 742 l 206 742 l 206 749 l 213 749 q 219 748 218 749 q 221 743 221 747 q 219 738 221 739 q 213 735 217 736 l 206 735 l 206 742 m 426 742 l 426 742 l 426 749 l 435 749 q 443 748 442 749 q 444 742 444 747 q 433 735 444 735 l 426 735 l 426 742 m 938 729 l 938 729 q 939 736 938 733 q 940 738 940 739 q 942 732 940 738 q 943 726 943 729 l 947 714 l 940 714 l 933 714 l 933 718 q 934 721 933 718 q 936 728 935 724 q 938 729 936 729 m 667 581 l 667 581 q 685 580 676 585 q 697 565 694 575 q 693 544 700 553 q 675 536 686 536 q 657 547 664 536 q 655 567 651 557 q 667 581 658 576 m 194 169 l 194 169 q 212 171 203 172 q 226 165 221 169 q 231 161 229 164 q 235 156 233 158 q 236 151 236 153 q 235 151 236 151 q 232 150 235 150 q 229 151 231 150 q 226 154 228 151 q 209 163 221 163 q 190 156 197 164 q 183 135 182 149 q 193 115 185 121 q 214 113 201 110 q 225 120 221 115 q 229 129 229 125 l 229 132 l 219 132 l 210 132 l 210 136 l 210 140 l 224 140 l 236 140 l 236 122 l 236 106 l 233 106 q 229 107 229 106 q 232 114 229 108 q 233 117 233 117 q 232 118 233 118 q 231 117 232 118 q 228 114 229 115 q 207 104 221 104 q 179 121 189 104 q 177 125 178 124 q 176 129 176 126 q 176 138 176 132 q 176 146 176 143 q 177 150 176 149 q 179 154 178 151 q 194 169 185 165 m 451 168 l 451 168 q 461 171 454 171 l 468 171 l 468 167 l 468 163 l 463 163 q 457 162 458 163 q 454 160 456 161 q 453 156 454 158 q 453 153 453 154 l 453 150 l 458 150 l 464 150 l 464 146 l 464 142 l 457 142 q 451 142 453 142 q 447 140 449 142 q 448 140 447 140 q 450 138 449 139 q 452 135 451 136 q 453 131 453 133 q 453 119 453 128 l 453 106 l 449 106 l 444 106 l 444 124 l 444 142 l 442 142 q 440 142 440 142 q 439 146 439 143 q 440 149 439 149 q 442 150 440 150 q 444 151 444 150 q 444 154 444 151 q 451 168 444 163 m 565 138 l 565 138 l 565 171 l 569 171 l 574 171 l 574 138 l 574 106 l 569 106 l 565 106 l 565 138 m 604 138 l 604 138 l 604 171 l 608 171 l 613 171 l 613 138 l 613 106 l 608 106 l 604 106 l 604 138 m 704 168 l 704 168 q 713 171 707 171 l 719 171 l 719 167 l 719 163 l 714 163 q 709 162 711 163 q 707 160 707 161 q 705 156 706 158 q 704 153 704 154 l 704 150 l 710 150 l 717 150 l 717 146 l 717 142 l 708 142 q 702 142 704 142 q 700 140 700 142 q 699 140 699 140 q 701 138 700 139 q 703 135 703 136 q 704 131 704 133 q 704 119 704 128 l 704 106 l 700 106 l 696 106 l 696 124 l 696 142 l 694 142 q 692 142 692 142 q 692 146 692 143 q 692 149 692 149 q 694 150 692 150 q 696 151 696 150 q 696 154 696 151 q 704 168 696 163 m 342 156 l 342 156 l 342 161 l 346 161 l 350 161 l 350 156 l 350 150 l 356 150 l 360 150 l 360 146 l 360 142 l 353 142 q 347 138 340 142 q 349 136 349 138 q 349 133 349 135 q 350 125 350 131 l 350 114 l 356 113 l 361 113 l 361 108 l 361 106 l 354 106 q 349 106 350 106 q 344 108 347 106 l 342 111 l 342 126 l 342 142 l 339 142 q 335 142 336 142 q 335 146 335 143 q 335 149 335 149 q 339 150 336 150 q 341 150 340 150 q 342 151 342 150 q 342 156 342 153 m 883 156 l 883 156 l 883 161 l 888 161 l 890 161 l 890 156 l 890 150 l 896 150 l 901 150 l 901 146 l 901 142 l 894 142 q 888 142 889 142 q 886 140 886 142 q 887 140 886 140 q 889 138 888 139 q 890 137 889 138 q 890 134 890 136 q 890 128 890 132 q 892 115 890 118 q 897 113 893 113 q 901 113 900 113 q 903 112 903 113 q 903 108 903 111 l 903 106 l 897 106 q 891 106 893 106 q 888 108 889 106 l 883 111 l 883 126 l 883 142 l 881 142 q 878 142 879 142 q 878 146 878 143 q 878 149 878 149 q 881 150 879 150 q 883 150 882 150 q 883 151 883 150 q 883 156 883 153 m 1050 156 l 1050 156 l 1050 161 l 1054 161 l 1058 161 l 1058 156 l 1058 150 l 1063 150 l 1068 150 l 1068 146 l 1068 142 l 1061 142 q 1055 142 1057 142 q 1053 140 1053 142 q 1053 140 1053 140 q 1056 138 1054 139 q 1057 137 1057 138 q 1058 134 1057 136 q 1058 128 1058 132 q 1059 115 1058 118 q 1065 113 1060 113 q 1068 113 1067 113 q 1069 112 1069 113 q 1069 108 1069 111 l 1069 106 l 1064 106 q 1058 106 1060 106 q 1054 108 1056 106 l 1050 111 l 1050 126 l 1050 142 l 1047 142 q 1045 142 1046 142 q 1044 146 1044 143 q 1045 149 1044 149 q 1047 150 1046 150 q 1049 150 1049 150 q 1050 151 1050 150 q 1050 156 1050 153 m 282 149 l 282 149 q 301 147 293 153 q 311 129 310 140 l 311 125 l 293 125 q 280 124 283 125 q 276 122 276 124 q 278 118 275 121 q 287 112 281 113 q 299 115 293 111 q 303 119 301 118 q 308 119 306 119 q 310 118 310 119 q 307 114 310 117 q 301 108 304 111 q 297 106 299 106 q 286 105 292 104 q 276 107 281 106 q 268 129 267 115 q 282 149 269 143 m 297 140 l 297 140 q 287 142 292 143 q 278 136 282 142 q 277 133 278 135 q 276 132 276 132 q 280 131 276 132 q 288 131 283 131 q 297 131 293 131 q 301 132 301 132 q 302 134 303 132 q 300 138 301 136 q 297 140 299 139 m 754 149 l 754 149 q 763 150 758 150 q 771 149 767 150 q 783 126 783 143 q 780 113 783 119 q 769 106 776 107 q 758 104 764 103 q 747 110 751 106 q 741 121 743 114 q 740 135 739 128 q 746 143 742 139 q 754 149 750 147 m 769 140 l 769 140 q 751 138 758 146 q 750 118 744 131 q 759 112 753 113 q 771 114 765 111 q 775 128 775 119 q 769 140 775 136 m 828 149 l 828 149 q 840 149 835 151 q 849 142 846 147 q 850 136 850 140 q 850 122 850 132 l 850 106 l 847 106 l 843 106 l 843 121 q 843 132 843 128 q 842 138 843 136 q 840 140 842 139 q 835 142 839 142 q 828 140 832 143 q 823 135 824 139 q 821 119 822 131 l 821 106 l 817 106 l 814 106 l 814 128 l 814 150 l 818 150 q 821 149 821 150 q 819 144 821 147 q 817 142 818 143 q 817 139 817 140 l 817 136 l 818 139 q 823 145 821 143 q 828 149 825 147 m 992 149 l 992 149 q 997 150 994 150 q 1001 150 999 150 q 1015 144 1011 150 q 1018 126 1018 139 q 1018 119 1018 121 q 1018 115 1018 117 q 1019 114 1018 114 q 1022 110 1021 113 q 1022 107 1022 108 q 1019 106 1021 106 q 1013 113 1015 106 l 1010 117 l 1010 114 q 1006 106 1008 108 q 996 104 1003 104 q 985 108 989 104 q 981 118 981 113 q 989 128 982 124 q 994 130 990 129 q 1001 132 997 131 q 1007 133 1004 132 q 1010 133 1010 133 q 1010 135 1010 133 q 1008 138 1010 136 q 1003 142 1007 140 q 996 142 1000 143 q 990 138 992 142 q 988 136 989 136 q 985 136 988 136 q 982 137 982 136 q 983 142 982 138 q 987 146 985 144 q 992 149 989 147 m 1010 124 l 1010 124 q 1008 126 1010 126 q 1003 125 1007 126 q 1001 125 1003 125 q 994 122 997 124 q 991 120 992 121 q 990 119 990 119 q 989 117 989 118 q 997 111 989 111 q 1006 115 1001 111 q 1010 124 1010 119 m 493 132 l 493 132 l 493 150 l 497 150 l 501 150 l 501 133 q 501 122 501 125 q 502 117 501 118 q 503 114 503 115 q 513 113 507 111 q 521 118 518 114 q 522 124 522 121 q 522 136 522 128 l 524 150 l 526 150 l 531 150 l 531 132 q 531 123 531 126 q 531 117 531 119 q 531 115 531 115 q 533 114 532 114 q 535 110 535 113 q 535 107 535 108 q 533 106 535 106 q 528 108 531 106 q 524 114 525 110 q 522 115 522 115 q 521 111 522 114 q 517 106 519 107 q 510 104 515 104 q 494 111 500 104 q 494 118 494 114 q 493 132 493 122 m 196 49 l 196 49 q 199 49 197 49 q 204 50 201 50 l 210 49 l 210 44 l 210 40 l 204 40 q 198 40 200 40 q 194 38 196 39 q 192 33 193 35 q 192 29 192 32 l 192 25 l 197 25 l 204 25 l 204 19 l 204 15 l 194 15 q 188 15 190 15 q 185 14 185 15 q 185 13 185 14 q 188 11 186 13 l 192 8 l 192 -10 l 192 -28 l 186 -28 l 182 -28 l 182 -7 l 182 15 l 178 15 q 176 15 176 15 q 175 17 175 15 q 175 19 175 18 q 176 24 175 22 q 178 25 176 25 q 180 25 179 25 q 181 26 181 25 q 182 31 182 28 q 196 49 183 46 m 575 36 l 575 36 l 575 50 l 579 50 l 585 50 l 585 17 q 585 1 585 7 q 585 -10 585 -6 q 585 -15 585 -14 q 586 -17 586 -17 q 588 -18 588 -18 q 589 -18 589 -18 q 590 -19 590 -18 q 590 -24 590 -21 q 590 -26 590 -25 q 589 -28 589 -28 q 584 -26 588 -28 q 579 -22 581 -25 l 576 -19 l 572 -24 q 549 -28 561 -32 q 536 -12 539 -22 q 537 9 533 -1 q 550 24 540 19 q 553 26 551 25 q 557 26 556 26 q 567 24 561 26 q 575 17 572 21 q 578 18 583 8 q 576 22 576 19 q 576 27 576 24 q 575 36 575 31 m 568 13 l 568 13 q 560 16 565 15 q 551 14 556 17 q 544 -4 544 8 q 547 -10 546 -7 q 547 -14 547 -12 q 557 -19 551 -18 q 568 -17 563 -21 q 575 -2 575 -11 q 568 13 575 7 m 626 44 l 626 44 l 626 50 l 631 50 l 635 49 l 636 44 l 636 39 l 631 39 l 626 39 l 626 44 m 397 32 l 397 32 l 397 39 l 401 39 l 407 39 l 407 32 l 407 25 l 413 25 l 419 25 l 419 19 l 419 15 l 410 15 q 403 15 406 15 q 401 14 401 14 q 402 12 401 13 q 403 11 403 11 q 403 11 403 11 q 406 10 404 11 q 406 6 406 10 q 407 -4 407 3 q 408 -17 407 -15 q 410 -18 408 -18 q 415 -18 413 -18 l 419 -18 l 419 -24 l 419 -28 l 414 -28 q 404 -26 407 -28 q 400 -22 401 -25 q 398 -15 399 -19 q 397 -1 397 -10 l 397 15 l 394 15 q 392 15 393 15 q 391 17 392 15 q 390 19 390 18 q 391 24 390 22 q 392 25 392 25 q 394 25 393 25 l 397 25 l 397 32 m 1051 32 l 1051 32 l 1051 39 l 1056 39 l 1061 39 l 1061 32 l 1061 25 l 1067 25 l 1072 25 l 1072 19 l 1072 15 l 1064 15 q 1056 15 1057 15 q 1058 11 1054 14 q 1060 8 1060 10 q 1060 4 1060 7 q 1061 -4 1061 1 l 1061 -18 l 1068 -18 l 1074 -18 l 1074 -24 l 1074 -29 l 1067 -28 q 1059 -27 1061 -28 q 1056 -24 1057 -26 l 1051 -21 l 1051 -3 l 1051 15 l 1047 15 q 1045 15 1046 15 q 1044 17 1044 15 q 1044 19 1044 18 q 1044 24 1044 22 q 1045 25 1044 25 q 1047 25 1046 25 l 1051 25 l 1051 32 m 249 25 l 249 25 q 260 25 254 26 q 271 19 267 24 l 274 17 l 274 21 q 274 24 274 24 q 278 25 275 25 l 282 25 l 282 -7 q 282 -26 282 -19 q 282 -35 282 -32 q 281 -40 282 -39 q 279 -43 281 -42 q 277 -46 279 -44 q 274 -49 275 -47 q 270 -51 272 -50 q 265 -51 268 -51 q 254 -51 261 -51 l 239 -51 l 239 -47 l 239 -43 l 251 -43 q 261 -42 257 -43 q 267 -42 265 -42 q 274 -29 274 -37 q 274 -26 274 -28 q 276 -22 275 -24 q 274 -19 281 -12 q 261 -28 268 -25 q 247 -28 254 -31 q 240 -22 243 -26 q 235 -12 236 -17 q 233 -2 233 -8 q 235 8 233 4 q 240 18 236 14 q 249 25 243 22 m 265 14 l 265 14 q 259 16 264 15 q 251 15 254 17 q 243 3 244 13 q 246 -14 242 -6 q 258 -20 250 -21 q 271 -11 265 -19 q 272 1 274 -6 q 265 14 271 8 m 331 25 l 331 25 q 336 25 333 25 q 342 25 339 25 q 358 15 354 25 q 360 10 361 11 q 356 8 360 8 q 350 10 350 8 q 347 15 350 13 q 340 17 343 17 q 331 13 333 17 q 332 7 328 8 q 337 5 333 6 q 344 3 340 4 q 358 -3 354 0 q 361 -12 361 -7 q 361 -17 361 -15 q 358 -22 361 -19 q 338 -29 350 -31 q 319 -18 325 -28 q 318 -11 318 -12 q 322 -10 318 -10 q 327 -10 326 -10 q 328 -12 328 -11 q 328 -14 328 -12 q 332 -17 329 -15 q 334 -19 333 -18 q 337 -19 335 -19 q 342 -19 339 -19 q 348 -19 346 -19 q 350 -17 350 -18 q 352 -15 351 -15 q 353 -12 353 -14 q 338 -6 353 -10 q 330 -3 333 -4 q 325 0 326 -1 q 321 5 322 1 q 319 13 319 8 q 324 20 321 17 q 331 25 328 24 m 689 25 l 689 25 q 705 24 697 26 q 718 14 713 21 q 720 7 719 10 q 721 0 721 4 q 713 -24 722 -15 q 689 -28 701 -32 q 672 -10 676 -24 q 671 1 671 -4 q 674 11 671 7 q 681 19 676 15 q 689 25 685 24 m 703 15 l 703 15 q 692 15 697 17 q 683 10 688 14 q 681 1 681 6 q 681 -8 681 -4 q 694 -19 685 -18 q 710 -12 704 -21 q 712 3 714 -6 q 703 15 710 11 m 768 24 l 768 24 q 786 24 778 28 q 793 19 790 22 q 796 14 796 15 q 797 12 796 13 q 797 10 797 11 q 797 9 797 10 q 793 8 796 8 q 789 9 790 8 q 788 11 788 10 q 781 15 786 14 q 770 15 775 17 q 765 10 765 14 q 767 8 765 8 q 772 6 768 7 q 783 1 775 4 q 793 -2 790 0 q 797 -8 796 -4 q 794 -24 800 -18 q 776 -29 788 -29 q 762 -24 768 -29 q 756 -12 756 -19 q 756 -10 756 -11 q 760 -10 757 -10 q 764 -10 763 -10 q 765 -12 765 -11 q 778 -19 767 -19 q 789 -14 786 -19 q 787 -10 789 -11 q 779 -7 785 -8 q 765 -2 769 -4 q 758 3 761 0 q 756 6 757 4 q 757 11 756 8 q 768 24 757 21 m 901 22 l 901 22 q 906 25 904 24 q 910 26 908 26 q 921 22 915 26 q 928 13 926 18 q 928 5 928 11 q 929 -10 929 -1 l 929 -28 l 924 -28 l 919 -28 l 919 -12 q 919 6 919 0 q 915 14 918 13 q 906 15 911 17 q 897 8 900 14 q 895 5 896 7 q 894 -1 894 3 q 894 -11 894 -4 l 893 -28 l 889 -28 l 885 -28 l 885 -1 l 885 25 l 889 25 q 893 24 892 25 q 894 22 894 24 q 893 21 894 22 q 892 18 892 19 q 889 13 889 15 q 889 10 889 10 q 892 15 889 11 q 901 22 896 19 m 983 25 l 983 25 q 996 25 989 26 q 1007 18 1003 24 q 1013 11 1011 15 q 1015 1 1014 7 l 1015 -6 l 994 -6 q 983 -6 988 -6 q 977 -6 979 -6 q 974 -6 975 -6 q 974 -7 974 -7 q 976 -12 974 -10 q 982 -18 979 -15 q 992 -19 986 -21 q 1003 -14 999 -18 q 1004 -12 1003 -12 q 1008 -11 1006 -11 q 1013 -12 1013 -11 q 1011 -18 1014 -14 q 997 -28 1006 -25 q 981 -28 989 -31 q 964 -1 964 -21 q 983 25 965 19 m 997 14 l 997 14 q 990 16 994 15 q 983 15 986 17 q 978 11 981 14 q 975 6 975 8 l 974 3 l 989 3 q 999 3 996 3 q 1003 3 1003 3 q 1004 6 1004 4 q 1002 10 1004 7 q 997 14 1000 13 m 454 6 l 454 6 l 454 25 l 458 25 l 463 25 l 463 6 q 463 -6 463 -1 q 463 -12 463 -10 q 464 -15 464 -14 q 465 -17 464 -15 q 476 -19 469 -21 q 485 -12 482 -18 q 487 -9 486 -11 q 488 -3 488 -7 q 488 8 488 1 l 489 25 l 493 25 l 497 25 l 497 6 l 497 -15 l 500 -17 q 502 -19 501 -18 q 503 -24 503 -21 q 501 -28 503 -28 q 495 -26 499 -28 q 490 -19 492 -24 q 488 -17 489 -17 q 486 -24 486 -18 q 481 -28 485 -26 q 471 -29 476 -29 q 461 -26 465 -29 q 458 -24 460 -25 q 456 -19 457 -22 q 455 -15 456 -18 q 454 -8 454 -12 q 454 6 454 -4 m 626 -1 l 626 -1 l 626 25 l 631 25 l 635 24 l 636 -1 l 636 -28 l 631 -28 l 626 -28 l 626 -1 m 836 -17 l 836 -17 q 838 -15 836 -15 q 842 -15 840 -15 l 847 -15 l 847 -22 l 847 -28 l 842 -28 l 835 -28 l 835 -22 q 835 -18 835 -19 q 836 -17 836 -17 z "},"3":{"ha":1250,"x_min":83,"x_max":1167,"o":"m 328 1032 l 328 1032 q 420 1033 335 1032 q 631 1033 506 1033 l 926 1033 l 942 1031 q 1063 978 1008 1018 q 1085 956 1071 969 q 1107 932 1099 943 q 1160 826 1146 885 q 1161 822 1161 824 q 1164 807 1163 814 q 1166 787 1165 800 q 1167 748 1167 774 q 1167 676 1167 722 q 1167 651 1167 665 q 1167 563 1167 596 q 1167 514 1167 531 q 1165 489 1167 497 q 1163 472 1164 481 q 1085 332 1146 390 q 940 258 1026 274 l 924 256 l 632 256 q 486 254 543 254 q 397 255 429 254 q 347 256 364 256 q 323 256 331 256 q 307 258 315 257 q 307 260 307 258 q 147 351 211 276 q 86 482 100 407 l 83 499 l 83 643 l 83 788 l 86 803 q 163 954 100 892 q 328 1032 231 1021 m 699 774 l 699 774 q 664 772 681 779 q 638 747 647 765 q 635 742 636 744 q 635 736 635 739 q 635 726 635 733 q 635 717 635 721 q 635 712 635 714 q 638 707 636 710 q 660 684 646 692 q 690 679 674 676 q 725 703 714 683 q 729 744 736 722 q 717 762 725 754 q 699 774 708 769 m 854 728 l 854 728 l 854 776 l 842 776 l 829 776 l 829 754 l 828 733 l 815 754 l 801 775 l 789 775 l 775 775 l 775 726 l 775 679 l 789 679 l 803 679 l 803 700 l 803 722 l 817 701 l 831 679 l 843 679 l 854 679 l 854 728 m 228 774 l 228 774 q 222 774 225 774 q 215 775 219 775 q 200 775 210 775 l 179 775 l 179 726 l 179 679 l 192 679 l 206 679 l 206 694 l 206 710 l 215 711 q 224 712 221 711 q 231 714 228 713 q 249 744 250 725 q 228 774 246 765 m 353 763 l 353 763 l 353 775 l 322 775 l 290 775 l 290 726 l 290 679 l 322 679 l 353 679 l 353 692 l 353 704 l 335 704 l 318 704 l 318 708 l 318 714 l 333 714 l 349 714 l 349 726 l 349 739 l 333 739 l 318 739 l 318 744 l 318 749 l 335 749 l 353 749 l 353 763 m 454 771 l 454 771 l 449 775 l 424 775 l 400 775 l 400 728 l 400 679 l 413 679 l 426 679 l 426 694 q 426 706 426 703 q 428 710 426 710 q 432 706 429 710 q 439 694 435 701 l 449 679 l 464 679 q 474 679 469 679 q 479 679 479 679 q 476 685 479 679 q 468 697 472 690 l 457 714 l 461 718 q 465 723 463 721 q 468 728 467 725 q 471 733 471 731 q 471 742 471 736 q 471 751 471 747 q 469 756 471 754 q 454 771 464 765 m 567 774 l 567 774 q 552 775 561 775 q 538 772 543 775 q 515 749 517 765 q 516 738 515 742 q 521 729 517 733 q 549 717 528 721 q 560 714 557 715 q 565 710 564 713 q 565 708 565 708 q 564 706 565 707 q 553 703 560 703 q 543 708 546 704 l 540 711 l 533 710 q 532 710 533 710 q 526 708 529 708 q 521 707 522 707 q 515 704 515 706 q 517 697 514 703 q 541 679 524 683 q 576 683 558 675 q 592 711 594 692 q 558 739 592 733 q 544 749 538 743 q 553 751 547 751 q 561 747 558 751 l 564 744 l 578 747 q 585 749 582 749 q 588 749 588 749 q 590 751 589 750 q 589 753 590 751 q 581 765 588 760 q 567 774 575 771 m 957 768 l 957 768 l 954 775 l 939 775 l 925 775 l 910 728 q 899 694 904 708 q 894 679 894 681 q 899 679 894 679 q 908 679 903 679 l 922 679 l 924 685 l 925 690 l 940 689 l 954 689 l 956 683 l 957 679 l 971 679 q 982 679 979 679 q 985 681 985 679 q 982 688 985 681 q 971 722 978 700 q 963 749 967 736 q 957 767 958 761 q 957 768 957 768 m 1050 740 l 1050 740 l 1050 775 l 1038 775 l 1024 775 l 1024 726 l 1024 679 l 1051 679 l 1079 679 l 1079 692 l 1079 704 l 1065 704 l 1050 704 l 1050 740 m 685 607 l 685 607 q 643 596 661 611 q 627 552 624 576 q 654 515 631 528 q 660 512 658 513 q 666 511 663 511 q 676 511 669 511 q 685 511 682 511 q 691 512 689 511 q 697 515 693 513 q 711 525 704 518 q 721 538 718 532 q 725 568 728 553 q 710 594 721 583 q 685 607 699 604 m 849 560 l 849 560 l 849 608 l 835 608 q 822 607 821 608 q 821 600 821 606 q 821 586 821 594 l 821 567 l 808 586 l 794 607 l 782 607 l 769 607 l 769 558 l 769 511 l 783 511 l 796 511 l 796 532 l 797 554 l 811 532 l 824 511 l 836 511 l 849 511 l 849 560 m 231 578 l 231 578 l 231 607 l 217 607 l 204 607 l 204 572 l 204 538 l 208 532 q 217 520 211 525 q 229 513 222 515 q 243 511 235 511 q 258 513 251 511 q 272 522 265 515 q 279 535 278 528 q 281 541 281 538 q 282 551 282 544 q 282 574 282 558 l 282 607 l 269 607 l 256 607 l 256 578 q 256 553 256 561 q 254 543 256 546 q 250 538 253 540 q 242 536 246 536 q 235 539 239 536 q 232 544 233 540 q 231 554 231 547 q 231 578 231 561 m 381 606 l 381 606 q 366 607 375 607 q 350 606 357 607 q 340 600 344 604 q 332 592 335 596 q 328 588 329 590 q 328 581 328 585 q 329 569 328 572 q 335 561 331 565 q 345 554 339 557 q 363 549 351 551 q 378 542 378 546 q 373 536 378 538 q 363 535 368 535 q 356 540 358 536 l 353 543 l 340 540 q 331 538 335 539 q 326 538 328 538 q 327 534 326 536 q 330 528 328 532 q 333 522 332 525 q 363 511 343 511 q 400 525 389 510 q 403 531 403 528 q 404 536 404 533 q 375 571 407 564 q 358 576 361 574 q 357 582 354 578 q 360 583 358 583 q 365 583 363 583 q 371 583 369 583 q 374 579 372 582 l 376 576 l 389 579 q 398 581 394 581 q 401 582 401 582 q 402 585 403 583 q 400 589 401 586 q 381 606 393 601 m 511 594 l 511 594 l 511 607 l 481 607 l 449 607 l 449 558 l 449 511 l 481 511 l 511 511 l 511 524 l 511 536 l 493 536 l 476 536 l 476 542 l 476 546 l 492 546 l 507 546 l 507 558 l 507 571 l 492 571 l 476 571 l 476 576 l 476 582 l 493 582 l 511 582 l 511 594 m 922 572 l 922 572 l 922 607 l 910 607 l 896 607 l 896 558 l 896 511 l 924 511 l 951 511 l 951 524 l 951 536 l 936 536 l 922 536 l 922 572 m 1001 594 l 1001 594 l 994 607 l 979 607 l 963 607 l 965 604 q 971 594 967 601 q 982 576 975 586 l 996 551 l 996 531 l 996 511 l 1008 511 l 1022 511 l 1022 531 l 1022 551 l 1036 576 q 1048 595 1043 588 q 1053 604 1053 603 l 1054 607 l 1039 607 l 1024 607 l 1017 594 q 1012 585 1014 589 q 1008 582 1010 582 q 1006 585 1008 582 q 1001 594 1004 589 m 674 749 l 674 749 q 699 743 689 754 q 703 717 708 732 q 681 704 694 703 q 661 721 667 706 q 663 737 660 729 q 674 749 667 744 m 206 742 l 206 742 l 206 749 l 213 749 q 219 748 218 749 q 221 743 221 747 q 219 738 221 739 q 213 735 217 736 l 206 735 l 206 742 m 426 742 l 426 742 l 426 749 l 435 749 q 443 748 442 749 q 444 742 444 747 q 433 735 444 735 l 426 735 l 426 742 m 938 729 l 938 729 q 939 736 938 733 q 940 738 940 739 q 942 732 940 738 q 943 726 943 729 l 947 714 l 940 714 l 933 714 l 933 718 q 934 721 933 718 q 936 728 935 724 q 938 729 936 729 m 667 581 l 667 581 q 685 580 676 585 q 697 565 694 575 q 693 544 700 553 q 675 536 686 536 q 657 547 664 536 q 655 567 651 557 q 667 581 658 576 m 194 169 l 194 169 q 212 171 203 172 q 226 165 221 169 q 231 161 229 164 q 235 156 233 158 q 236 151 236 153 q 235 151 236 151 q 232 150 235 150 q 229 151 231 150 q 226 154 228 151 q 209 163 221 163 q 190 156 197 164 q 183 135 182 149 q 193 115 185 121 q 214 113 201 110 q 225 120 221 115 q 229 129 229 125 l 229 132 l 219 132 l 210 132 l 210 136 l 210 140 l 224 140 l 236 140 l 236 122 l 236 106 l 233 106 q 229 107 229 106 q 232 114 229 108 q 233 117 233 117 q 232 118 233 118 q 231 117 232 118 q 228 114 229 115 q 207 104 221 104 q 179 121 189 104 q 177 125 178 124 q 176 129 176 126 q 176 138 176 132 q 176 146 176 143 q 177 150 176 149 q 179 154 178 151 q 194 169 185 165 m 451 168 l 451 168 q 461 171 454 171 l 468 171 l 468 167 l 468 163 l 463 163 q 457 162 458 163 q 454 160 456 161 q 453 156 454 158 q 453 153 453 154 l 453 150 l 458 150 l 464 150 l 464 146 l 464 142 l 457 142 q 451 142 453 142 q 447 140 449 142 q 448 140 447 140 q 450 138 449 139 q 452 135 451 136 q 453 131 453 133 q 453 119 453 128 l 453 106 l 449 106 l 444 106 l 444 124 l 444 142 l 442 142 q 440 142 440 142 q 439 146 439 143 q 440 149 439 149 q 442 150 440 150 q 444 151 444 150 q 444 154 444 151 q 451 168 444 163 m 565 138 l 565 138 l 565 171 l 569 171 l 574 171 l 574 138 l 574 106 l 569 106 l 565 106 l 565 138 m 604 138 l 604 138 l 604 171 l 608 171 l 613 171 l 613 138 l 613 106 l 608 106 l 604 106 l 604 138 m 704 168 l 704 168 q 713 171 707 171 l 719 171 l 719 167 l 719 163 l 714 163 q 709 162 711 163 q 707 160 707 161 q 705 156 706 158 q 704 153 704 154 l 704 150 l 710 150 l 717 150 l 717 146 l 717 142 l 708 142 q 702 142 704 142 q 700 140 700 142 q 699 140 699 140 q 701 138 700 139 q 703 135 703 136 q 704 131 704 133 q 704 119 704 128 l 704 106 l 700 106 l 696 106 l 696 124 l 696 142 l 694 142 q 692 142 692 142 q 692 146 692 143 q 692 149 692 149 q 694 150 692 150 q 696 151 696 150 q 696 154 696 151 q 704 168 696 163 m 342 156 l 342 156 l 342 161 l 346 161 l 350 161 l 350 156 l 350 150 l 356 150 l 360 150 l 360 146 l 360 142 l 353 142 q 347 138 340 142 q 349 136 349 138 q 349 133 349 135 q 350 125 350 131 l 350 114 l 356 113 l 361 113 l 361 108 l 361 106 l 354 106 q 349 106 350 106 q 344 108 347 106 l 342 111 l 342 126 l 342 142 l 339 142 q 335 142 336 142 q 335 146 335 143 q 335 149 335 149 q 339 150 336 150 q 341 150 340 150 q 342 151 342 150 q 342 156 342 153 m 883 156 l 883 156 l 883 161 l 888 161 l 890 161 l 890 156 l 890 150 l 896 150 l 901 150 l 901 146 l 901 142 l 894 142 q 888 142 889 142 q 886 140 886 142 q 887 140 886 140 q 889 138 888 139 q 890 137 889 138 q 890 134 890 136 q 890 128 890 132 q 892 115 890 118 q 897 113 893 113 q 901 113 900 113 q 903 112 903 113 q 903 108 903 111 l 903 106 l 897 106 q 891 106 893 106 q 888 108 889 106 l 883 111 l 883 126 l 883 142 l 881 142 q 878 142 879 142 q 878 146 878 143 q 878 149 878 149 q 881 150 879 150 q 883 150 882 150 q 883 151 883 150 q 883 156 883 153 m 1050 156 l 1050 156 l 1050 161 l 1054 161 l 1058 161 l 1058 156 l 1058 150 l 1063 150 l 1068 150 l 1068 146 l 1068 142 l 1061 142 q 1055 142 1057 142 q 1053 140 1053 142 q 1053 140 1053 140 q 1056 138 1054 139 q 1057 137 1057 138 q 1058 134 1057 136 q 1058 128 1058 132 q 1059 115 1058 118 q 1065 113 1060 113 q 1068 113 1067 113 q 1069 112 1069 113 q 1069 108 1069 111 l 1069 106 l 1064 106 q 1058 106 1060 106 q 1054 108 1056 106 l 1050 111 l 1050 126 l 1050 142 l 1047 142 q 1045 142 1046 142 q 1044 146 1044 143 q 1045 149 1044 149 q 1047 150 1046 150 q 1049 150 1049 150 q 1050 151 1050 150 q 1050 156 1050 153 m 282 149 l 282 149 q 301 147 293 153 q 311 129 310 140 l 311 125 l 293 125 q 280 124 283 125 q 276 122 276 124 q 278 118 275 121 q 287 112 281 113 q 299 115 293 111 q 303 119 301 118 q 308 119 306 119 q 310 118 310 119 q 307 114 310 117 q 301 108 304 111 q 297 106 299 106 q 286 105 292 104 q 276 107 281 106 q 268 129 267 115 q 282 149 269 143 m 297 140 l 297 140 q 287 142 292 143 q 278 136 282 142 q 277 133 278 135 q 276 132 276 132 q 280 131 276 132 q 288 131 283 131 q 297 131 293 131 q 301 132 301 132 q 302 134 303 132 q 300 138 301 136 q 297 140 299 139 m 754 149 l 754 149 q 763 150 758 150 q 771 149 767 150 q 783 126 783 143 q 780 113 783 119 q 769 106 776 107 q 758 104 764 103 q 747 110 751 106 q 741 121 743 114 q 740 135 739 128 q 746 143 742 139 q 754 149 750 147 m 769 140 l 769 140 q 751 138 758 146 q 750 118 744 131 q 759 112 753 113 q 771 114 765 111 q 775 128 775 119 q 769 140 775 136 m 828 149 l 828 149 q 840 149 835 151 q 849 142 846 147 q 850 136 850 140 q 850 122 850 132 l 850 106 l 847 106 l 843 106 l 843 121 q 843 132 843 128 q 842 138 843 136 q 840 140 842 139 q 835 142 839 142 q 828 140 832 143 q 823 135 824 139 q 821 119 822 131 l 821 106 l 817 106 l 814 106 l 814 128 l 814 150 l 818 150 q 821 149 821 150 q 819 144 821 147 q 817 142 818 143 q 817 139 817 140 l 817 136 l 818 139 q 823 145 821 143 q 828 149 825 147 m 992 149 l 992 149 q 997 150 994 150 q 1001 150 999 150 q 1015 144 1011 150 q 1018 126 1018 139 q 1018 119 1018 121 q 1018 115 1018 117 q 1019 114 1018 114 q 1022 110 1021 113 q 1022 107 1022 108 q 1019 106 1021 106 q 1013 113 1015 106 l 1010 117 l 1010 114 q 1006 106 1008 108 q 996 104 1003 104 q 985 108 989 104 q 981 118 981 113 q 989 128 982 124 q 994 130 990 129 q 1001 132 997 131 q 1007 133 1004 132 q 1010 133 1010 133 q 1010 135 1010 133 q 1008 138 1010 136 q 1003 142 1007 140 q 996 142 1000 143 q 990 138 992 142 q 988 136 989 136 q 985 136 988 136 q 982 137 982 136 q 983 142 982 138 q 987 146 985 144 q 992 149 989 147 m 1010 124 l 1010 124 q 1008 126 1010 126 q 1003 125 1007 126 q 1001 125 1003 125 q 994 122 997 124 q 991 120 992 121 q 990 119 990 119 q 989 117 989 118 q 997 111 989 111 q 1006 115 1001 111 q 1010 124 1010 119 m 493 132 l 493 132 l 493 150 l 497 150 l 501 150 l 501 133 q 501 122 501 125 q 502 117 501 118 q 503 114 503 115 q 513 113 507 111 q 521 118 518 114 q 522 124 522 121 q 522 136 522 128 l 524 150 l 526 150 l 531 150 l 531 132 q 531 123 531 126 q 531 117 531 119 q 531 115 531 115 q 533 114 532 114 q 535 110 535 113 q 535 107 535 108 q 533 106 535 106 q 528 108 531 106 q 524 114 525 110 q 522 115 522 115 q 521 111 522 114 q 517 106 519 107 q 510 104 515 104 q 494 111 500 104 q 494 118 494 114 q 493 132 493 122 m 196 49 l 196 49 q 199 49 197 49 q 204 50 201 50 l 210 49 l 210 44 l 210 40 l 204 40 q 198 40 200 40 q 194 38 196 39 q 192 33 193 35 q 192 29 192 32 l 192 25 l 197 25 l 204 25 l 204 19 l 204 15 l 194 15 q 188 15 190 15 q 185 14 185 15 q 185 13 185 14 q 188 11 186 13 l 192 8 l 192 -10 l 192 -28 l 186 -28 l 182 -28 l 182 -7 l 182 15 l 178 15 q 176 15 176 15 q 175 17 175 15 q 175 19 175 18 q 176 24 175 22 q 178 25 176 25 q 180 25 179 25 q 181 26 181 25 q 182 31 182 28 q 196 49 183 46 m 575 36 l 575 36 l 575 50 l 579 50 l 585 50 l 585 17 q 585 1 585 7 q 585 -10 585 -6 q 585 -15 585 -14 q 586 -17 586 -17 q 588 -18 588 -18 q 589 -18 589 -18 q 590 -19 590 -18 q 590 -24 590 -21 q 590 -26 590 -25 q 589 -28 589 -28 q 584 -26 588 -28 q 579 -22 581 -25 l 576 -19 l 572 -24 q 549 -28 561 -32 q 536 -12 539 -22 q 537 9 533 -1 q 550 24 540 19 q 553 26 551 25 q 557 26 556 26 q 567 24 561 26 q 575 17 572 21 q 578 18 583 8 q 576 22 576 19 q 576 27 576 24 q 575 36 575 31 m 568 13 l 568 13 q 560 16 565 15 q 551 14 556 17 q 544 -4 544 8 q 547 -10 546 -7 q 547 -14 547 -12 q 557 -19 551 -18 q 568 -17 563 -21 q 575 -2 575 -11 q 568 13 575 7 m 626 44 l 626 44 l 626 50 l 631 50 l 635 49 l 636 44 l 636 39 l 631 39 l 626 39 l 626 44 m 397 32 l 397 32 l 397 39 l 401 39 l 407 39 l 407 32 l 407 25 l 413 25 l 419 25 l 419 19 l 419 15 l 410 15 q 403 15 406 15 q 401 14 401 14 q 402 12 401 13 q 403 11 403 11 q 403 11 403 11 q 406 10 404 11 q 406 6 406 10 q 407 -4 407 3 q 408 -17 407 -15 q 410 -18 408 -18 q 415 -18 413 -18 l 419 -18 l 419 -24 l 419 -28 l 414 -28 q 404 -26 407 -28 q 400 -22 401 -25 q 398 -15 399 -19 q 397 -1 397 -10 l 397 15 l 394 15 q 392 15 393 15 q 391 17 392 15 q 390 19 390 18 q 391 24 390 22 q 392 25 392 25 q 394 25 393 25 l 397 25 l 397 32 m 1051 32 l 1051 32 l 1051 39 l 1056 39 l 1061 39 l 1061 32 l 1061 25 l 1067 25 l 1072 25 l 1072 19 l 1072 15 l 1064 15 q 1056 15 1057 15 q 1058 11 1054 14 q 1060 8 1060 10 q 1060 4 1060 7 q 1061 -4 1061 1 l 1061 -18 l 1068 -18 l 1074 -18 l 1074 -24 l 1074 -29 l 1067 -28 q 1059 -27 1061 -28 q 1056 -24 1057 -26 l 1051 -21 l 1051 -3 l 1051 15 l 1047 15 q 1045 15 1046 15 q 1044 17 1044 15 q 1044 19 1044 18 q 1044 24 1044 22 q 1045 25 1044 25 q 1047 25 1046 25 l 1051 25 l 1051 32 m 249 25 l 249 25 q 260 25 254 26 q 271 19 267 24 l 274 17 l 274 21 q 274 24 274 24 q 278 25 275 25 l 282 25 l 282 -7 q 282 -26 282 -19 q 282 -35 282 -32 q 281 -40 282 -39 q 279 -43 281 -42 q 277 -46 279 -44 q 274 -49 275 -47 q 270 -51 272 -50 q 265 -51 268 -51 q 254 -51 261 -51 l 239 -51 l 239 -47 l 239 -43 l 251 -43 q 261 -42 257 -43 q 267 -42 265 -42 q 274 -29 274 -37 q 274 -26 274 -28 q 276 -22 275 -24 q 274 -19 281 -12 q 261 -28 268 -25 q 247 -28 254 -31 q 240 -22 243 -26 q 235 -12 236 -17 q 233 -2 233 -8 q 235 8 233 4 q 240 18 236 14 q 249 25 243 22 m 265 14 l 265 14 q 259 16 264 15 q 251 15 254 17 q 243 3 244 13 q 246 -14 242 -6 q 258 -20 250 -21 q 271 -11 265 -19 q 272 1 274 -6 q 265 14 271 8 m 331 25 l 331 25 q 336 25 333 25 q 342 25 339 25 q 358 15 354 25 q 360 10 361 11 q 356 8 360 8 q 350 10 350 8 q 347 15 350 13 q 340 17 343 17 q 331 13 333 17 q 332 7 328 8 q 337 5 333 6 q 344 3 340 4 q 358 -3 354 0 q 361 -12 361 -7 q 361 -17 361 -15 q 358 -22 361 -19 q 338 -29 350 -31 q 319 -18 325 -28 q 318 -11 318 -12 q 322 -10 318 -10 q 327 -10 326 -10 q 328 -12 328 -11 q 328 -14 328 -12 q 332 -17 329 -15 q 334 -19 333 -18 q 337 -19 335 -19 q 342 -19 339 -19 q 348 -19 346 -19 q 350 -17 350 -18 q 352 -15 351 -15 q 353 -12 353 -14 q 338 -6 353 -10 q 330 -3 333 -4 q 325 0 326 -1 q 321 5 322 1 q 319 13 319 8 q 324 20 321 17 q 331 25 328 24 m 689 25 l 689 25 q 705 24 697 26 q 718 14 713 21 q 720 7 719 10 q 721 0 721 4 q 713 -24 722 -15 q 689 -28 701 -32 q 672 -10 676 -24 q 671 1 671 -4 q 674 11 671 7 q 681 19 676 15 q 689 25 685 24 m 703 15 l 703 15 q 692 15 697 17 q 683 10 688 14 q 681 1 681 6 q 681 -8 681 -4 q 694 -19 685 -18 q 710 -12 704 -21 q 712 3 714 -6 q 703 15 710 11 m 768 24 l 768 24 q 786 24 778 28 q 793 19 790 22 q 796 14 796 15 q 797 12 796 13 q 797 10 797 11 q 797 9 797 10 q 793 8 796 8 q 789 9 790 8 q 788 11 788 10 q 781 15 786 14 q 770 15 775 17 q 765 10 765 14 q 767 8 765 8 q 772 6 768 7 q 783 1 775 4 q 793 -2 790 0 q 797 -8 796 -4 q 794 -24 800 -18 q 776 -29 788 -29 q 762 -24 768 -29 q 756 -12 756 -19 q 756 -10 756 -11 q 760 -10 757 -10 q 764 -10 763 -10 q 765 -12 765 -11 q 778 -19 767 -19 q 789 -14 786 -19 q 787 -10 789 -11 q 779 -7 785 -8 q 765 -2 769 -4 q 758 3 761 0 q 756 6 757 4 q 757 11 756 8 q 768 24 757 21 m 901 22 l 901 22 q 906 25 904 24 q 910 26 908 26 q 921 22 915 26 q 928 13 926 18 q 928 5 928 11 q 929 -10 929 -1 l 929 -28 l 924 -28 l 919 -28 l 919 -12 q 919 6 919 0 q 915 14 918 13 q 906 15 911 17 q 897 8 900 14 q 895 5 896 7 q 894 -1 894 3 q 894 -11 894 -4 l 893 -28 l 889 -28 l 885 -28 l 885 -1 l 885 25 l 889 25 q 893 24 892 25 q 894 22 894 24 q 893 21 894 22 q 892 18 892 19 q 889 13 889 15 q 889 10 889 10 q 892 15 889 11 q 901 22 896 19 m 983 25 l 983 25 q 996 25 989 26 q 1007 18 1003 24 q 1013 11 1011 15 q 1015 1 1014 7 l 1015 -6 l 994 -6 q 983 -6 988 -6 q 977 -6 979 -6 q 974 -6 975 -6 q 974 -7 974 -7 q 976 -12 974 -10 q 982 -18 979 -15 q 992 -19 986 -21 q 1003 -14 999 -18 q 1004 -12 1003 -12 q 1008 -11 1006 -11 q 1013 -12 1013 -11 q 1011 -18 1014 -14 q 997 -28 1006 -25 q 981 -28 989 -31 q 964 -1 964 -21 q 983 25 965 19 m 997 14 l 997 14 q 990 16 994 15 q 983 15 986 17 q 978 11 981 14 q 975 6 975 8 l 974 3 l 989 3 q 999 3 996 3 q 1003 3 1003 3 q 1004 6 1004 4 q 1002 10 1004 7 q 997 14 1000 13 m 454 6 l 454 6 l 454 25 l 458 25 l 463 25 l 463 6 q 463 -6 463 -1 q 463 -12 463 -10 q 464 -15 464 -14 q 465 -17 464 -15 q 476 -19 469 -21 q 485 -12 482 -18 q 487 -9 486 -11 q 488 -3 488 -7 q 488 8 488 1 l 489 25 l 493 25 l 497 25 l 497 6 l 497 -15 l 500 -17 q 502 -19 501 -18 q 503 -24 503 -21 q 501 -28 503 -28 q 495 -26 499 -28 q 490 -19 492 -24 q 488 -17 489 -17 q 486 -24 486 -18 q 481 -28 485 -26 q 471 -29 476 -29 q 461 -26 465 -29 q 458 -24 460 -25 q 456 -19 457 -22 q 455 -15 456 -18 q 454 -8 454 -12 q 454 6 454 -4 m 626 -1 l 626 -1 l 626 25 l 631 25 l 635 24 l 636 -1 l 636 -28 l 631 -28 l 626 -28 l 626 -1 m 836 -17 l 836 -17 q 838 -15 836 -15 q 842 -15 840 -15 l 847 -15 l 847 -22 l 847 -28 l 842 -28 l 835 -28 l 835 -22 q 835 -18 835 -19 q 836 -17 836 -17 z "},"4":{"ha":1250,"x_min":83,"x_max":1167,"o":"m 328 1032 l 328 1032 q 420 1033 335 1032 q 631 1033 506 1033 l 926 1033 l 942 1031 q 1063 978 1008 1018 q 1085 956 1071 969 q 1107 932 1099 943 q 1160 826 1146 885 q 1161 822 1161 824 q 1164 807 1163 814 q 1166 787 1165 800 q 1167 748 1167 774 q 1167 676 1167 722 q 1167 651 1167 665 q 1167 563 1167 596 q 1167 514 1167 531 q 1165 489 1167 497 q 1163 472 1164 481 q 1085 332 1146 390 q 940 258 1026 274 l 924 256 l 632 256 q 486 254 543 254 q 397 255 429 254 q 347 256 364 256 q 323 256 331 256 q 307 258 315 257 q 307 260 307 258 q 147 351 211 276 q 86 482 100 407 l 83 499 l 83 643 l 83 788 l 86 803 q 163 954 100 892 q 328 1032 231 1021 m 699 774 l 699 774 q 664 772 681 779 q 638 747 647 765 q 635 742 636 744 q 635 736 635 739 q 635 726 635 733 q 635 717 635 721 q 635 712 635 714 q 638 707 636 710 q 660 684 646 692 q 690 679 674 676 q 725 703 714 683 q 729 744 736 722 q 717 762 725 754 q 699 774 708 769 m 854 728 l 854 728 l 854 776 l 842 776 l 829 776 l 829 754 l 828 733 l 815 754 l 801 775 l 789 775 l 775 775 l 775 726 l 775 679 l 789 679 l 803 679 l 803 700 l 803 722 l 817 701 l 831 679 l 843 679 l 854 679 l 854 728 m 228 774 l 228 774 q 222 774 225 774 q 215 775 219 775 q 200 775 210 775 l 179 775 l 179 726 l 179 679 l 192 679 l 206 679 l 206 694 l 206 710 l 215 711 q 224 712 221 711 q 231 714 228 713 q 249 744 250 725 q 228 774 246 765 m 353 763 l 353 763 l 353 775 l 322 775 l 290 775 l 290 726 l 290 679 l 322 679 l 353 679 l 353 692 l 353 704 l 335 704 l 318 704 l 318 708 l 318 714 l 333 714 l 349 714 l 349 726 l 349 739 l 333 739 l 318 739 l 318 744 l 318 749 l 335 749 l 353 749 l 353 763 m 454 771 l 454 771 l 449 775 l 424 775 l 400 775 l 400 728 l 400 679 l 413 679 l 426 679 l 426 694 q 426 706 426 703 q 428 710 426 710 q 432 706 429 710 q 439 694 435 701 l 449 679 l 464 679 q 474 679 469 679 q 479 679 479 679 q 476 685 479 679 q 468 697 472 690 l 457 714 l 461 718 q 465 723 463 721 q 468 728 467 725 q 471 733 471 731 q 471 742 471 736 q 471 751 471 747 q 469 756 471 754 q 454 771 464 765 m 567 774 l 567 774 q 552 775 561 775 q 538 772 543 775 q 515 749 517 765 q 516 738 515 742 q 521 729 517 733 q 549 717 528 721 q 560 714 557 715 q 565 710 564 713 q 565 708 565 708 q 564 706 565 707 q 553 703 560 703 q 543 708 546 704 l 540 711 l 533 710 q 532 710 533 710 q 526 708 529 708 q 521 707 522 707 q 515 704 515 706 q 517 697 514 703 q 541 679 524 683 q 576 683 558 675 q 592 711 594 692 q 558 739 592 733 q 544 749 538 743 q 553 751 547 751 q 561 747 558 751 l 564 744 l 578 747 q 585 749 582 749 q 588 749 588 749 q 590 751 589 750 q 589 753 590 751 q 581 765 588 760 q 567 774 575 771 m 957 768 l 957 768 l 954 775 l 939 775 l 925 775 l 910 728 q 899 694 904 708 q 894 679 894 681 q 899 679 894 679 q 908 679 903 679 l 922 679 l 924 685 l 925 690 l 940 689 l 954 689 l 956 683 l 957 679 l 971 679 q 982 679 979 679 q 985 681 985 679 q 982 688 985 681 q 971 722 978 700 q 963 749 967 736 q 957 767 958 761 q 957 768 957 768 m 1050 740 l 1050 740 l 1050 775 l 1038 775 l 1024 775 l 1024 726 l 1024 679 l 1051 679 l 1079 679 l 1079 692 l 1079 704 l 1065 704 l 1050 704 l 1050 740 m 685 607 l 685 607 q 643 596 661 611 q 627 552 624 576 q 654 515 631 528 q 660 512 658 513 q 666 511 663 511 q 676 511 669 511 q 685 511 682 511 q 691 512 689 511 q 697 515 693 513 q 711 525 704 518 q 721 538 718 532 q 725 568 728 553 q 710 594 721 583 q 685 607 699 604 m 849 560 l 849 560 l 849 608 l 835 608 q 822 607 821 608 q 821 600 821 606 q 821 586 821 594 l 821 567 l 808 586 l 794 607 l 782 607 l 769 607 l 769 558 l 769 511 l 783 511 l 796 511 l 796 532 l 797 554 l 811 532 l 824 511 l 836 511 l 849 511 l 849 560 m 231 578 l 231 578 l 231 607 l 217 607 l 204 607 l 204 572 l 204 538 l 208 532 q 217 520 211 525 q 229 513 222 515 q 243 511 235 511 q 258 513 251 511 q 272 522 265 515 q 279 535 278 528 q 281 541 281 538 q 282 551 282 544 q 282 574 282 558 l 282 607 l 269 607 l 256 607 l 256 578 q 256 553 256 561 q 254 543 256 546 q 250 538 253 540 q 242 536 246 536 q 235 539 239 536 q 232 544 233 540 q 231 554 231 547 q 231 578 231 561 m 381 606 l 381 606 q 366 607 375 607 q 350 606 357 607 q 340 600 344 604 q 332 592 335 596 q 328 588 329 590 q 328 581 328 585 q 329 569 328 572 q 335 561 331 565 q 345 554 339 557 q 363 549 351 551 q 378 542 378 546 q 373 536 378 538 q 363 535 368 535 q 356 540 358 536 l 353 543 l 340 540 q 331 538 335 539 q 326 538 328 538 q 327 534 326 536 q 330 528 328 532 q 333 522 332 525 q 363 511 343 511 q 400 525 389 510 q 403 531 403 528 q 404 536 404 533 q 375 571 407 564 q 358 576 361 574 q 357 582 354 578 q 360 583 358 583 q 365 583 363 583 q 371 583 369 583 q 374 579 372 582 l 376 576 l 389 579 q 398 581 394 581 q 401 582 401 582 q 402 585 403 583 q 400 589 401 586 q 381 606 393 601 m 511 594 l 511 594 l 511 607 l 481 607 l 449 607 l 449 558 l 449 511 l 481 511 l 511 511 l 511 524 l 511 536 l 493 536 l 476 536 l 476 542 l 476 546 l 492 546 l 507 546 l 507 558 l 507 571 l 492 571 l 476 571 l 476 576 l 476 582 l 493 582 l 511 582 l 511 594 m 922 572 l 922 572 l 922 607 l 910 607 l 896 607 l 896 558 l 896 511 l 924 511 l 951 511 l 951 524 l 951 536 l 936 536 l 922 536 l 922 572 m 1001 594 l 1001 594 l 994 607 l 979 607 l 963 607 l 965 604 q 971 594 967 601 q 982 576 975 586 l 996 551 l 996 531 l 996 511 l 1008 511 l 1022 511 l 1022 531 l 1022 551 l 1036 576 q 1048 595 1043 588 q 1053 604 1053 603 l 1054 607 l 1039 607 l 1024 607 l 1017 594 q 1012 585 1014 589 q 1008 582 1010 582 q 1006 585 1008 582 q 1001 594 1004 589 m 674 749 l 674 749 q 699 743 689 754 q 703 717 708 732 q 681 704 694 703 q 661 721 667 706 q 663 737 660 729 q 674 749 667 744 m 206 742 l 206 742 l 206 749 l 213 749 q 219 748 218 749 q 221 743 221 747 q 219 738 221 739 q 213 735 217 736 l 206 735 l 206 742 m 426 742 l 426 742 l 426 749 l 435 749 q 443 748 442 749 q 444 742 444 747 q 433 735 444 735 l 426 735 l 426 742 m 938 729 l 938 729 q 939 736 938 733 q 940 738 940 739 q 942 732 940 738 q 943 726 943 729 l 947 714 l 940 714 l 933 714 l 933 718 q 934 721 933 718 q 936 728 935 724 q 938 729 936 729 m 667 581 l 667 581 q 685 580 676 585 q 697 565 694 575 q 693 544 700 553 q 675 536 686 536 q 657 547 664 536 q 655 567 651 557 q 667 581 658 576 m 194 169 l 194 169 q 212 171 203 172 q 226 165 221 169 q 231 161 229 164 q 235 156 233 158 q 236 151 236 153 q 235 151 236 151 q 232 150 235 150 q 229 151 231 150 q 226 154 228 151 q 209 163 221 163 q 190 156 197 164 q 183 135 182 149 q 193 115 185 121 q 214 113 201 110 q 225 120 221 115 q 229 129 229 125 l 229 132 l 219 132 l 210 132 l 210 136 l 210 140 l 224 140 l 236 140 l 236 122 l 236 106 l 233 106 q 229 107 229 106 q 232 114 229 108 q 233 117 233 117 q 232 118 233 118 q 231 117 232 118 q 228 114 229 115 q 207 104 221 104 q 179 121 189 104 q 177 125 178 124 q 176 129 176 126 q 176 138 176 132 q 176 146 176 143 q 177 150 176 149 q 179 154 178 151 q 194 169 185 165 m 451 168 l 451 168 q 461 171 454 171 l 468 171 l 468 167 l 468 163 l 463 163 q 457 162 458 163 q 454 160 456 161 q 453 156 454 158 q 453 153 453 154 l 453 150 l 458 150 l 464 150 l 464 146 l 464 142 l 457 142 q 451 142 453 142 q 447 140 449 142 q 448 140 447 140 q 450 138 449 139 q 452 135 451 136 q 453 131 453 133 q 453 119 453 128 l 453 106 l 449 106 l 444 106 l 444 124 l 444 142 l 442 142 q 440 142 440 142 q 439 146 439 143 q 440 149 439 149 q 442 150 440 150 q 444 151 444 150 q 444 154 444 151 q 451 168 444 163 m 565 138 l 565 138 l 565 171 l 569 171 l 574 171 l 574 138 l 574 106 l 569 106 l 565 106 l 565 138 m 604 138 l 604 138 l 604 171 l 608 171 l 613 171 l 613 138 l 613 106 l 608 106 l 604 106 l 604 138 m 704 168 l 704 168 q 713 171 707 171 l 719 171 l 719 167 l 719 163 l 714 163 q 709 162 711 163 q 707 160 707 161 q 705 156 706 158 q 704 153 704 154 l 704 150 l 710 150 l 717 150 l 717 146 l 717 142 l 708 142 q 702 142 704 142 q 700 140 700 142 q 699 140 699 140 q 701 138 700 139 q 703 135 703 136 q 704 131 704 133 q 704 119 704 128 l 704 106 l 700 106 l 696 106 l 696 124 l 696 142 l 694 142 q 692 142 692 142 q 692 146 692 143 q 692 149 692 149 q 694 150 692 150 q 696 151 696 150 q 696 154 696 151 q 704 168 696 163 m 342 156 l 342 156 l 342 161 l 346 161 l 350 161 l 350 156 l 350 150 l 356 150 l 360 150 l 360 146 l 360 142 l 353 142 q 347 138 340 142 q 349 136 349 138 q 349 133 349 135 q 350 125 350 131 l 350 114 l 356 113 l 361 113 l 361 108 l 361 106 l 354 106 q 349 106 350 106 q 344 108 347 106 l 342 111 l 342 126 l 342 142 l 339 142 q 335 142 336 142 q 335 146 335 143 q 335 149 335 149 q 339 150 336 150 q 341 150 340 150 q 342 151 342 150 q 342 156 342 153 m 883 156 l 883 156 l 883 161 l 888 161 l 890 161 l 890 156 l 890 150 l 896 150 l 901 150 l 901 146 l 901 142 l 894 142 q 888 142 889 142 q 886 140 886 142 q 887 140 886 140 q 889 138 888 139 q 890 137 889 138 q 890 134 890 136 q 890 128 890 132 q 892 115 890 118 q 897 113 893 113 q 901 113 900 113 q 903 112 903 113 q 903 108 903 111 l 903 106 l 897 106 q 891 106 893 106 q 888 108 889 106 l 883 111 l 883 126 l 883 142 l 881 142 q 878 142 879 142 q 878 146 878 143 q 878 149 878 149 q 881 150 879 150 q 883 150 882 150 q 883 151 883 150 q 883 156 883 153 m 1050 156 l 1050 156 l 1050 161 l 1054 161 l 1058 161 l 1058 156 l 1058 150 l 1063 150 l 1068 150 l 1068 146 l 1068 142 l 1061 142 q 1055 142 1057 142 q 1053 140 1053 142 q 1053 140 1053 140 q 1056 138 1054 139 q 1057 137 1057 138 q 1058 134 1057 136 q 1058 128 1058 132 q 1059 115 1058 118 q 1065 113 1060 113 q 1068 113 1067 113 q 1069 112 1069 113 q 1069 108 1069 111 l 1069 106 l 1064 106 q 1058 106 1060 106 q 1054 108 1056 106 l 1050 111 l 1050 126 l 1050 142 l 1047 142 q 1045 142 1046 142 q 1044 146 1044 143 q 1045 149 1044 149 q 1047 150 1046 150 q 1049 150 1049 150 q 1050 151 1050 150 q 1050 156 1050 153 m 282 149 l 282 149 q 301 147 293 153 q 311 129 310 140 l 311 125 l 293 125 q 280 124 283 125 q 276 122 276 124 q 278 118 275 121 q 287 112 281 113 q 299 115 293 111 q 303 119 301 118 q 308 119 306 119 q 310 118 310 119 q 307 114 310 117 q 301 108 304 111 q 297 106 299 106 q 286 105 292 104 q 276 107 281 106 q 268 129 267 115 q 282 149 269 143 m 297 140 l 297 140 q 287 142 292 143 q 278 136 282 142 q 277 133 278 135 q 276 132 276 132 q 280 131 276 132 q 288 131 283 131 q 297 131 293 131 q 301 132 301 132 q 302 134 303 132 q 300 138 301 136 q 297 140 299 139 m 754 149 l 754 149 q 763 150 758 150 q 771 149 767 150 q 783 126 783 143 q 780 113 783 119 q 769 106 776 107 q 758 104 764 103 q 747 110 751 106 q 741 121 743 114 q 740 135 739 128 q 746 143 742 139 q 754 149 750 147 m 769 140 l 769 140 q 751 138 758 146 q 750 118 744 131 q 759 112 753 113 q 771 114 765 111 q 775 128 775 119 q 769 140 775 136 m 828 149 l 828 149 q 840 149 835 151 q 849 142 846 147 q 850 136 850 140 q 850 122 850 132 l 850 106 l 847 106 l 843 106 l 843 121 q 843 132 843 128 q 842 138 843 136 q 840 140 842 139 q 835 142 839 142 q 828 140 832 143 q 823 135 824 139 q 821 119 822 131 l 821 106 l 817 106 l 814 106 l 814 128 l 814 150 l 818 150 q 821 149 821 150 q 819 144 821 147 q 817 142 818 143 q 817 139 817 140 l 817 136 l 818 139 q 823 145 821 143 q 828 149 825 147 m 992 149 l 992 149 q 997 150 994 150 q 1001 150 999 150 q 1015 144 1011 150 q 1018 126 1018 139 q 1018 119 1018 121 q 1018 115 1018 117 q 1019 114 1018 114 q 1022 110 1021 113 q 1022 107 1022 108 q 1019 106 1021 106 q 1013 113 1015 106 l 1010 117 l 1010 114 q 1006 106 1008 108 q 996 104 1003 104 q 985 108 989 104 q 981 118 981 113 q 989 128 982 124 q 994 130 990 129 q 1001 132 997 131 q 1007 133 1004 132 q 1010 133 1010 133 q 1010 135 1010 133 q 1008 138 1010 136 q 1003 142 1007 140 q 996 142 1000 143 q 990 138 992 142 q 988 136 989 136 q 985 136 988 136 q 982 137 982 136 q 983 142 982 138 q 987 146 985 144 q 992 149 989 147 m 1010 124 l 1010 124 q 1008 126 1010 126 q 1003 125 1007 126 q 1001 125 1003 125 q 994 122 997 124 q 991 120 992 121 q 990 119 990 119 q 989 117 989 118 q 997 111 989 111 q 1006 115 1001 111 q 1010 124 1010 119 m 493 132 l 493 132 l 493 150 l 497 150 l 501 150 l 501 133 q 501 122 501 125 q 502 117 501 118 q 503 114 503 115 q 513 113 507 111 q 521 118 518 114 q 522 124 522 121 q 522 136 522 128 l 524 150 l 526 150 l 531 150 l 531 132 q 531 123 531 126 q 531 117 531 119 q 531 115 531 115 q 533 114 532 114 q 535 110 535 113 q 535 107 535 108 q 533 106 535 106 q 528 108 531 106 q 524 114 525 110 q 522 115 522 115 q 521 111 522 114 q 517 106 519 107 q 510 104 515 104 q 494 111 500 104 q 494 118 494 114 q 493 132 493 122 m 196 49 l 196 49 q 199 49 197 49 q 204 50 201 50 l 210 49 l 210 44 l 210 40 l 204 40 q 198 40 200 40 q 194 38 196 39 q 192 33 193 35 q 192 29 192 32 l 192 25 l 197 25 l 204 25 l 204 19 l 204 15 l 194 15 q 188 15 190 15 q 185 14 185 15 q 185 13 185 14 q 188 11 186 13 l 192 8 l 192 -10 l 192 -28 l 186 -28 l 182 -28 l 182 -7 l 182 15 l 178 15 q 176 15 176 15 q 175 17 175 15 q 175 19 175 18 q 176 24 175 22 q 178 25 176 25 q 180 25 179 25 q 181 26 181 25 q 182 31 182 28 q 196 49 183 46 m 575 36 l 575 36 l 575 50 l 579 50 l 585 50 l 585 17 q 585 1 585 7 q 585 -10 585 -6 q 585 -15 585 -14 q 586 -17 586 -17 q 588 -18 588 -18 q 589 -18 589 -18 q 590 -19 590 -18 q 590 -24 590 -21 q 590 -26 590 -25 q 589 -28 589 -28 q 584 -26 588 -28 q 579 -22 581 -25 l 576 -19 l 572 -24 q 549 -28 561 -32 q 536 -12 539 -22 q 537 9 533 -1 q 550 24 540 19 q 553 26 551 25 q 557 26 556 26 q 567 24 561 26 q 575 17 572 21 q 578 18 583 8 q 576 22 576 19 q 576 27 576 24 q 575 36 575 31 m 568 13 l 568 13 q 560 16 565 15 q 551 14 556 17 q 544 -4 544 8 q 547 -10 546 -7 q 547 -14 547 -12 q 557 -19 551 -18 q 568 -17 563 -21 q 575 -2 575 -11 q 568 13 575 7 m 626 44 l 626 44 l 626 50 l 631 50 l 635 49 l 636 44 l 636 39 l 631 39 l 626 39 l 626 44 m 397 32 l 397 32 l 397 39 l 401 39 l 407 39 l 407 32 l 407 25 l 413 25 l 419 25 l 419 19 l 419 15 l 410 15 q 403 15 406 15 q 401 14 401 14 q 402 12 401 13 q 403 11 403 11 q 403 11 403 11 q 406 10 404 11 q 406 6 406 10 q 407 -4 407 3 q 408 -17 407 -15 q 410 -18 408 -18 q 415 -18 413 -18 l 419 -18 l 419 -24 l 419 -28 l 414 -28 q 404 -26 407 -28 q 400 -22 401 -25 q 398 -15 399 -19 q 397 -1 397 -10 l 397 15 l 394 15 q 392 15 393 15 q 391 17 392 15 q 390 19 390 18 q 391 24 390 22 q 392 25 392 25 q 394 25 393 25 l 397 25 l 397 32 m 1051 32 l 1051 32 l 1051 39 l 1056 39 l 1061 39 l 1061 32 l 1061 25 l 1067 25 l 1072 25 l 1072 19 l 1072 15 l 1064 15 q 1056 15 1057 15 q 1058 11 1054 14 q 1060 8 1060 10 q 1060 4 1060 7 q 1061 -4 1061 1 l 1061 -18 l 1068 -18 l 1074 -18 l 1074 -24 l 1074 -29 l 1067 -28 q 1059 -27 1061 -28 q 1056 -24 1057 -26 l 1051 -21 l 1051 -3 l 1051 15 l 1047 15 q 1045 15 1046 15 q 1044 17 1044 15 q 1044 19 1044 18 q 1044 24 1044 22 q 1045 25 1044 25 q 1047 25 1046 25 l 1051 25 l 1051 32 m 249 25 l 249 25 q 260 25 254 26 q 271 19 267 24 l 274 17 l 274 21 q 274 24 274 24 q 278 25 275 25 l 282 25 l 282 -7 q 282 -26 282 -19 q 282 -35 282 -32 q 281 -40 282 -39 q 279 -43 281 -42 q 277 -46 279 -44 q 274 -49 275 -47 q 270 -51 272 -50 q 265 -51 268 -51 q 254 -51 261 -51 l 239 -51 l 239 -47 l 239 -43 l 251 -43 q 261 -42 257 -43 q 267 -42 265 -42 q 274 -29 274 -37 q 274 -26 274 -28 q 276 -22 275 -24 q 274 -19 281 -12 q 261 -28 268 -25 q 247 -28 254 -31 q 240 -22 243 -26 q 235 -12 236 -17 q 233 -2 233 -8 q 235 8 233 4 q 240 18 236 14 q 249 25 243 22 m 265 14 l 265 14 q 259 16 264 15 q 251 15 254 17 q 243 3 244 13 q 246 -14 242 -6 q 258 -20 250 -21 q 271 -11 265 -19 q 272 1 274 -6 q 265 14 271 8 m 331 25 l 331 25 q 336 25 333 25 q 342 25 339 25 q 358 15 354 25 q 360 10 361 11 q 356 8 360 8 q 350 10 350 8 q 347 15 350 13 q 340 17 343 17 q 331 13 333 17 q 332 7 328 8 q 337 5 333 6 q 344 3 340 4 q 358 -3 354 0 q 361 -12 361 -7 q 361 -17 361 -15 q 358 -22 361 -19 q 338 -29 350 -31 q 319 -18 325 -28 q 318 -11 318 -12 q 322 -10 318 -10 q 327 -10 326 -10 q 328 -12 328 -11 q 328 -14 328 -12 q 332 -17 329 -15 q 334 -19 333 -18 q 337 -19 335 -19 q 342 -19 339 -19 q 348 -19 346 -19 q 350 -17 350 -18 q 352 -15 351 -15 q 353 -12 353 -14 q 338 -6 353 -10 q 330 -3 333 -4 q 325 0 326 -1 q 321 5 322 1 q 319 13 319 8 q 324 20 321 17 q 331 25 328 24 m 689 25 l 689 25 q 705 24 697 26 q 718 14 713 21 q 720 7 719 10 q 721 0 721 4 q 713 -24 722 -15 q 689 -28 701 -32 q 672 -10 676 -24 q 671 1 671 -4 q 674 11 671 7 q 681 19 676 15 q 689 25 685 24 m 703 15 l 703 15 q 692 15 697 17 q 683 10 688 14 q 681 1 681 6 q 681 -8 681 -4 q 694 -19 685 -18 q 710 -12 704 -21 q 712 3 714 -6 q 703 15 710 11 m 768 24 l 768 24 q 786 24 778 28 q 793 19 790 22 q 796 14 796 15 q 797 12 796 13 q 797 10 797 11 q 797 9 797 10 q 793 8 796 8 q 789 9 790 8 q 788 11 788 10 q 781 15 786 14 q 770 15 775 17 q 765 10 765 14 q 767 8 765 8 q 772 6 768 7 q 783 1 775 4 q 793 -2 790 0 q 797 -8 796 -4 q 794 -24 800 -18 q 776 -29 788 -29 q 762 -24 768 -29 q 756 -12 756 -19 q 756 -10 756 -11 q 760 -10 757 -10 q 764 -10 763 -10 q 765 -12 765 -11 q 778 -19 767 -19 q 789 -14 786 -19 q 787 -10 789 -11 q 779 -7 785 -8 q 765 -2 769 -4 q 758 3 761 0 q 756 6 757 4 q 757 11 756 8 q 768 24 757 21 m 901 22 l 901 22 q 906 25 904 24 q 910 26 908 26 q 921 22 915 26 q 928 13 926 18 q 928 5 928 11 q 929 -10 929 -1 l 929 -28 l 924 -28 l 919 -28 l 919 -12 q 919 6 919 0 q 915 14 918 13 q 906 15 911 17 q 897 8 900 14 q 895 5 896 7 q 894 -1 894 3 q 894 -11 894 -4 l 893 -28 l 889 -28 l 885 -28 l 885 -1 l 885 25 l 889 25 q 893 24 892 25 q 894 22 894 24 q 893 21 894 22 q 892 18 892 19 q 889 13 889 15 q 889 10 889 10 q 892 15 889 11 q 901 22 896 19 m 983 25 l 983 25 q 996 25 989 26 q 1007 18 1003 24 q 1013 11 1011 15 q 1015 1 1014 7 l 1015 -6 l 994 -6 q 983 -6 988 -6 q 977 -6 979 -6 q 974 -6 975 -6 q 974 -7 974 -7 q 976 -12 974 -10 q 982 -18 979 -15 q 992 -19 986 -21 q 1003 -14 999 -18 q 1004 -12 1003 -12 q 1008 -11 1006 -11 q 1013 -12 1013 -11 q 1011 -18 1014 -14 q 997 -28 1006 -25 q 981 -28 989 -31 q 964 -1 964 -21 q 983 25 965 19 m 997 14 l 997 14 q 990 16 994 15 q 983 15 986 17 q 978 11 981 14 q 975 6 975 8 l 974 3 l 989 3 q 999 3 996 3 q 1003 3 1003 3 q 1004 6 1004 4 q 1002 10 1004 7 q 997 14 1000 13 m 454 6 l 454 6 l 454 25 l 458 25 l 463 25 l 463 6 q 463 -6 463 -1 q 463 -12 463 -10 q 464 -15 464 -14 q 465 -17 464 -15 q 476 -19 469 -21 q 485 -12 482 -18 q 487 -9 486 -11 q 488 -3 488 -7 q 488 8 488 1 l 489 25 l 493 25 l 497 25 l 497 6 l 497 -15 l 500 -17 q 502 -19 501 -18 q 503 -24 503 -21 q 501 -28 503 -28 q 495 -26 499 -28 q 490 -19 492 -24 q 488 -17 489 -17 q 486 -24 486 -18 q 481 -28 485 -26 q 471 -29 476 -29 q 461 -26 465 -29 q 458 -24 460 -25 q 456 -19 457 -22 q 455 -15 456 -18 q 454 -8 454 -12 q 454 6 454 -4 m 626 -1 l 626 -1 l 626 25 l 631 25 l 635 24 l 636 -1 l 636 -28 l 631 -28 l 626 -28 l 626 -1 m 836 -17 l 836 -17 q 838 -15 836 -15 q 842 -15 840 -15 l 847 -15 l 847 -22 l 847 -28 l 842 -28 l 835 -28 l 835 -22 q 835 -18 835 -19 q 836 -17 836 -17 z "},"5":{"ha":1250,"x_min":83,"x_max":1167,"o":"m 328 1032 l 328 1032 q 420 1033 335 1032 q 631 1033 506 1033 l 926 1033 l 942 1031 q 1063 978 1008 1018 q 1085 956 1071 969 q 1107 932 1099 943 q 1160 826 1146 885 q 1161 822 1161 824 q 1164 807 1163 814 q 1166 787 1165 800 q 1167 748 1167 774 q 1167 676 1167 722 q 1167 651 1167 665 q 1167 563 1167 596 q 1167 514 1167 531 q 1165 489 1167 497 q 1163 472 1164 481 q 1085 332 1146 390 q 940 258 1026 274 l 924 256 l 632 256 q 486 254 543 254 q 397 255 429 254 q 347 256 364 256 q 323 256 331 256 q 307 258 315 257 q 307 260 307 258 q 147 351 211 276 q 86 482 100 407 l 83 499 l 83 643 l 83 788 l 86 803 q 163 954 100 892 q 328 1032 231 1021 m 699 774 l 699 774 q 664 772 681 779 q 638 747 647 765 q 635 742 636 744 q 635 736 635 739 q 635 726 635 733 q 635 717 635 721 q 635 712 635 714 q 638 707 636 710 q 660 684 646 692 q 690 679 674 676 q 725 703 714 683 q 729 744 736 722 q 717 762 725 754 q 699 774 708 769 m 854 728 l 854 728 l 854 776 l 842 776 l 829 776 l 829 754 l 828 733 l 815 754 l 801 775 l 789 775 l 775 775 l 775 726 l 775 679 l 789 679 l 803 679 l 803 700 l 803 722 l 817 701 l 831 679 l 843 679 l 854 679 l 854 728 m 228 774 l 228 774 q 222 774 225 774 q 215 775 219 775 q 200 775 210 775 l 179 775 l 179 726 l 179 679 l 192 679 l 206 679 l 206 694 l 206 710 l 215 711 q 224 712 221 711 q 231 714 228 713 q 249 744 250 725 q 228 774 246 765 m 353 763 l 353 763 l 353 775 l 322 775 l 290 775 l 290 726 l 290 679 l 322 679 l 353 679 l 353 692 l 353 704 l 335 704 l 318 704 l 318 708 l 318 714 l 333 714 l 349 714 l 349 726 l 349 739 l 333 739 l 318 739 l 318 744 l 318 749 l 335 749 l 353 749 l 353 763 m 454 771 l 454 771 l 449 775 l 424 775 l 400 775 l 400 728 l 400 679 l 413 679 l 426 679 l 426 694 q 426 706 426 703 q 428 710 426 710 q 432 706 429 710 q 439 694 435 701 l 449 679 l 464 679 q 474 679 469 679 q 479 679 479 679 q 476 685 479 679 q 468 697 472 690 l 457 714 l 461 718 q 465 723 463 721 q 468 728 467 725 q 471 733 471 731 q 471 742 471 736 q 471 751 471 747 q 469 756 471 754 q 454 771 464 765 m 567 774 l 567 774 q 552 775 561 775 q 538 772 543 775 q 515 749 517 765 q 516 738 515 742 q 521 729 517 733 q 549 717 528 721 q 560 714 557 715 q 565 710 564 713 q 565 708 565 708 q 564 706 565 707 q 553 703 560 703 q 543 708 546 704 l 540 711 l 533 710 q 532 710 533 710 q 526 708 529 708 q 521 707 522 707 q 515 704 515 706 q 517 697 514 703 q 541 679 524 683 q 576 683 558 675 q 592 711 594 692 q 558 739 592 733 q 544 749 538 743 q 553 751 547 751 q 561 747 558 751 l 564 744 l 578 747 q 585 749 582 749 q 588 749 588 749 q 590 751 589 750 q 589 753 590 751 q 581 765 588 760 q 567 774 575 771 m 957 768 l 957 768 l 954 775 l 939 775 l 925 775 l 910 728 q 899 694 904 708 q 894 679 894 681 q 899 679 894 679 q 908 679 903 679 l 922 679 l 924 685 l 925 690 l 940 689 l 954 689 l 956 683 l 957 679 l 971 679 q 982 679 979 679 q 985 681 985 679 q 982 688 985 681 q 971 722 978 700 q 963 749 967 736 q 957 767 958 761 q 957 768 957 768 m 1050 740 l 1050 740 l 1050 775 l 1038 775 l 1024 775 l 1024 726 l 1024 679 l 1051 679 l 1079 679 l 1079 692 l 1079 704 l 1065 704 l 1050 704 l 1050 740 m 685 607 l 685 607 q 643 596 661 611 q 627 552 624 576 q 654 515 631 528 q 660 512 658 513 q 666 511 663 511 q 676 511 669 511 q 685 511 682 511 q 691 512 689 511 q 697 515 693 513 q 711 525 704 518 q 721 538 718 532 q 725 568 728 553 q 710 594 721 583 q 685 607 699 604 m 849 560 l 849 560 l 849 608 l 835 608 q 822 607 821 608 q 821 600 821 606 q 821 586 821 594 l 821 567 l 808 586 l 794 607 l 782 607 l 769 607 l 769 558 l 769 511 l 783 511 l 796 511 l 796 532 l 797 554 l 811 532 l 824 511 l 836 511 l 849 511 l 849 560 m 231 578 l 231 578 l 231 607 l 217 607 l 204 607 l 204 572 l 204 538 l 208 532 q 217 520 211 525 q 229 513 222 515 q 243 511 235 511 q 258 513 251 511 q 272 522 265 515 q 279 535 278 528 q 281 541 281 538 q 282 551 282 544 q 282 574 282 558 l 282 607 l 269 607 l 256 607 l 256 578 q 256 553 256 561 q 254 543 256 546 q 250 538 253 540 q 242 536 246 536 q 235 539 239 536 q 232 544 233 540 q 231 554 231 547 q 231 578 231 561 m 381 606 l 381 606 q 366 607 375 607 q 350 606 357 607 q 340 600 344 604 q 332 592 335 596 q 328 588 329 590 q 328 581 328 585 q 329 569 328 572 q 335 561 331 565 q 345 554 339 557 q 363 549 351 551 q 378 542 378 546 q 373 536 378 538 q 363 535 368 535 q 356 540 358 536 l 353 543 l 340 540 q 331 538 335 539 q 326 538 328 538 q 327 534 326 536 q 330 528 328 532 q 333 522 332 525 q 363 511 343 511 q 400 525 389 510 q 403 531 403 528 q 404 536 404 533 q 375 571 407 564 q 358 576 361 574 q 357 582 354 578 q 360 583 358 583 q 365 583 363 583 q 371 583 369 583 q 374 579 372 582 l 376 576 l 389 579 q 398 581 394 581 q 401 582 401 582 q 402 585 403 583 q 400 589 401 586 q 381 606 393 601 m 511 594 l 511 594 l 511 607 l 481 607 l 449 607 l 449 558 l 449 511 l 481 511 l 511 511 l 511 524 l 511 536 l 493 536 l 476 536 l 476 542 l 476 546 l 492 546 l 507 546 l 507 558 l 507 571 l 492 571 l 476 571 l 476 576 l 476 582 l 493 582 l 511 582 l 511 594 m 922 572 l 922 572 l 922 607 l 910 607 l 896 607 l 896 558 l 896 511 l 924 511 l 951 511 l 951 524 l 951 536 l 936 536 l 922 536 l 922 572 m 1001 594 l 1001 594 l 994 607 l 979 607 l 963 607 l 965 604 q 971 594 967 601 q 982 576 975 586 l 996 551 l 996 531 l 996 511 l 1008 511 l 1022 511 l 1022 531 l 1022 551 l 1036 576 q 1048 595 1043 588 q 1053 604 1053 603 l 1054 607 l 1039 607 l 1024 607 l 1017 594 q 1012 585 1014 589 q 1008 582 1010 582 q 1006 585 1008 582 q 1001 594 1004 589 m 674 749 l 674 749 q 699 743 689 754 q 703 717 708 732 q 681 704 694 703 q 661 721 667 706 q 663 737 660 729 q 674 749 667 744 m 206 742 l 206 742 l 206 749 l 213 749 q 219 748 218 749 q 221 743 221 747 q 219 738 221 739 q 213 735 217 736 l 206 735 l 206 742 m 426 742 l 426 742 l 426 749 l 435 749 q 443 748 442 749 q 444 742 444 747 q 433 735 444 735 l 426 735 l 426 742 m 938 729 l 938 729 q 939 736 938 733 q 940 738 940 739 q 942 732 940 738 q 943 726 943 729 l 947 714 l 940 714 l 933 714 l 933 718 q 934 721 933 718 q 936 728 935 724 q 938 729 936 729 m 667 581 l 667 581 q 685 580 676 585 q 697 565 694 575 q 693 544 700 553 q 675 536 686 536 q 657 547 664 536 q 655 567 651 557 q 667 581 658 576 m 194 169 l 194 169 q 212 171 203 172 q 226 165 221 169 q 231 161 229 164 q 235 156 233 158 q 236 151 236 153 q 235 151 236 151 q 232 150 235 150 q 229 151 231 150 q 226 154 228 151 q 209 163 221 163 q 190 156 197 164 q 183 135 182 149 q 193 115 185 121 q 214 113 201 110 q 225 120 221 115 q 229 129 229 125 l 229 132 l 219 132 l 210 132 l 210 136 l 210 140 l 224 140 l 236 140 l 236 122 l 236 106 l 233 106 q 229 107 229 106 q 232 114 229 108 q 233 117 233 117 q 232 118 233 118 q 231 117 232 118 q 228 114 229 115 q 207 104 221 104 q 179 121 189 104 q 177 125 178 124 q 176 129 176 126 q 176 138 176 132 q 176 146 176 143 q 177 150 176 149 q 179 154 178 151 q 194 169 185 165 m 451 168 l 451 168 q 461 171 454 171 l 468 171 l 468 167 l 468 163 l 463 163 q 457 162 458 163 q 454 160 456 161 q 453 156 454 158 q 453 153 453 154 l 453 150 l 458 150 l 464 150 l 464 146 l 464 142 l 457 142 q 451 142 453 142 q 447 140 449 142 q 448 140 447 140 q 450 138 449 139 q 452 135 451 136 q 453 131 453 133 q 453 119 453 128 l 453 106 l 449 106 l 444 106 l 444 124 l 444 142 l 442 142 q 440 142 440 142 q 439 146 439 143 q 440 149 439 149 q 442 150 440 150 q 444 151 444 150 q 444 154 444 151 q 451 168 444 163 m 565 138 l 565 138 l 565 171 l 569 171 l 574 171 l 574 138 l 574 106 l 569 106 l 565 106 l 565 138 m 604 138 l 604 138 l 604 171 l 608 171 l 613 171 l 613 138 l 613 106 l 608 106 l 604 106 l 604 138 m 704 168 l 704 168 q 713 171 707 171 l 719 171 l 719 167 l 719 163 l 714 163 q 709 162 711 163 q 707 160 707 161 q 705 156 706 158 q 704 153 704 154 l 704 150 l 710 150 l 717 150 l 717 146 l 717 142 l 708 142 q 702 142 704 142 q 700 140 700 142 q 699 140 699 140 q 701 138 700 139 q 703 135 703 136 q 704 131 704 133 q 704 119 704 128 l 704 106 l 700 106 l 696 106 l 696 124 l 696 142 l 694 142 q 692 142 692 142 q 692 146 692 143 q 692 149 692 149 q 694 150 692 150 q 696 151 696 150 q 696 154 696 151 q 704 168 696 163 m 342 156 l 342 156 l 342 161 l 346 161 l 350 161 l 350 156 l 350 150 l 356 150 l 360 150 l 360 146 l 360 142 l 353 142 q 347 138 340 142 q 349 136 349 138 q 349 133 349 135 q 350 125 350 131 l 350 114 l 356 113 l 361 113 l 361 108 l 361 106 l 354 106 q 349 106 350 106 q 344 108 347 106 l 342 111 l 342 126 l 342 142 l 339 142 q 335 142 336 142 q 335 146 335 143 q 335 149 335 149 q 339 150 336 150 q 341 150 340 150 q 342 151 342 150 q 342 156 342 153 m 883 156 l 883 156 l 883 161 l 888 161 l 890 161 l 890 156 l 890 150 l 896 150 l 901 150 l 901 146 l 901 142 l 894 142 q 888 142 889 142 q 886 140 886 142 q 887 140 886 140 q 889 138 888 139 q 890 137 889 138 q 890 134 890 136 q 890 128 890 132 q 892 115 890 118 q 897 113 893 113 q 901 113 900 113 q 903 112 903 113 q 903 108 903 111 l 903 106 l 897 106 q 891 106 893 106 q 888 108 889 106 l 883 111 l 883 126 l 883 142 l 881 142 q 878 142 879 142 q 878 146 878 143 q 878 149 878 149 q 881 150 879 150 q 883 150 882 150 q 883 151 883 150 q 883 156 883 153 m 1050 156 l 1050 156 l 1050 161 l 1054 161 l 1058 161 l 1058 156 l 1058 150 l 1063 150 l 1068 150 l 1068 146 l 1068 142 l 1061 142 q 1055 142 1057 142 q 1053 140 1053 142 q 1053 140 1053 140 q 1056 138 1054 139 q 1057 137 1057 138 q 1058 134 1057 136 q 1058 128 1058 132 q 1059 115 1058 118 q 1065 113 1060 113 q 1068 113 1067 113 q 1069 112 1069 113 q 1069 108 1069 111 l 1069 106 l 1064 106 q 1058 106 1060 106 q 1054 108 1056 106 l 1050 111 l 1050 126 l 1050 142 l 1047 142 q 1045 142 1046 142 q 1044 146 1044 143 q 1045 149 1044 149 q 1047 150 1046 150 q 1049 150 1049 150 q 1050 151 1050 150 q 1050 156 1050 153 m 282 149 l 282 149 q 301 147 293 153 q 311 129 310 140 l 311 125 l 293 125 q 280 124 283 125 q 276 122 276 124 q 278 118 275 121 q 287 112 281 113 q 299 115 293 111 q 303 119 301 118 q 308 119 306 119 q 310 118 310 119 q 307 114 310 117 q 301 108 304 111 q 297 106 299 106 q 286 105 292 104 q 276 107 281 106 q 268 129 267 115 q 282 149 269 143 m 297 140 l 297 140 q 287 142 292 143 q 278 136 282 142 q 277 133 278 135 q 276 132 276 132 q 280 131 276 132 q 288 131 283 131 q 297 131 293 131 q 301 132 301 132 q 302 134 303 132 q 300 138 301 136 q 297 140 299 139 m 754 149 l 754 149 q 763 150 758 150 q 771 149 767 150 q 783 126 783 143 q 780 113 783 119 q 769 106 776 107 q 758 104 764 103 q 747 110 751 106 q 741 121 743 114 q 740 135 739 128 q 746 143 742 139 q 754 149 750 147 m 769 140 l 769 140 q 751 138 758 146 q 750 118 744 131 q 759 112 753 113 q 771 114 765 111 q 775 128 775 119 q 769 140 775 136 m 828 149 l 828 149 q 840 149 835 151 q 849 142 846 147 q 850 136 850 140 q 850 122 850 132 l 850 106 l 847 106 l 843 106 l 843 121 q 843 132 843 128 q 842 138 843 136 q 840 140 842 139 q 835 142 839 142 q 828 140 832 143 q 823 135 824 139 q 821 119 822 131 l 821 106 l 817 106 l 814 106 l 814 128 l 814 150 l 818 150 q 821 149 821 150 q 819 144 821 147 q 817 142 818 143 q 817 139 817 140 l 817 136 l 818 139 q 823 145 821 143 q 828 149 825 147 m 992 149 l 992 149 q 997 150 994 150 q 1001 150 999 150 q 1015 144 1011 150 q 1018 126 1018 139 q 1018 119 1018 121 q 1018 115 1018 117 q 1019 114 1018 114 q 1022 110 1021 113 q 1022 107 1022 108 q 1019 106 1021 106 q 1013 113 1015 106 l 1010 117 l 1010 114 q 1006 106 1008 108 q 996 104 1003 104 q 985 108 989 104 q 981 118 981 113 q 989 128 982 124 q 994 130 990 129 q 1001 132 997 131 q 1007 133 1004 132 q 1010 133 1010 133 q 1010 135 1010 133 q 1008 138 1010 136 q 1003 142 1007 140 q 996 142 1000 143 q 990 138 992 142 q 988 136 989 136 q 985 136 988 136 q 982 137 982 136 q 983 142 982 138 q 987 146 985 144 q 992 149 989 147 m 1010 124 l 1010 124 q 1008 126 1010 126 q 1003 125 1007 126 q 1001 125 1003 125 q 994 122 997 124 q 991 120 992 121 q 990 119 990 119 q 989 117 989 118 q 997 111 989 111 q 1006 115 1001 111 q 1010 124 1010 119 m 493 132 l 493 132 l 493 150 l 497 150 l 501 150 l 501 133 q 501 122 501 125 q 502 117 501 118 q 503 114 503 115 q 513 113 507 111 q 521 118 518 114 q 522 124 522 121 q 522 136 522 128 l 524 150 l 526 150 l 531 150 l 531 132 q 531 123 531 126 q 531 117 531 119 q 531 115 531 115 q 533 114 532 114 q 535 110 535 113 q 535 107 535 108 q 533 106 535 106 q 528 108 531 106 q 524 114 525 110 q 522 115 522 115 q 521 111 522 114 q 517 106 519 107 q 510 104 515 104 q 494 111 500 104 q 494 118 494 114 q 493 132 493 122 m 196 49 l 196 49 q 199 49 197 49 q 204 50 201 50 l 210 49 l 210 44 l 210 40 l 204 40 q 198 40 200 40 q 194 38 196 39 q 192 33 193 35 q 192 29 192 32 l 192 25 l 197 25 l 204 25 l 204 19 l 204 15 l 194 15 q 188 15 190 15 q 185 14 185 15 q 185 13 185 14 q 188 11 186 13 l 192 8 l 192 -10 l 192 -28 l 186 -28 l 182 -28 l 182 -7 l 182 15 l 178 15 q 176 15 176 15 q 175 17 175 15 q 175 19 175 18 q 176 24 175 22 q 178 25 176 25 q 180 25 179 25 q 181 26 181 25 q 182 31 182 28 q 196 49 183 46 m 575 36 l 575 36 l 575 50 l 579 50 l 585 50 l 585 17 q 585 1 585 7 q 585 -10 585 -6 q 585 -15 585 -14 q 586 -17 586 -17 q 588 -18 588 -18 q 589 -18 589 -18 q 590 -19 590 -18 q 590 -24 590 -21 q 590 -26 590 -25 q 589 -28 589 -28 q 584 -26 588 -28 q 579 -22 581 -25 l 576 -19 l 572 -24 q 549 -28 561 -32 q 536 -12 539 -22 q 537 9 533 -1 q 550 24 540 19 q 553 26 551 25 q 557 26 556 26 q 567 24 561 26 q 575 17 572 21 q 578 18 583 8 q 576 22 576 19 q 576 27 576 24 q 575 36 575 31 m 568 13 l 568 13 q 560 16 565 15 q 551 14 556 17 q 544 -4 544 8 q 547 -10 546 -7 q 547 -14 547 -12 q 557 -19 551 -18 q 568 -17 563 -21 q 575 -2 575 -11 q 568 13 575 7 m 626 44 l 626 44 l 626 50 l 631 50 l 635 49 l 636 44 l 636 39 l 631 39 l 626 39 l 626 44 m 397 32 l 397 32 l 397 39 l 401 39 l 407 39 l 407 32 l 407 25 l 413 25 l 419 25 l 419 19 l 419 15 l 410 15 q 403 15 406 15 q 401 14 401 14 q 402 12 401 13 q 403 11 403 11 q 403 11 403 11 q 406 10 404 11 q 406 6 406 10 q 407 -4 407 3 q 408 -17 407 -15 q 410 -18 408 -18 q 415 -18 413 -18 l 419 -18 l 419 -24 l 419 -28 l 414 -28 q 404 -26 407 -28 q 400 -22 401 -25 q 398 -15 399 -19 q 397 -1 397 -10 l 397 15 l 394 15 q 392 15 393 15 q 391 17 392 15 q 390 19 390 18 q 391 24 390 22 q 392 25 392 25 q 394 25 393 25 l 397 25 l 397 32 m 1051 32 l 1051 32 l 1051 39 l 1056 39 l 1061 39 l 1061 32 l 1061 25 l 1067 25 l 1072 25 l 1072 19 l 1072 15 l 1064 15 q 1056 15 1057 15 q 1058 11 1054 14 q 1060 8 1060 10 q 1060 4 1060 7 q 1061 -4 1061 1 l 1061 -18 l 1068 -18 l 1074 -18 l 1074 -24 l 1074 -29 l 1067 -28 q 1059 -27 1061 -28 q 1056 -24 1057 -26 l 1051 -21 l 1051 -3 l 1051 15 l 1047 15 q 1045 15 1046 15 q 1044 17 1044 15 q 1044 19 1044 18 q 1044 24 1044 22 q 1045 25 1044 25 q 1047 25 1046 25 l 1051 25 l 1051 32 m 249 25 l 249 25 q 260 25 254 26 q 271 19 267 24 l 274 17 l 274 21 q 274 24 274 24 q 278 25 275 25 l 282 25 l 282 -7 q 282 -26 282 -19 q 282 -35 282 -32 q 281 -40 282 -39 q 279 -43 281 -42 q 277 -46 279 -44 q 274 -49 275 -47 q 270 -51 272 -50 q 265 -51 268 -51 q 254 -51 261 -51 l 239 -51 l 239 -47 l 239 -43 l 251 -43 q 261 -42 257 -43 q 267 -42 265 -42 q 274 -29 274 -37 q 274 -26 274 -28 q 276 -22 275 -24 q 274 -19 281 -12 q 261 -28 268 -25 q 247 -28 254 -31 q 240 -22 243 -26 q 235 -12 236 -17 q 233 -2 233 -8 q 235 8 233 4 q 240 18 236 14 q 249 25 243 22 m 265 14 l 265 14 q 259 16 264 15 q 251 15 254 17 q 243 3 244 13 q 246 -14 242 -6 q 258 -20 250 -21 q 271 -11 265 -19 q 272 1 274 -6 q 265 14 271 8 m 331 25 l 331 25 q 336 25 333 25 q 342 25 339 25 q 358 15 354 25 q 360 10 361 11 q 356 8 360 8 q 350 10 350 8 q 347 15 350 13 q 340 17 343 17 q 331 13 333 17 q 332 7 328 8 q 337 5 333 6 q 344 3 340 4 q 358 -3 354 0 q 361 -12 361 -7 q 361 -17 361 -15 q 358 -22 361 -19 q 338 -29 350 -31 q 319 -18 325 -28 q 318 -11 318 -12 q 322 -10 318 -10 q 327 -10 326 -10 q 328 -12 328 -11 q 328 -14 328 -12 q 332 -17 329 -15 q 334 -19 333 -18 q 337 -19 335 -19 q 342 -19 339 -19 q 348 -19 346 -19 q 350 -17 350 -18 q 352 -15 351 -15 q 353 -12 353 -14 q 338 -6 353 -10 q 330 -3 333 -4 q 325 0 326 -1 q 321 5 322 1 q 319 13 319 8 q 324 20 321 17 q 331 25 328 24 m 689 25 l 689 25 q 705 24 697 26 q 718 14 713 21 q 720 7 719 10 q 721 0 721 4 q 713 -24 722 -15 q 689 -28 701 -32 q 672 -10 676 -24 q 671 1 671 -4 q 674 11 671 7 q 681 19 676 15 q 689 25 685 24 m 703 15 l 703 15 q 692 15 697 17 q 683 10 688 14 q 681 1 681 6 q 681 -8 681 -4 q 694 -19 685 -18 q 710 -12 704 -21 q 712 3 714 -6 q 703 15 710 11 m 768 24 l 768 24 q 786 24 778 28 q 793 19 790 22 q 796 14 796 15 q 797 12 796 13 q 797 10 797 11 q 797 9 797 10 q 793 8 796 8 q 789 9 790 8 q 788 11 788 10 q 781 15 786 14 q 770 15 775 17 q 765 10 765 14 q 767 8 765 8 q 772 6 768 7 q 783 1 775 4 q 793 -2 790 0 q 797 -8 796 -4 q 794 -24 800 -18 q 776 -29 788 -29 q 762 -24 768 -29 q 756 -12 756 -19 q 756 -10 756 -11 q 760 -10 757 -10 q 764 -10 763 -10 q 765 -12 765 -11 q 778 -19 767 -19 q 789 -14 786 -19 q 787 -10 789 -11 q 779 -7 785 -8 q 765 -2 769 -4 q 758 3 761 0 q 756 6 757 4 q 757 11 756 8 q 768 24 757 21 m 901 22 l 901 22 q 906 25 904 24 q 910 26 908 26 q 921 22 915 26 q 928 13 926 18 q 928 5 928 11 q 929 -10 929 -1 l 929 -28 l 924 -28 l 919 -28 l 919 -12 q 919 6 919 0 q 915 14 918 13 q 906 15 911 17 q 897 8 900 14 q 895 5 896 7 q 894 -1 894 3 q 894 -11 894 -4 l 893 -28 l 889 -28 l 885 -28 l 885 -1 l 885 25 l 889 25 q 893 24 892 25 q 894 22 894 24 q 893 21 894 22 q 892 18 892 19 q 889 13 889 15 q 889 10 889 10 q 892 15 889 11 q 901 22 896 19 m 983 25 l 983 25 q 996 25 989 26 q 1007 18 1003 24 q 1013 11 1011 15 q 1015 1 1014 7 l 1015 -6 l 994 -6 q 983 -6 988 -6 q 977 -6 979 -6 q 974 -6 975 -6 q 974 -7 974 -7 q 976 -12 974 -10 q 982 -18 979 -15 q 992 -19 986 -21 q 1003 -14 999 -18 q 1004 -12 1003 -12 q 1008 -11 1006 -11 q 1013 -12 1013 -11 q 1011 -18 1014 -14 q 997 -28 1006 -25 q 981 -28 989 -31 q 964 -1 964 -21 q 983 25 965 19 m 997 14 l 997 14 q 990 16 994 15 q 983 15 986 17 q 978 11 981 14 q 975 6 975 8 l 974 3 l 989 3 q 999 3 996 3 q 1003 3 1003 3 q 1004 6 1004 4 q 1002 10 1004 7 q 997 14 1000 13 m 454 6 l 454 6 l 454 25 l 458 25 l 463 25 l 463 6 q 463 -6 463 -1 q 463 -12 463 -10 q 464 -15 464 -14 q 465 -17 464 -15 q 476 -19 469 -21 q 485 -12 482 -18 q 487 -9 486 -11 q 488 -3 488 -7 q 488 8 488 1 l 489 25 l 493 25 l 497 25 l 497 6 l 497 -15 l 500 -17 q 502 -19 501 -18 q 503 -24 503 -21 q 501 -28 503 -28 q 495 -26 499 -28 q 490 -19 492 -24 q 488 -17 489 -17 q 486 -24 486 -18 q 481 -28 485 -26 q 471 -29 476 -29 q 461 -26 465 -29 q 458 -24 460 -25 q 456 -19 457 -22 q 455 -15 456 -18 q 454 -8 454 -12 q 454 6 454 -4 m 626 -1 l 626 -1 l 626 25 l 631 25 l 635 24 l 636 -1 l 636 -28 l 631 -28 l 626 -28 l 626 -1 m 836 -17 l 836 -17 q 838 -15 836 -15 q 842 -15 840 -15 l 847 -15 l 847 -22 l 847 -28 l 842 -28 l 835 -28 l 835 -22 q 835 -18 835 -19 q 836 -17 836 -17 z "},"6":{"ha":1250,"x_min":83,"x_max":1167,"o":"m 328 1032 l 328 1032 q 420 1033 335 1032 q 631 1033 506 1033 l 926 1033 l 942 1031 q 1063 978 1008 1018 q 1085 956 1071 969 q 1107 932 1099 943 q 1160 826 1146 885 q 1161 822 1161 824 q 1164 807 1163 814 q 1166 787 1165 800 q 1167 748 1167 774 q 1167 676 1167 722 q 1167 651 1167 665 q 1167 563 1167 596 q 1167 514 1167 531 q 1165 489 1167 497 q 1163 472 1164 481 q 1085 332 1146 390 q 940 258 1026 274 l 924 256 l 632 256 q 486 254 543 254 q 397 255 429 254 q 347 256 364 256 q 323 256 331 256 q 307 258 315 257 q 307 260 307 258 q 147 351 211 276 q 86 482 100 407 l 83 499 l 83 643 l 83 788 l 86 803 q 163 954 100 892 q 328 1032 231 1021 m 699 774 l 699 774 q 664 772 681 779 q 638 747 647 765 q 635 742 636 744 q 635 736 635 739 q 635 726 635 733 q 635 717 635 721 q 635 712 635 714 q 638 707 636 710 q 660 684 646 692 q 690 679 674 676 q 725 703 714 683 q 729 744 736 722 q 717 762 725 754 q 699 774 708 769 m 854 728 l 854 728 l 854 776 l 842 776 l 829 776 l 829 754 l 828 733 l 815 754 l 801 775 l 789 775 l 775 775 l 775 726 l 775 679 l 789 679 l 803 679 l 803 700 l 803 722 l 817 701 l 831 679 l 843 679 l 854 679 l 854 728 m 228 774 l 228 774 q 222 774 225 774 q 215 775 219 775 q 200 775 210 775 l 179 775 l 179 726 l 179 679 l 192 679 l 206 679 l 206 694 l 206 710 l 215 711 q 224 712 221 711 q 231 714 228 713 q 249 744 250 725 q 228 774 246 765 m 353 763 l 353 763 l 353 775 l 322 775 l 290 775 l 290 726 l 290 679 l 322 679 l 353 679 l 353 692 l 353 704 l 335 704 l 318 704 l 318 708 l 318 714 l 333 714 l 349 714 l 349 726 l 349 739 l 333 739 l 318 739 l 318 744 l 318 749 l 335 749 l 353 749 l 353 763 m 454 771 l 454 771 l 449 775 l 424 775 l 400 775 l 400 728 l 400 679 l 413 679 l 426 679 l 426 694 q 426 706 426 703 q 428 710 426 710 q 432 706 429 710 q 439 694 435 701 l 449 679 l 464 679 q 474 679 469 679 q 479 679 479 679 q 476 685 479 679 q 468 697 472 690 l 457 714 l 461 718 q 465 723 463 721 q 468 728 467 725 q 471 733 471 731 q 471 742 471 736 q 471 751 471 747 q 469 756 471 754 q 454 771 464 765 m 567 774 l 567 774 q 552 775 561 775 q 538 772 543 775 q 515 749 517 765 q 516 738 515 742 q 521 729 517 733 q 549 717 528 721 q 560 714 557 715 q 565 710 564 713 q 565 708 565 708 q 564 706 565 707 q 553 703 560 703 q 543 708 546 704 l 540 711 l 533 710 q 532 710 533 710 q 526 708 529 708 q 521 707 522 707 q 515 704 515 706 q 517 697 514 703 q 541 679 524 683 q 576 683 558 675 q 592 711 594 692 q 558 739 592 733 q 544 749 538 743 q 553 751 547 751 q 561 747 558 751 l 564 744 l 578 747 q 585 749 582 749 q 588 749 588 749 q 590 751 589 750 q 589 753 590 751 q 581 765 588 760 q 567 774 575 771 m 957 768 l 957 768 l 954 775 l 939 775 l 925 775 l 910 728 q 899 694 904 708 q 894 679 894 681 q 899 679 894 679 q 908 679 903 679 l 922 679 l 924 685 l 925 690 l 940 689 l 954 689 l 956 683 l 957 679 l 971 679 q 982 679 979 679 q 985 681 985 679 q 982 688 985 681 q 971 722 978 700 q 963 749 967 736 q 957 767 958 761 q 957 768 957 768 m 1050 740 l 1050 740 l 1050 775 l 1038 775 l 1024 775 l 1024 726 l 1024 679 l 1051 679 l 1079 679 l 1079 692 l 1079 704 l 1065 704 l 1050 704 l 1050 740 m 685 607 l 685 607 q 643 596 661 611 q 627 552 624 576 q 654 515 631 528 q 660 512 658 513 q 666 511 663 511 q 676 511 669 511 q 685 511 682 511 q 691 512 689 511 q 697 515 693 513 q 711 525 704 518 q 721 538 718 532 q 725 568 728 553 q 710 594 721 583 q 685 607 699 604 m 849 560 l 849 560 l 849 608 l 835 608 q 822 607 821 608 q 821 600 821 606 q 821 586 821 594 l 821 567 l 808 586 l 794 607 l 782 607 l 769 607 l 769 558 l 769 511 l 783 511 l 796 511 l 796 532 l 797 554 l 811 532 l 824 511 l 836 511 l 849 511 l 849 560 m 231 578 l 231 578 l 231 607 l 217 607 l 204 607 l 204 572 l 204 538 l 208 532 q 217 520 211 525 q 229 513 222 515 q 243 511 235 511 q 258 513 251 511 q 272 522 265 515 q 279 535 278 528 q 281 541 281 538 q 282 551 282 544 q 282 574 282 558 l 282 607 l 269 607 l 256 607 l 256 578 q 256 553 256 561 q 254 543 256 546 q 250 538 253 540 q 242 536 246 536 q 235 539 239 536 q 232 544 233 540 q 231 554 231 547 q 231 578 231 561 m 381 606 l 381 606 q 366 607 375 607 q 350 606 357 607 q 340 600 344 604 q 332 592 335 596 q 328 588 329 590 q 328 581 328 585 q 329 569 328 572 q 335 561 331 565 q 345 554 339 557 q 363 549 351 551 q 378 542 378 546 q 373 536 378 538 q 363 535 368 535 q 356 540 358 536 l 353 543 l 340 540 q 331 538 335 539 q 326 538 328 538 q 327 534 326 536 q 330 528 328 532 q 333 522 332 525 q 363 511 343 511 q 400 525 389 510 q 403 531 403 528 q 404 536 404 533 q 375 571 407 564 q 358 576 361 574 q 357 582 354 578 q 360 583 358 583 q 365 583 363 583 q 371 583 369 583 q 374 579 372 582 l 376 576 l 389 579 q 398 581 394 581 q 401 582 401 582 q 402 585 403 583 q 400 589 401 586 q 381 606 393 601 m 511 594 l 511 594 l 511 607 l 481 607 l 449 607 l 449 558 l 449 511 l 481 511 l 511 511 l 511 524 l 511 536 l 493 536 l 476 536 l 476 542 l 476 546 l 492 546 l 507 546 l 507 558 l 507 571 l 492 571 l 476 571 l 476 576 l 476 582 l 493 582 l 511 582 l 511 594 m 922 572 l 922 572 l 922 607 l 910 607 l 896 607 l 896 558 l 896 511 l 924 511 l 951 511 l 951 524 l 951 536 l 936 536 l 922 536 l 922 572 m 1001 594 l 1001 594 l 994 607 l 979 607 l 963 607 l 965 604 q 971 594 967 601 q 982 576 975 586 l 996 551 l 996 531 l 996 511 l 1008 511 l 1022 511 l 1022 531 l 1022 551 l 1036 576 q 1048 595 1043 588 q 1053 604 1053 603 l 1054 607 l 1039 607 l 1024 607 l 1017 594 q 1012 585 1014 589 q 1008 582 1010 582 q 1006 585 1008 582 q 1001 594 1004 589 m 674 749 l 674 749 q 699 743 689 754 q 703 717 708 732 q 681 704 694 703 q 661 721 667 706 q 663 737 660 729 q 674 749 667 744 m 206 742 l 206 742 l 206 749 l 213 749 q 219 748 218 749 q 221 743 221 747 q 219 738 221 739 q 213 735 217 736 l 206 735 l 206 742 m 426 742 l 426 742 l 426 749 l 435 749 q 443 748 442 749 q 444 742 444 747 q 433 735 444 735 l 426 735 l 426 742 m 938 729 l 938 729 q 939 736 938 733 q 940 738 940 739 q 942 732 940 738 q 943 726 943 729 l 947 714 l 940 714 l 933 714 l 933 718 q 934 721 933 718 q 936 728 935 724 q 938 729 936 729 m 667 581 l 667 581 q 685 580 676 585 q 697 565 694 575 q 693 544 700 553 q 675 536 686 536 q 657 547 664 536 q 655 567 651 557 q 667 581 658 576 m 194 169 l 194 169 q 212 171 203 172 q 226 165 221 169 q 231 161 229 164 q 235 156 233 158 q 236 151 236 153 q 235 151 236 151 q 232 150 235 150 q 229 151 231 150 q 226 154 228 151 q 209 163 221 163 q 190 156 197 164 q 183 135 182 149 q 193 115 185 121 q 214 113 201 110 q 225 120 221 115 q 229 129 229 125 l 229 132 l 219 132 l 210 132 l 210 136 l 210 140 l 224 140 l 236 140 l 236 122 l 236 106 l 233 106 q 229 107 229 106 q 232 114 229 108 q 233 117 233 117 q 232 118 233 118 q 231 117 232 118 q 228 114 229 115 q 207 104 221 104 q 179 121 189 104 q 177 125 178 124 q 176 129 176 126 q 176 138 176 132 q 176 146 176 143 q 177 150 176 149 q 179 154 178 151 q 194 169 185 165 m 451 168 l 451 168 q 461 171 454 171 l 468 171 l 468 167 l 468 163 l 463 163 q 457 162 458 163 q 454 160 456 161 q 453 156 454 158 q 453 153 453 154 l 453 150 l 458 150 l 464 150 l 464 146 l 464 142 l 457 142 q 451 142 453 142 q 447 140 449 142 q 448 140 447 140 q 450 138 449 139 q 452 135 451 136 q 453 131 453 133 q 453 119 453 128 l 453 106 l 449 106 l 444 106 l 444 124 l 444 142 l 442 142 q 440 142 440 142 q 439 146 439 143 q 440 149 439 149 q 442 150 440 150 q 444 151 444 150 q 444 154 444 151 q 451 168 444 163 m 565 138 l 565 138 l 565 171 l 569 171 l 574 171 l 574 138 l 574 106 l 569 106 l 565 106 l 565 138 m 604 138 l 604 138 l 604 171 l 608 171 l 613 171 l 613 138 l 613 106 l 608 106 l 604 106 l 604 138 m 704 168 l 704 168 q 713 171 707 171 l 719 171 l 719 167 l 719 163 l 714 163 q 709 162 711 163 q 707 160 707 161 q 705 156 706 158 q 704 153 704 154 l 704 150 l 710 150 l 717 150 l 717 146 l 717 142 l 708 142 q 702 142 704 142 q 700 140 700 142 q 699 140 699 140 q 701 138 700 139 q 703 135 703 136 q 704 131 704 133 q 704 119 704 128 l 704 106 l 700 106 l 696 106 l 696 124 l 696 142 l 694 142 q 692 142 692 142 q 692 146 692 143 q 692 149 692 149 q 694 150 692 150 q 696 151 696 150 q 696 154 696 151 q 704 168 696 163 m 342 156 l 342 156 l 342 161 l 346 161 l 350 161 l 350 156 l 350 150 l 356 150 l 360 150 l 360 146 l 360 142 l 353 142 q 347 138 340 142 q 349 136 349 138 q 349 133 349 135 q 350 125 350 131 l 350 114 l 356 113 l 361 113 l 361 108 l 361 106 l 354 106 q 349 106 350 106 q 344 108 347 106 l 342 111 l 342 126 l 342 142 l 339 142 q 335 142 336 142 q 335 146 335 143 q 335 149 335 149 q 339 150 336 150 q 341 150 340 150 q 342 151 342 150 q 342 156 342 153 m 883 156 l 883 156 l 883 161 l 888 161 l 890 161 l 890 156 l 890 150 l 896 150 l 901 150 l 901 146 l 901 142 l 894 142 q 888 142 889 142 q 886 140 886 142 q 887 140 886 140 q 889 138 888 139 q 890 137 889 138 q 890 134 890 136 q 890 128 890 132 q 892 115 890 118 q 897 113 893 113 q 901 113 900 113 q 903 112 903 113 q 903 108 903 111 l 903 106 l 897 106 q 891 106 893 106 q 888 108 889 106 l 883 111 l 883 126 l 883 142 l 881 142 q 878 142 879 142 q 878 146 878 143 q 878 149 878 149 q 881 150 879 150 q 883 150 882 150 q 883 151 883 150 q 883 156 883 153 m 1050 156 l 1050 156 l 1050 161 l 1054 161 l 1058 161 l 1058 156 l 1058 150 l 1063 150 l 1068 150 l 1068 146 l 1068 142 l 1061 142 q 1055 142 1057 142 q 1053 140 1053 142 q 1053 140 1053 140 q 1056 138 1054 139 q 1057 137 1057 138 q 1058 134 1057 136 q 1058 128 1058 132 q 1059 115 1058 118 q 1065 113 1060 113 q 1068 113 1067 113 q 1069 112 1069 113 q 1069 108 1069 111 l 1069 106 l 1064 106 q 1058 106 1060 106 q 1054 108 1056 106 l 1050 111 l 1050 126 l 1050 142 l 1047 142 q 1045 142 1046 142 q 1044 146 1044 143 q 1045 149 1044 149 q 1047 150 1046 150 q 1049 150 1049 150 q 1050 151 1050 150 q 1050 156 1050 153 m 282 149 l 282 149 q 301 147 293 153 q 311 129 310 140 l 311 125 l 293 125 q 280 124 283 125 q 276 122 276 124 q 278 118 275 121 q 287 112 281 113 q 299 115 293 111 q 303 119 301 118 q 308 119 306 119 q 310 118 310 119 q 307 114 310 117 q 301 108 304 111 q 297 106 299 106 q 286 105 292 104 q 276 107 281 106 q 268 129 267 115 q 282 149 269 143 m 297 140 l 297 140 q 287 142 292 143 q 278 136 282 142 q 277 133 278 135 q 276 132 276 132 q 280 131 276 132 q 288 131 283 131 q 297 131 293 131 q 301 132 301 132 q 302 134 303 132 q 300 138 301 136 q 297 140 299 139 m 754 149 l 754 149 q 763 150 758 150 q 771 149 767 150 q 783 126 783 143 q 780 113 783 119 q 769 106 776 107 q 758 104 764 103 q 747 110 751 106 q 741 121 743 114 q 740 135 739 128 q 746 143 742 139 q 754 149 750 147 m 769 140 l 769 140 q 751 138 758 146 q 750 118 744 131 q 759 112 753 113 q 771 114 765 111 q 775 128 775 119 q 769 140 775 136 m 828 149 l 828 149 q 840 149 835 151 q 849 142 846 147 q 850 136 850 140 q 850 122 850 132 l 850 106 l 847 106 l 843 106 l 843 121 q 843 132 843 128 q 842 138 843 136 q 840 140 842 139 q 835 142 839 142 q 828 140 832 143 q 823 135 824 139 q 821 119 822 131 l 821 106 l 817 106 l 814 106 l 814 128 l 814 150 l 818 150 q 821 149 821 150 q 819 144 821 147 q 817 142 818 143 q 817 139 817 140 l 817 136 l 818 139 q 823 145 821 143 q 828 149 825 147 m 992 149 l 992 149 q 997 150 994 150 q 1001 150 999 150 q 1015 144 1011 150 q 1018 126 1018 139 q 1018 119 1018 121 q 1018 115 1018 117 q 1019 114 1018 114 q 1022 110 1021 113 q 1022 107 1022 108 q 1019 106 1021 106 q 1013 113 1015 106 l 1010 117 l 1010 114 q 1006 106 1008 108 q 996 104 1003 104 q 985 108 989 104 q 981 118 981 113 q 989 128 982 124 q 994 130 990 129 q 1001 132 997 131 q 1007 133 1004 132 q 1010 133 1010 133 q 1010 135 1010 133 q 1008 138 1010 136 q 1003 142 1007 140 q 996 142 1000 143 q 990 138 992 142 q 988 136 989 136 q 985 136 988 136 q 982 137 982 136 q 983 142 982 138 q 987 146 985 144 q 992 149 989 147 m 1010 124 l 1010 124 q 1008 126 1010 126 q 1003 125 1007 126 q 1001 125 1003 125 q 994 122 997 124 q 991 120 992 121 q 990 119 990 119 q 989 117 989 118 q 997 111 989 111 q 1006 115 1001 111 q 1010 124 1010 119 m 493 132 l 493 132 l 493 150 l 497 150 l 501 150 l 501 133 q 501 122 501 125 q 502 117 501 118 q 503 114 503 115 q 513 113 507 111 q 521 118 518 114 q 522 124 522 121 q 522 136 522 128 l 524 150 l 526 150 l 531 150 l 531 132 q 531 123 531 126 q 531 117 531 119 q 531 115 531 115 q 533 114 532 114 q 535 110 535 113 q 535 107 535 108 q 533 106 535 106 q 528 108 531 106 q 524 114 525 110 q 522 115 522 115 q 521 111 522 114 q 517 106 519 107 q 510 104 515 104 q 494 111 500 104 q 494 118 494 114 q 493 132 493 122 m 196 49 l 196 49 q 199 49 197 49 q 204 50 201 50 l 210 49 l 210 44 l 210 40 l 204 40 q 198 40 200 40 q 194 38 196 39 q 192 33 193 35 q 192 29 192 32 l 192 25 l 197 25 l 204 25 l 204 19 l 204 15 l 194 15 q 188 15 190 15 q 185 14 185 15 q 185 13 185 14 q 188 11 186 13 l 192 8 l 192 -10 l 192 -28 l 186 -28 l 182 -28 l 182 -7 l 182 15 l 178 15 q 176 15 176 15 q 175 17 175 15 q 175 19 175 18 q 176 24 175 22 q 178 25 176 25 q 180 25 179 25 q 181 26 181 25 q 182 31 182 28 q 196 49 183 46 m 575 36 l 575 36 l 575 50 l 579 50 l 585 50 l 585 17 q 585 1 585 7 q 585 -10 585 -6 q 585 -15 585 -14 q 586 -17 586 -17 q 588 -18 588 -18 q 589 -18 589 -18 q 590 -19 590 -18 q 590 -24 590 -21 q 590 -26 590 -25 q 589 -28 589 -28 q 584 -26 588 -28 q 579 -22 581 -25 l 576 -19 l 572 -24 q 549 -28 561 -32 q 536 -12 539 -22 q 537 9 533 -1 q 550 24 540 19 q 553 26 551 25 q 557 26 556 26 q 567 24 561 26 q 575 17 572 21 q 578 18 583 8 q 576 22 576 19 q 576 27 576 24 q 575 36 575 31 m 568 13 l 568 13 q 560 16 565 15 q 551 14 556 17 q 544 -4 544 8 q 547 -10 546 -7 q 547 -14 547 -12 q 557 -19 551 -18 q 568 -17 563 -21 q 575 -2 575 -11 q 568 13 575 7 m 626 44 l 626 44 l 626 50 l 631 50 l 635 49 l 636 44 l 636 39 l 631 39 l 626 39 l 626 44 m 397 32 l 397 32 l 397 39 l 401 39 l 407 39 l 407 32 l 407 25 l 413 25 l 419 25 l 419 19 l 419 15 l 410 15 q 403 15 406 15 q 401 14 401 14 q 402 12 401 13 q 403 11 403 11 q 403 11 403 11 q 406 10 404 11 q 406 6 406 10 q 407 -4 407 3 q 408 -17 407 -15 q 410 -18 408 -18 q 415 -18 413 -18 l 419 -18 l 419 -24 l 419 -28 l 414 -28 q 404 -26 407 -28 q 400 -22 401 -25 q 398 -15 399 -19 q 397 -1 397 -10 l 397 15 l 394 15 q 392 15 393 15 q 391 17 392 15 q 390 19 390 18 q 391 24 390 22 q 392 25 392 25 q 394 25 393 25 l 397 25 l 397 32 m 1051 32 l 1051 32 l 1051 39 l 1056 39 l 1061 39 l 1061 32 l 1061 25 l 1067 25 l 1072 25 l 1072 19 l 1072 15 l 1064 15 q 1056 15 1057 15 q 1058 11 1054 14 q 1060 8 1060 10 q 1060 4 1060 7 q 1061 -4 1061 1 l 1061 -18 l 1068 -18 l 1074 -18 l 1074 -24 l 1074 -29 l 1067 -28 q 1059 -27 1061 -28 q 1056 -24 1057 -26 l 1051 -21 l 1051 -3 l 1051 15 l 1047 15 q 1045 15 1046 15 q 1044 17 1044 15 q 1044 19 1044 18 q 1044 24 1044 22 q 1045 25 1044 25 q 1047 25 1046 25 l 1051 25 l 1051 32 m 249 25 l 249 25 q 260 25 254 26 q 271 19 267 24 l 274 17 l 274 21 q 274 24 274 24 q 278 25 275 25 l 282 25 l 282 -7 q 282 -26 282 -19 q 282 -35 282 -32 q 281 -40 282 -39 q 279 -43 281 -42 q 277 -46 279 -44 q 274 -49 275 -47 q 270 -51 272 -50 q 265 -51 268 -51 q 254 -51 261 -51 l 239 -51 l 239 -47 l 239 -43 l 251 -43 q 261 -42 257 -43 q 267 -42 265 -42 q 274 -29 274 -37 q 274 -26 274 -28 q 276 -22 275 -24 q 274 -19 281 -12 q 261 -28 268 -25 q 247 -28 254 -31 q 240 -22 243 -26 q 235 -12 236 -17 q 233 -2 233 -8 q 235 8 233 4 q 240 18 236 14 q 249 25 243 22 m 265 14 l 265 14 q 259 16 264 15 q 251 15 254 17 q 243 3 244 13 q 246 -14 242 -6 q 258 -20 250 -21 q 271 -11 265 -19 q 272 1 274 -6 q 265 14 271 8 m 331 25 l 331 25 q 336 25 333 25 q 342 25 339 25 q 358 15 354 25 q 360 10 361 11 q 356 8 360 8 q 350 10 350 8 q 347 15 350 13 q 340 17 343 17 q 331 13 333 17 q 332 7 328 8 q 337 5 333 6 q 344 3 340 4 q 358 -3 354 0 q 361 -12 361 -7 q 361 -17 361 -15 q 358 -22 361 -19 q 338 -29 350 -31 q 319 -18 325 -28 q 318 -11 318 -12 q 322 -10 318 -10 q 327 -10 326 -10 q 328 -12 328 -11 q 328 -14 328 -12 q 332 -17 329 -15 q 334 -19 333 -18 q 337 -19 335 -19 q 342 -19 339 -19 q 348 -19 346 -19 q 350 -17 350 -18 q 352 -15 351 -15 q 353 -12 353 -14 q 338 -6 353 -10 q 330 -3 333 -4 q 325 0 326 -1 q 321 5 322 1 q 319 13 319 8 q 324 20 321 17 q 331 25 328 24 m 689 25 l 689 25 q 705 24 697 26 q 718 14 713 21 q 720 7 719 10 q 721 0 721 4 q 713 -24 722 -15 q 689 -28 701 -32 q 672 -10 676 -24 q 671 1 671 -4 q 674 11 671 7 q 681 19 676 15 q 689 25 685 24 m 703 15 l 703 15 q 692 15 697 17 q 683 10 688 14 q 681 1 681 6 q 681 -8 681 -4 q 694 -19 685 -18 q 710 -12 704 -21 q 712 3 714 -6 q 703 15 710 11 m 768 24 l 768 24 q 786 24 778 28 q 793 19 790 22 q 796 14 796 15 q 797 12 796 13 q 797 10 797 11 q 797 9 797 10 q 793 8 796 8 q 789 9 790 8 q 788 11 788 10 q 781 15 786 14 q 770 15 775 17 q 765 10 765 14 q 767 8 765 8 q 772 6 768 7 q 783 1 775 4 q 793 -2 790 0 q 797 -8 796 -4 q 794 -24 800 -18 q 776 -29 788 -29 q 762 -24 768 -29 q 756 -12 756 -19 q 756 -10 756 -11 q 760 -10 757 -10 q 764 -10 763 -10 q 765 -12 765 -11 q 778 -19 767 -19 q 789 -14 786 -19 q 787 -10 789 -11 q 779 -7 785 -8 q 765 -2 769 -4 q 758 3 761 0 q 756 6 757 4 q 757 11 756 8 q 768 24 757 21 m 901 22 l 901 22 q 906 25 904 24 q 910 26 908 26 q 921 22 915 26 q 928 13 926 18 q 928 5 928 11 q 929 -10 929 -1 l 929 -28 l 924 -28 l 919 -28 l 919 -12 q 919 6 919 0 q 915 14 918 13 q 906 15 911 17 q 897 8 900 14 q 895 5 896 7 q 894 -1 894 3 q 894 -11 894 -4 l 893 -28 l 889 -28 l 885 -28 l 885 -1 l 885 25 l 889 25 q 893 24 892 25 q 894 22 894 24 q 893 21 894 22 q 892 18 892 19 q 889 13 889 15 q 889 10 889 10 q 892 15 889 11 q 901 22 896 19 m 983 25 l 983 25 q 996 25 989 26 q 1007 18 1003 24 q 1013 11 1011 15 q 1015 1 1014 7 l 1015 -6 l 994 -6 q 983 -6 988 -6 q 977 -6 979 -6 q 974 -6 975 -6 q 974 -7 974 -7 q 976 -12 974 -10 q 982 -18 979 -15 q 992 -19 986 -21 q 1003 -14 999 -18 q 1004 -12 1003 -12 q 1008 -11 1006 -11 q 1013 -12 1013 -11 q 1011 -18 1014 -14 q 997 -28 1006 -25 q 981 -28 989 -31 q 964 -1 964 -21 q 983 25 965 19 m 997 14 l 997 14 q 990 16 994 15 q 983 15 986 17 q 978 11 981 14 q 975 6 975 8 l 974 3 l 989 3 q 999 3 996 3 q 1003 3 1003 3 q 1004 6 1004 4 q 1002 10 1004 7 q 997 14 1000 13 m 454 6 l 454 6 l 454 25 l 458 25 l 463 25 l 463 6 q 463 -6 463 -1 q 463 -12 463 -10 q 464 -15 464 -14 q 465 -17 464 -15 q 476 -19 469 -21 q 485 -12 482 -18 q 487 -9 486 -11 q 488 -3 488 -7 q 488 8 488 1 l 489 25 l 493 25 l 497 25 l 497 6 l 497 -15 l 500 -17 q 502 -19 501 -18 q 503 -24 503 -21 q 501 -28 503 -28 q 495 -26 499 -28 q 490 -19 492 -24 q 488 -17 489 -17 q 486 -24 486 -18 q 481 -28 485 -26 q 471 -29 476 -29 q 461 -26 465 -29 q 458 -24 460 -25 q 456 -19 457 -22 q 455 -15 456 -18 q 454 -8 454 -12 q 454 6 454 -4 m 626 -1 l 626 -1 l 626 25 l 631 25 l 635 24 l 636 -1 l 636 -28 l 631 -28 l 626 -28 l 626 -1 m 836 -17 l 836 -17 q 838 -15 836 -15 q 842 -15 840 -15 l 847 -15 l 847 -22 l 847 -28 l 842 -28 l 835 -28 l 835 -22 q 835 -18 835 -19 q 836 -17 836 -17 z "},"7":{"ha":1250,"x_min":83,"x_max":1167,"o":"m 328 1032 l 328 1032 q 420 1033 335 1032 q 631 1033 506 1033 l 926 1033 l 942 1031 q 1063 978 1008 1018 q 1085 956 1071 969 q 1107 932 1099 943 q 1160 826 1146 885 q 1161 822 1161 824 q 1164 807 1163 814 q 1166 787 1165 800 q 1167 748 1167 774 q 1167 676 1167 722 q 1167 651 1167 665 q 1167 563 1167 596 q 1167 514 1167 531 q 1165 489 1167 497 q 1163 472 1164 481 q 1085 332 1146 390 q 940 258 1026 274 l 924 256 l 632 256 q 486 254 543 254 q 397 255 429 254 q 347 256 364 256 q 323 256 331 256 q 307 258 315 257 q 307 260 307 258 q 147 351 211 276 q 86 482 100 407 l 83 499 l 83 643 l 83 788 l 86 803 q 163 954 100 892 q 328 1032 231 1021 m 699 774 l 699 774 q 664 772 681 779 q 638 747 647 765 q 635 742 636 744 q 635 736 635 739 q 635 726 635 733 q 635 717 635 721 q 635 712 635 714 q 638 707 636 710 q 660 684 646 692 q 690 679 674 676 q 725 703 714 683 q 729 744 736 722 q 717 762 725 754 q 699 774 708 769 m 854 728 l 854 728 l 854 776 l 842 776 l 829 776 l 829 754 l 828 733 l 815 754 l 801 775 l 789 775 l 775 775 l 775 726 l 775 679 l 789 679 l 803 679 l 803 700 l 803 722 l 817 701 l 831 679 l 843 679 l 854 679 l 854 728 m 228 774 l 228 774 q 222 774 225 774 q 215 775 219 775 q 200 775 210 775 l 179 775 l 179 726 l 179 679 l 192 679 l 206 679 l 206 694 l 206 710 l 215 711 q 224 712 221 711 q 231 714 228 713 q 249 744 250 725 q 228 774 246 765 m 353 763 l 353 763 l 353 775 l 322 775 l 290 775 l 290 726 l 290 679 l 322 679 l 353 679 l 353 692 l 353 704 l 335 704 l 318 704 l 318 708 l 318 714 l 333 714 l 349 714 l 349 726 l 349 739 l 333 739 l 318 739 l 318 744 l 318 749 l 335 749 l 353 749 l 353 763 m 454 771 l 454 771 l 449 775 l 424 775 l 400 775 l 400 728 l 400 679 l 413 679 l 426 679 l 426 694 q 426 706 426 703 q 428 710 426 710 q 432 706 429 710 q 439 694 435 701 l 449 679 l 464 679 q 474 679 469 679 q 479 679 479 679 q 476 685 479 679 q 468 697 472 690 l 457 714 l 461 718 q 465 723 463 721 q 468 728 467 725 q 471 733 471 731 q 471 742 471 736 q 471 751 471 747 q 469 756 471 754 q 454 771 464 765 m 567 774 l 567 774 q 552 775 561 775 q 538 772 543 775 q 515 749 517 765 q 516 738 515 742 q 521 729 517 733 q 549 717 528 721 q 560 714 557 715 q 565 710 564 713 q 565 708 565 708 q 564 706 565 707 q 553 703 560 703 q 543 708 546 704 l 540 711 l 533 710 q 532 710 533 710 q 526 708 529 708 q 521 707 522 707 q 515 704 515 706 q 517 697 514 703 q 541 679 524 683 q 576 683 558 675 q 592 711 594 692 q 558 739 592 733 q 544 749 538 743 q 553 751 547 751 q 561 747 558 751 l 564 744 l 578 747 q 585 749 582 749 q 588 749 588 749 q 590 751 589 750 q 589 753 590 751 q 581 765 588 760 q 567 774 575 771 m 957 768 l 957 768 l 954 775 l 939 775 l 925 775 l 910 728 q 899 694 904 708 q 894 679 894 681 q 899 679 894 679 q 908 679 903 679 l 922 679 l 924 685 l 925 690 l 940 689 l 954 689 l 956 683 l 957 679 l 971 679 q 982 679 979 679 q 985 681 985 679 q 982 688 985 681 q 971 722 978 700 q 963 749 967 736 q 957 767 958 761 q 957 768 957 768 m 1050 740 l 1050 740 l 1050 775 l 1038 775 l 1024 775 l 1024 726 l 1024 679 l 1051 679 l 1079 679 l 1079 692 l 1079 704 l 1065 704 l 1050 704 l 1050 740 m 685 607 l 685 607 q 643 596 661 611 q 627 552 624 576 q 654 515 631 528 q 660 512 658 513 q 666 511 663 511 q 676 511 669 511 q 685 511 682 511 q 691 512 689 511 q 697 515 693 513 q 711 525 704 518 q 721 538 718 532 q 725 568 728 553 q 710 594 721 583 q 685 607 699 604 m 849 560 l 849 560 l 849 608 l 835 608 q 822 607 821 608 q 821 600 821 606 q 821 586 821 594 l 821 567 l 808 586 l 794 607 l 782 607 l 769 607 l 769 558 l 769 511 l 783 511 l 796 511 l 796 532 l 797 554 l 811 532 l 824 511 l 836 511 l 849 511 l 849 560 m 231 578 l 231 578 l 231 607 l 217 607 l 204 607 l 204 572 l 204 538 l 208 532 q 217 520 211 525 q 229 513 222 515 q 243 511 235 511 q 258 513 251 511 q 272 522 265 515 q 279 535 278 528 q 281 541 281 538 q 282 551 282 544 q 282 574 282 558 l 282 607 l 269 607 l 256 607 l 256 578 q 256 553 256 561 q 254 543 256 546 q 250 538 253 540 q 242 536 246 536 q 235 539 239 536 q 232 544 233 540 q 231 554 231 547 q 231 578 231 561 m 381 606 l 381 606 q 366 607 375 607 q 350 606 357 607 q 340 600 344 604 q 332 592 335 596 q 328 588 329 590 q 328 581 328 585 q 329 569 328 572 q 335 561 331 565 q 345 554 339 557 q 363 549 351 551 q 378 542 378 546 q 373 536 378 538 q 363 535 368 535 q 356 540 358 536 l 353 543 l 340 540 q 331 538 335 539 q 326 538 328 538 q 327 534 326 536 q 330 528 328 532 q 333 522 332 525 q 363 511 343 511 q 400 525 389 510 q 403 531 403 528 q 404 536 404 533 q 375 571 407 564 q 358 576 361 574 q 357 582 354 578 q 360 583 358 583 q 365 583 363 583 q 371 583 369 583 q 374 579 372 582 l 376 576 l 389 579 q 398 581 394 581 q 401 582 401 582 q 402 585 403 583 q 400 589 401 586 q 381 606 393 601 m 511 594 l 511 594 l 511 607 l 481 607 l 449 607 l 449 558 l 449 511 l 481 511 l 511 511 l 511 524 l 511 536 l 493 536 l 476 536 l 476 542 l 476 546 l 492 546 l 507 546 l 507 558 l 507 571 l 492 571 l 476 571 l 476 576 l 476 582 l 493 582 l 511 582 l 511 594 m 922 572 l 922 572 l 922 607 l 910 607 l 896 607 l 896 558 l 896 511 l 924 511 l 951 511 l 951 524 l 951 536 l 936 536 l 922 536 l 922 572 m 1001 594 l 1001 594 l 994 607 l 979 607 l 963 607 l 965 604 q 971 594 967 601 q 982 576 975 586 l 996 551 l 996 531 l 996 511 l 1008 511 l 1022 511 l 1022 531 l 1022 551 l 1036 576 q 1048 595 1043 588 q 1053 604 1053 603 l 1054 607 l 1039 607 l 1024 607 l 1017 594 q 1012 585 1014 589 q 1008 582 1010 582 q 1006 585 1008 582 q 1001 594 1004 589 m 674 749 l 674 749 q 699 743 689 754 q 703 717 708 732 q 681 704 694 703 q 661 721 667 706 q 663 737 660 729 q 674 749 667 744 m 206 742 l 206 742 l 206 749 l 213 749 q 219 748 218 749 q 221 743 221 747 q 219 738 221 739 q 213 735 217 736 l 206 735 l 206 742 m 426 742 l 426 742 l 426 749 l 435 749 q 443 748 442 749 q 444 742 444 747 q 433 735 444 735 l 426 735 l 426 742 m 938 729 l 938 729 q 939 736 938 733 q 940 738 940 739 q 942 732 940 738 q 943 726 943 729 l 947 714 l 940 714 l 933 714 l 933 718 q 934 721 933 718 q 936 728 935 724 q 938 729 936 729 m 667 581 l 667 581 q 685 580 676 585 q 697 565 694 575 q 693 544 700 553 q 675 536 686 536 q 657 547 664 536 q 655 567 651 557 q 667 581 658 576 m 194 169 l 194 169 q 212 171 203 172 q 226 165 221 169 q 231 161 229 164 q 235 156 233 158 q 236 151 236 153 q 235 151 236 151 q 232 150 235 150 q 229 151 231 150 q 226 154 228 151 q 209 163 221 163 q 190 156 197 164 q 183 135 182 149 q 193 115 185 121 q 214 113 201 110 q 225 120 221 115 q 229 129 229 125 l 229 132 l 219 132 l 210 132 l 210 136 l 210 140 l 224 140 l 236 140 l 236 122 l 236 106 l 233 106 q 229 107 229 106 q 232 114 229 108 q 233 117 233 117 q 232 118 233 118 q 231 117 232 118 q 228 114 229 115 q 207 104 221 104 q 179 121 189 104 q 177 125 178 124 q 176 129 176 126 q 176 138 176 132 q 176 146 176 143 q 177 150 176 149 q 179 154 178 151 q 194 169 185 165 m 451 168 l 451 168 q 461 171 454 171 l 468 171 l 468 167 l 468 163 l 463 163 q 457 162 458 163 q 454 160 456 161 q 453 156 454 158 q 453 153 453 154 l 453 150 l 458 150 l 464 150 l 464 146 l 464 142 l 457 142 q 451 142 453 142 q 447 140 449 142 q 448 140 447 140 q 450 138 449 139 q 452 135 451 136 q 453 131 453 133 q 453 119 453 128 l 453 106 l 449 106 l 444 106 l 444 124 l 444 142 l 442 142 q 440 142 440 142 q 439 146 439 143 q 440 149 439 149 q 442 150 440 150 q 444 151 444 150 q 444 154 444 151 q 451 168 444 163 m 565 138 l 565 138 l 565 171 l 569 171 l 574 171 l 574 138 l 574 106 l 569 106 l 565 106 l 565 138 m 604 138 l 604 138 l 604 171 l 608 171 l 613 171 l 613 138 l 613 106 l 608 106 l 604 106 l 604 138 m 704 168 l 704 168 q 713 171 707 171 l 719 171 l 719 167 l 719 163 l 714 163 q 709 162 711 163 q 707 160 707 161 q 705 156 706 158 q 704 153 704 154 l 704 150 l 710 150 l 717 150 l 717 146 l 717 142 l 708 142 q 702 142 704 142 q 700 140 700 142 q 699 140 699 140 q 701 138 700 139 q 703 135 703 136 q 704 131 704 133 q 704 119 704 128 l 704 106 l 700 106 l 696 106 l 696 124 l 696 142 l 694 142 q 692 142 692 142 q 692 146 692 143 q 692 149 692 149 q 694 150 692 150 q 696 151 696 150 q 696 154 696 151 q 704 168 696 163 m 342 156 l 342 156 l 342 161 l 346 161 l 350 161 l 350 156 l 350 150 l 356 150 l 360 150 l 360 146 l 360 142 l 353 142 q 347 138 340 142 q 349 136 349 138 q 349 133 349 135 q 350 125 350 131 l 350 114 l 356 113 l 361 113 l 361 108 l 361 106 l 354 106 q 349 106 350 106 q 344 108 347 106 l 342 111 l 342 126 l 342 142 l 339 142 q 335 142 336 142 q 335 146 335 143 q 335 149 335 149 q 339 150 336 150 q 341 150 340 150 q 342 151 342 150 q 342 156 342 153 m 883 156 l 883 156 l 883 161 l 888 161 l 890 161 l 890 156 l 890 150 l 896 150 l 901 150 l 901 146 l 901 142 l 894 142 q 888 142 889 142 q 886 140 886 142 q 887 140 886 140 q 889 138 888 139 q 890 137 889 138 q 890 134 890 136 q 890 128 890 132 q 892 115 890 118 q 897 113 893 113 q 901 113 900 113 q 903 112 903 113 q 903 108 903 111 l 903 106 l 897 106 q 891 106 893 106 q 888 108 889 106 l 883 111 l 883 126 l 883 142 l 881 142 q 878 142 879 142 q 878 146 878 143 q 878 149 878 149 q 881 150 879 150 q 883 150 882 150 q 883 151 883 150 q 883 156 883 153 m 1050 156 l 1050 156 l 1050 161 l 1054 161 l 1058 161 l 1058 156 l 1058 150 l 1063 150 l 1068 150 l 1068 146 l 1068 142 l 1061 142 q 1055 142 1057 142 q 1053 140 1053 142 q 1053 140 1053 140 q 1056 138 1054 139 q 1057 137 1057 138 q 1058 134 1057 136 q 1058 128 1058 132 q 1059 115 1058 118 q 1065 113 1060 113 q 1068 113 1067 113 q 1069 112 1069 113 q 1069 108 1069 111 l 1069 106 l 1064 106 q 1058 106 1060 106 q 1054 108 1056 106 l 1050 111 l 1050 126 l 1050 142 l 1047 142 q 1045 142 1046 142 q 1044 146 1044 143 q 1045 149 1044 149 q 1047 150 1046 150 q 1049 150 1049 150 q 1050 151 1050 150 q 1050 156 1050 153 m 282 149 l 282 149 q 301 147 293 153 q 311 129 310 140 l 311 125 l 293 125 q 280 124 283 125 q 276 122 276 124 q 278 118 275 121 q 287 112 281 113 q 299 115 293 111 q 303 119 301 118 q 308 119 306 119 q 310 118 310 119 q 307 114 310 117 q 301 108 304 111 q 297 106 299 106 q 286 105 292 104 q 276 107 281 106 q 268 129 267 115 q 282 149 269 143 m 297 140 l 297 140 q 287 142 292 143 q 278 136 282 142 q 277 133 278 135 q 276 132 276 132 q 280 131 276 132 q 288 131 283 131 q 297 131 293 131 q 301 132 301 132 q 302 134 303 132 q 300 138 301 136 q 297 140 299 139 m 754 149 l 754 149 q 763 150 758 150 q 771 149 767 150 q 783 126 783 143 q 780 113 783 119 q 769 106 776 107 q 758 104 764 103 q 747 110 751 106 q 741 121 743 114 q 740 135 739 128 q 746 143 742 139 q 754 149 750 147 m 769 140 l 769 140 q 751 138 758 146 q 750 118 744 131 q 759 112 753 113 q 771 114 765 111 q 775 128 775 119 q 769 140 775 136 m 828 149 l 828 149 q 840 149 835 151 q 849 142 846 147 q 850 136 850 140 q 850 122 850 132 l 850 106 l 847 106 l 843 106 l 843 121 q 843 132 843 128 q 842 138 843 136 q 840 140 842 139 q 835 142 839 142 q 828 140 832 143 q 823 135 824 139 q 821 119 822 131 l 821 106 l 817 106 l 814 106 l 814 128 l 814 150 l 818 150 q 821 149 821 150 q 819 144 821 147 q 817 142 818 143 q 817 139 817 140 l 817 136 l 818 139 q 823 145 821 143 q 828 149 825 147 m 992 149 l 992 149 q 997 150 994 150 q 1001 150 999 150 q 1015 144 1011 150 q 1018 126 1018 139 q 1018 119 1018 121 q 1018 115 1018 117 q 1019 114 1018 114 q 1022 110 1021 113 q 1022 107 1022 108 q 1019 106 1021 106 q 1013 113 1015 106 l 1010 117 l 1010 114 q 1006 106 1008 108 q 996 104 1003 104 q 985 108 989 104 q 981 118 981 113 q 989 128 982 124 q 994 130 990 129 q 1001 132 997 131 q 1007 133 1004 132 q 1010 133 1010 133 q 1010 135 1010 133 q 1008 138 1010 136 q 1003 142 1007 140 q 996 142 1000 143 q 990 138 992 142 q 988 136 989 136 q 985 136 988 136 q 982 137 982 136 q 983 142 982 138 q 987 146 985 144 q 992 149 989 147 m 1010 124 l 1010 124 q 1008 126 1010 126 q 1003 125 1007 126 q 1001 125 1003 125 q 994 122 997 124 q 991 120 992 121 q 990 119 990 119 q 989 117 989 118 q 997 111 989 111 q 1006 115 1001 111 q 1010 124 1010 119 m 493 132 l 493 132 l 493 150 l 497 150 l 501 150 l 501 133 q 501 122 501 125 q 502 117 501 118 q 503 114 503 115 q 513 113 507 111 q 521 118 518 114 q 522 124 522 121 q 522 136 522 128 l 524 150 l 526 150 l 531 150 l 531 132 q 531 123 531 126 q 531 117 531 119 q 531 115 531 115 q 533 114 532 114 q 535 110 535 113 q 535 107 535 108 q 533 106 535 106 q 528 108 531 106 q 524 114 525 110 q 522 115 522 115 q 521 111 522 114 q 517 106 519 107 q 510 104 515 104 q 494 111 500 104 q 494 118 494 114 q 493 132 493 122 m 196 49 l 196 49 q 199 49 197 49 q 204 50 201 50 l 210 49 l 210 44 l 210 40 l 204 40 q 198 40 200 40 q 194 38 196 39 q 192 33 193 35 q 192 29 192 32 l 192 25 l 197 25 l 204 25 l 204 19 l 204 15 l 194 15 q 188 15 190 15 q 185 14 185 15 q 185 13 185 14 q 188 11 186 13 l 192 8 l 192 -10 l 192 -28 l 186 -28 l 182 -28 l 182 -7 l 182 15 l 178 15 q 176 15 176 15 q 175 17 175 15 q 175 19 175 18 q 176 24 175 22 q 178 25 176 25 q 180 25 179 25 q 181 26 181 25 q 182 31 182 28 q 196 49 183 46 m 575 36 l 575 36 l 575 50 l 579 50 l 585 50 l 585 17 q 585 1 585 7 q 585 -10 585 -6 q 585 -15 585 -14 q 586 -17 586 -17 q 588 -18 588 -18 q 589 -18 589 -18 q 590 -19 590 -18 q 590 -24 590 -21 q 590 -26 590 -25 q 589 -28 589 -28 q 584 -26 588 -28 q 579 -22 581 -25 l 576 -19 l 572 -24 q 549 -28 561 -32 q 536 -12 539 -22 q 537 9 533 -1 q 550 24 540 19 q 553 26 551 25 q 557 26 556 26 q 567 24 561 26 q 575 17 572 21 q 578 18 583 8 q 576 22 576 19 q 576 27 576 24 q 575 36 575 31 m 568 13 l 568 13 q 560 16 565 15 q 551 14 556 17 q 544 -4 544 8 q 547 -10 546 -7 q 547 -14 547 -12 q 557 -19 551 -18 q 568 -17 563 -21 q 575 -2 575 -11 q 568 13 575 7 m 626 44 l 626 44 l 626 50 l 631 50 l 635 49 l 636 44 l 636 39 l 631 39 l 626 39 l 626 44 m 397 32 l 397 32 l 397 39 l 401 39 l 407 39 l 407 32 l 407 25 l 413 25 l 419 25 l 419 19 l 419 15 l 410 15 q 403 15 406 15 q 401 14 401 14 q 402 12 401 13 q 403 11 403 11 q 403 11 403 11 q 406 10 404 11 q 406 6 406 10 q 407 -4 407 3 q 408 -17 407 -15 q 410 -18 408 -18 q 415 -18 413 -18 l 419 -18 l 419 -24 l 419 -28 l 414 -28 q 404 -26 407 -28 q 400 -22 401 -25 q 398 -15 399 -19 q 397 -1 397 -10 l 397 15 l 394 15 q 392 15 393 15 q 391 17 392 15 q 390 19 390 18 q 391 24 390 22 q 392 25 392 25 q 394 25 393 25 l 397 25 l 397 32 m 1051 32 l 1051 32 l 1051 39 l 1056 39 l 1061 39 l 1061 32 l 1061 25 l 1067 25 l 1072 25 l 1072 19 l 1072 15 l 1064 15 q 1056 15 1057 15 q 1058 11 1054 14 q 1060 8 1060 10 q 1060 4 1060 7 q 1061 -4 1061 1 l 1061 -18 l 1068 -18 l 1074 -18 l 1074 -24 l 1074 -29 l 1067 -28 q 1059 -27 1061 -28 q 1056 -24 1057 -26 l 1051 -21 l 1051 -3 l 1051 15 l 1047 15 q 1045 15 1046 15 q 1044 17 1044 15 q 1044 19 1044 18 q 1044 24 1044 22 q 1045 25 1044 25 q 1047 25 1046 25 l 1051 25 l 1051 32 m 249 25 l 249 25 q 260 25 254 26 q 271 19 267 24 l 274 17 l 274 21 q 274 24 274 24 q 278 25 275 25 l 282 25 l 282 -7 q 282 -26 282 -19 q 282 -35 282 -32 q 281 -40 282 -39 q 279 -43 281 -42 q 277 -46 279 -44 q 274 -49 275 -47 q 270 -51 272 -50 q 265 -51 268 -51 q 254 -51 261 -51 l 239 -51 l 239 -47 l 239 -43 l 251 -43 q 261 -42 257 -43 q 267 -42 265 -42 q 274 -29 274 -37 q 274 -26 274 -28 q 276 -22 275 -24 q 274 -19 281 -12 q 261 -28 268 -25 q 247 -28 254 -31 q 240 -22 243 -26 q 235 -12 236 -17 q 233 -2 233 -8 q 235 8 233 4 q 240 18 236 14 q 249 25 243 22 m 265 14 l 265 14 q 259 16 264 15 q 251 15 254 17 q 243 3 244 13 q 246 -14 242 -6 q 258 -20 250 -21 q 271 -11 265 -19 q 272 1 274 -6 q 265 14 271 8 m 331 25 l 331 25 q 336 25 333 25 q 342 25 339 25 q 358 15 354 25 q 360 10 361 11 q 356 8 360 8 q 350 10 350 8 q 347 15 350 13 q 340 17 343 17 q 331 13 333 17 q 332 7 328 8 q 337 5 333 6 q 344 3 340 4 q 358 -3 354 0 q 361 -12 361 -7 q 361 -17 361 -15 q 358 -22 361 -19 q 338 -29 350 -31 q 319 -18 325 -28 q 318 -11 318 -12 q 322 -10 318 -10 q 327 -10 326 -10 q 328 -12 328 -11 q 328 -14 328 -12 q 332 -17 329 -15 q 334 -19 333 -18 q 337 -19 335 -19 q 342 -19 339 -19 q 348 -19 346 -19 q 350 -17 350 -18 q 352 -15 351 -15 q 353 -12 353 -14 q 338 -6 353 -10 q 330 -3 333 -4 q 325 0 326 -1 q 321 5 322 1 q 319 13 319 8 q 324 20 321 17 q 331 25 328 24 m 689 25 l 689 25 q 705 24 697 26 q 718 14 713 21 q 720 7 719 10 q 721 0 721 4 q 713 -24 722 -15 q 689 -28 701 -32 q 672 -10 676 -24 q 671 1 671 -4 q 674 11 671 7 q 681 19 676 15 q 689 25 685 24 m 703 15 l 703 15 q 692 15 697 17 q 683 10 688 14 q 681 1 681 6 q 681 -8 681 -4 q 694 -19 685 -18 q 710 -12 704 -21 q 712 3 714 -6 q 703 15 710 11 m 768 24 l 768 24 q 786 24 778 28 q 793 19 790 22 q 796 14 796 15 q 797 12 796 13 q 797 10 797 11 q 797 9 797 10 q 793 8 796 8 q 789 9 790 8 q 788 11 788 10 q 781 15 786 14 q 770 15 775 17 q 765 10 765 14 q 767 8 765 8 q 772 6 768 7 q 783 1 775 4 q 793 -2 790 0 q 797 -8 796 -4 q 794 -24 800 -18 q 776 -29 788 -29 q 762 -24 768 -29 q 756 -12 756 -19 q 756 -10 756 -11 q 760 -10 757 -10 q 764 -10 763 -10 q 765 -12 765 -11 q 778 -19 767 -19 q 789 -14 786 -19 q 787 -10 789 -11 q 779 -7 785 -8 q 765 -2 769 -4 q 758 3 761 0 q 756 6 757 4 q 757 11 756 8 q 768 24 757 21 m 901 22 l 901 22 q 906 25 904 24 q 910 26 908 26 q 921 22 915 26 q 928 13 926 18 q 928 5 928 11 q 929 -10 929 -1 l 929 -28 l 924 -28 l 919 -28 l 919 -12 q 919 6 919 0 q 915 14 918 13 q 906 15 911 17 q 897 8 900 14 q 895 5 896 7 q 894 -1 894 3 q 894 -11 894 -4 l 893 -28 l 889 -28 l 885 -28 l 885 -1 l 885 25 l 889 25 q 893 24 892 25 q 894 22 894 24 q 893 21 894 22 q 892 18 892 19 q 889 13 889 15 q 889 10 889 10 q 892 15 889 11 q 901 22 896 19 m 983 25 l 983 25 q 996 25 989 26 q 1007 18 1003 24 q 1013 11 1011 15 q 1015 1 1014 7 l 1015 -6 l 994 -6 q 983 -6 988 -6 q 977 -6 979 -6 q 974 -6 975 -6 q 974 -7 974 -7 q 976 -12 974 -10 q 982 -18 979 -15 q 992 -19 986 -21 q 1003 -14 999 -18 q 1004 -12 1003 -12 q 1008 -11 1006 -11 q 1013 -12 1013 -11 q 1011 -18 1014 -14 q 997 -28 1006 -25 q 981 -28 989 -31 q 964 -1 964 -21 q 983 25 965 19 m 997 14 l 997 14 q 990 16 994 15 q 983 15 986 17 q 978 11 981 14 q 975 6 975 8 l 974 3 l 989 3 q 999 3 996 3 q 1003 3 1003 3 q 1004 6 1004 4 q 1002 10 1004 7 q 997 14 1000 13 m 454 6 l 454 6 l 454 25 l 458 25 l 463 25 l 463 6 q 463 -6 463 -1 q 463 -12 463 -10 q 464 -15 464 -14 q 465 -17 464 -15 q 476 -19 469 -21 q 485 -12 482 -18 q 487 -9 486 -11 q 488 -3 488 -7 q 488 8 488 1 l 489 25 l 493 25 l 497 25 l 497 6 l 497 -15 l 500 -17 q 502 -19 501 -18 q 503 -24 503 -21 q 501 -28 503 -28 q 495 -26 499 -28 q 490 -19 492 -24 q 488 -17 489 -17 q 486 -24 486 -18 q 481 -28 485 -26 q 471 -29 476 -29 q 461 -26 465 -29 q 458 -24 460 -25 q 456 -19 457 -22 q 455 -15 456 -18 q 454 -8 454 -12 q 454 6 454 -4 m 626 -1 l 626 -1 l 626 25 l 631 25 l 635 24 l 636 -1 l 636 -28 l 631 -28 l 626 -28 l 626 -1 m 836 -17 l 836 -17 q 838 -15 836 -15 q 842 -15 840 -15 l 847 -15 l 847 -22 l 847 -28 l 842 -28 l 835 -28 l 835 -22 q 835 -18 835 -19 q 836 -17 836 -17 z "},"8":{"ha":1250,"x_min":83,"x_max":1167,"o":"m 328 1032 l 328 1032 q 420 1033 335 1032 q 631 1033 506 1033 l 926 1033 l 942 1031 q 1063 978 1008 1018 q 1085 956 1071 969 q 1107 932 1099 943 q 1160 826 1146 885 q 1161 822 1161 824 q 1164 807 1163 814 q 1166 787 1165 800 q 1167 748 1167 774 q 1167 676 1167 722 q 1167 651 1167 665 q 1167 563 1167 596 q 1167 514 1167 531 q 1165 489 1167 497 q 1163 472 1164 481 q 1085 332 1146 390 q 940 258 1026 274 l 924 256 l 632 256 q 486 254 543 254 q 397 255 429 254 q 347 256 364 256 q 323 256 331 256 q 307 258 315 257 q 307 260 307 258 q 147 351 211 276 q 86 482 100 407 l 83 499 l 83 643 l 83 788 l 86 803 q 163 954 100 892 q 328 1032 231 1021 m 699 774 l 699 774 q 664 772 681 779 q 638 747 647 765 q 635 742 636 744 q 635 736 635 739 q 635 726 635 733 q 635 717 635 721 q 635 712 635 714 q 638 707 636 710 q 660 684 646 692 q 690 679 674 676 q 725 703 714 683 q 729 744 736 722 q 717 762 725 754 q 699 774 708 769 m 854 728 l 854 728 l 854 776 l 842 776 l 829 776 l 829 754 l 828 733 l 815 754 l 801 775 l 789 775 l 775 775 l 775 726 l 775 679 l 789 679 l 803 679 l 803 700 l 803 722 l 817 701 l 831 679 l 843 679 l 854 679 l 854 728 m 228 774 l 228 774 q 222 774 225 774 q 215 775 219 775 q 200 775 210 775 l 179 775 l 179 726 l 179 679 l 192 679 l 206 679 l 206 694 l 206 710 l 215 711 q 224 712 221 711 q 231 714 228 713 q 249 744 250 725 q 228 774 246 765 m 353 763 l 353 763 l 353 775 l 322 775 l 290 775 l 290 726 l 290 679 l 322 679 l 353 679 l 353 692 l 353 704 l 335 704 l 318 704 l 318 708 l 318 714 l 333 714 l 349 714 l 349 726 l 349 739 l 333 739 l 318 739 l 318 744 l 318 749 l 335 749 l 353 749 l 353 763 m 454 771 l 454 771 l 449 775 l 424 775 l 400 775 l 400 728 l 400 679 l 413 679 l 426 679 l 426 694 q 426 706 426 703 q 428 710 426 710 q 432 706 429 710 q 439 694 435 701 l 449 679 l 464 679 q 474 679 469 679 q 479 679 479 679 q 476 685 479 679 q 468 697 472 690 l 457 714 l 461 718 q 465 723 463 721 q 468 728 467 725 q 471 733 471 731 q 471 742 471 736 q 471 751 471 747 q 469 756 471 754 q 454 771 464 765 m 567 774 l 567 774 q 552 775 561 775 q 538 772 543 775 q 515 749 517 765 q 516 738 515 742 q 521 729 517 733 q 549 717 528 721 q 560 714 557 715 q 565 710 564 713 q 565 708 565 708 q 564 706 565 707 q 553 703 560 703 q 543 708 546 704 l 540 711 l 533 710 q 532 710 533 710 q 526 708 529 708 q 521 707 522 707 q 515 704 515 706 q 517 697 514 703 q 541 679 524 683 q 576 683 558 675 q 592 711 594 692 q 558 739 592 733 q 544 749 538 743 q 553 751 547 751 q 561 747 558 751 l 564 744 l 578 747 q 585 749 582 749 q 588 749 588 749 q 590 751 589 750 q 589 753 590 751 q 581 765 588 760 q 567 774 575 771 m 957 768 l 957 768 l 954 775 l 939 775 l 925 775 l 910 728 q 899 694 904 708 q 894 679 894 681 q 899 679 894 679 q 908 679 903 679 l 922 679 l 924 685 l 925 690 l 940 689 l 954 689 l 956 683 l 957 679 l 971 679 q 982 679 979 679 q 985 681 985 679 q 982 688 985 681 q 971 722 978 700 q 963 749 967 736 q 957 767 958 761 q 957 768 957 768 m 1050 740 l 1050 740 l 1050 775 l 1038 775 l 1024 775 l 1024 726 l 1024 679 l 1051 679 l 1079 679 l 1079 692 l 1079 704 l 1065 704 l 1050 704 l 1050 740 m 685 607 l 685 607 q 643 596 661 611 q 627 552 624 576 q 654 515 631 528 q 660 512 658 513 q 666 511 663 511 q 676 511 669 511 q 685 511 682 511 q 691 512 689 511 q 697 515 693 513 q 711 525 704 518 q 721 538 718 532 q 725 568 728 553 q 710 594 721 583 q 685 607 699 604 m 849 560 l 849 560 l 849 608 l 835 608 q 822 607 821 608 q 821 600 821 606 q 821 586 821 594 l 821 567 l 808 586 l 794 607 l 782 607 l 769 607 l 769 558 l 769 511 l 783 511 l 796 511 l 796 532 l 797 554 l 811 532 l 824 511 l 836 511 l 849 511 l 849 560 m 231 578 l 231 578 l 231 607 l 217 607 l 204 607 l 204 572 l 204 538 l 208 532 q 217 520 211 525 q 229 513 222 515 q 243 511 235 511 q 258 513 251 511 q 272 522 265 515 q 279 535 278 528 q 281 541 281 538 q 282 551 282 544 q 282 574 282 558 l 282 607 l 269 607 l 256 607 l 256 578 q 256 553 256 561 q 254 543 256 546 q 250 538 253 540 q 242 536 246 536 q 235 539 239 536 q 232 544 233 540 q 231 554 231 547 q 231 578 231 561 m 381 606 l 381 606 q 366 607 375 607 q 350 606 357 607 q 340 600 344 604 q 332 592 335 596 q 328 588 329 590 q 328 581 328 585 q 329 569 328 572 q 335 561 331 565 q 345 554 339 557 q 363 549 351 551 q 378 542 378 546 q 373 536 378 538 q 363 535 368 535 q 356 540 358 536 l 353 543 l 340 540 q 331 538 335 539 q 326 538 328 538 q 327 534 326 536 q 330 528 328 532 q 333 522 332 525 q 363 511 343 511 q 400 525 389 510 q 403 531 403 528 q 404 536 404 533 q 375 571 407 564 q 358 576 361 574 q 357 582 354 578 q 360 583 358 583 q 365 583 363 583 q 371 583 369 583 q 374 579 372 582 l 376 576 l 389 579 q 398 581 394 581 q 401 582 401 582 q 402 585 403 583 q 400 589 401 586 q 381 606 393 601 m 511 594 l 511 594 l 511 607 l 481 607 l 449 607 l 449 558 l 449 511 l 481 511 l 511 511 l 511 524 l 511 536 l 493 536 l 476 536 l 476 542 l 476 546 l 492 546 l 507 546 l 507 558 l 507 571 l 492 571 l 476 571 l 476 576 l 476 582 l 493 582 l 511 582 l 511 594 m 922 572 l 922 572 l 922 607 l 910 607 l 896 607 l 896 558 l 896 511 l 924 511 l 951 511 l 951 524 l 951 536 l 936 536 l 922 536 l 922 572 m 1001 594 l 1001 594 l 994 607 l 979 607 l 963 607 l 965 604 q 971 594 967 601 q 982 576 975 586 l 996 551 l 996 531 l 996 511 l 1008 511 l 1022 511 l 1022 531 l 1022 551 l 1036 576 q 1048 595 1043 588 q 1053 604 1053 603 l 1054 607 l 1039 607 l 1024 607 l 1017 594 q 1012 585 1014 589 q 1008 582 1010 582 q 1006 585 1008 582 q 1001 594 1004 589 m 674 749 l 674 749 q 699 743 689 754 q 703 717 708 732 q 681 704 694 703 q 661 721 667 706 q 663 737 660 729 q 674 749 667 744 m 206 742 l 206 742 l 206 749 l 213 749 q 219 748 218 749 q 221 743 221 747 q 219 738 221 739 q 213 735 217 736 l 206 735 l 206 742 m 426 742 l 426 742 l 426 749 l 435 749 q 443 748 442 749 q 444 742 444 747 q 433 735 444 735 l 426 735 l 426 742 m 938 729 l 938 729 q 939 736 938 733 q 940 738 940 739 q 942 732 940 738 q 943 726 943 729 l 947 714 l 940 714 l 933 714 l 933 718 q 934 721 933 718 q 936 728 935 724 q 938 729 936 729 m 667 581 l 667 581 q 685 580 676 585 q 697 565 694 575 q 693 544 700 553 q 675 536 686 536 q 657 547 664 536 q 655 567 651 557 q 667 581 658 576 m 194 169 l 194 169 q 212 171 203 172 q 226 165 221 169 q 231 161 229 164 q 235 156 233 158 q 236 151 236 153 q 235 151 236 151 q 232 150 235 150 q 229 151 231 150 q 226 154 228 151 q 209 163 221 163 q 190 156 197 164 q 183 135 182 149 q 193 115 185 121 q 214 113 201 110 q 225 120 221 115 q 229 129 229 125 l 229 132 l 219 132 l 210 132 l 210 136 l 210 140 l 224 140 l 236 140 l 236 122 l 236 106 l 233 106 q 229 107 229 106 q 232 114 229 108 q 233 117 233 117 q 232 118 233 118 q 231 117 232 118 q 228 114 229 115 q 207 104 221 104 q 179 121 189 104 q 177 125 178 124 q 176 129 176 126 q 176 138 176 132 q 176 146 176 143 q 177 150 176 149 q 179 154 178 151 q 194 169 185 165 m 451 168 l 451 168 q 461 171 454 171 l 468 171 l 468 167 l 468 163 l 463 163 q 457 162 458 163 q 454 160 456 161 q 453 156 454 158 q 453 153 453 154 l 453 150 l 458 150 l 464 150 l 464 146 l 464 142 l 457 142 q 451 142 453 142 q 447 140 449 142 q 448 140 447 140 q 450 138 449 139 q 452 135 451 136 q 453 131 453 133 q 453 119 453 128 l 453 106 l 449 106 l 444 106 l 444 124 l 444 142 l 442 142 q 440 142 440 142 q 439 146 439 143 q 440 149 439 149 q 442 150 440 150 q 444 151 444 150 q 444 154 444 151 q 451 168 444 163 m 565 138 l 565 138 l 565 171 l 569 171 l 574 171 l 574 138 l 574 106 l 569 106 l 565 106 l 565 138 m 604 138 l 604 138 l 604 171 l 608 171 l 613 171 l 613 138 l 613 106 l 608 106 l 604 106 l 604 138 m 704 168 l 704 168 q 713 171 707 171 l 719 171 l 719 167 l 719 163 l 714 163 q 709 162 711 163 q 707 160 707 161 q 705 156 706 158 q 704 153 704 154 l 704 150 l 710 150 l 717 150 l 717 146 l 717 142 l 708 142 q 702 142 704 142 q 700 140 700 142 q 699 140 699 140 q 701 138 700 139 q 703 135 703 136 q 704 131 704 133 q 704 119 704 128 l 704 106 l 700 106 l 696 106 l 696 124 l 696 142 l 694 142 q 692 142 692 142 q 692 146 692 143 q 692 149 692 149 q 694 150 692 150 q 696 151 696 150 q 696 154 696 151 q 704 168 696 163 m 342 156 l 342 156 l 342 161 l 346 161 l 350 161 l 350 156 l 350 150 l 356 150 l 360 150 l 360 146 l 360 142 l 353 142 q 347 138 340 142 q 349 136 349 138 q 349 133 349 135 q 350 125 350 131 l 350 114 l 356 113 l 361 113 l 361 108 l 361 106 l 354 106 q 349 106 350 106 q 344 108 347 106 l 342 111 l 342 126 l 342 142 l 339 142 q 335 142 336 142 q 335 146 335 143 q 335 149 335 149 q 339 150 336 150 q 341 150 340 150 q 342 151 342 150 q 342 156 342 153 m 883 156 l 883 156 l 883 161 l 888 161 l 890 161 l 890 156 l 890 150 l 896 150 l 901 150 l 901 146 l 901 142 l 894 142 q 888 142 889 142 q 886 140 886 142 q 887 140 886 140 q 889 138 888 139 q 890 137 889 138 q 890 134 890 136 q 890 128 890 132 q 892 115 890 118 q 897 113 893 113 q 901 113 900 113 q 903 112 903 113 q 903 108 903 111 l 903 106 l 897 106 q 891 106 893 106 q 888 108 889 106 l 883 111 l 883 126 l 883 142 l 881 142 q 878 142 879 142 q 878 146 878 143 q 878 149 878 149 q 881 150 879 150 q 883 150 882 150 q 883 151 883 150 q 883 156 883 153 m 1050 156 l 1050 156 l 1050 161 l 1054 161 l 1058 161 l 1058 156 l 1058 150 l 1063 150 l 1068 150 l 1068 146 l 1068 142 l 1061 142 q 1055 142 1057 142 q 1053 140 1053 142 q 1053 140 1053 140 q 1056 138 1054 139 q 1057 137 1057 138 q 1058 134 1057 136 q 1058 128 1058 132 q 1059 115 1058 118 q 1065 113 1060 113 q 1068 113 1067 113 q 1069 112 1069 113 q 1069 108 1069 111 l 1069 106 l 1064 106 q 1058 106 1060 106 q 1054 108 1056 106 l 1050 111 l 1050 126 l 1050 142 l 1047 142 q 1045 142 1046 142 q 1044 146 1044 143 q 1045 149 1044 149 q 1047 150 1046 150 q 1049 150 1049 150 q 1050 151 1050 150 q 1050 156 1050 153 m 282 149 l 282 149 q 301 147 293 153 q 311 129 310 140 l 311 125 l 293 125 q 280 124 283 125 q 276 122 276 124 q 278 118 275 121 q 287 112 281 113 q 299 115 293 111 q 303 119 301 118 q 308 119 306 119 q 310 118 310 119 q 307 114 310 117 q 301 108 304 111 q 297 106 299 106 q 286 105 292 104 q 276 107 281 106 q 268 129 267 115 q 282 149 269 143 m 297 140 l 297 140 q 287 142 292 143 q 278 136 282 142 q 277 133 278 135 q 276 132 276 132 q 280 131 276 132 q 288 131 283 131 q 297 131 293 131 q 301 132 301 132 q 302 134 303 132 q 300 138 301 136 q 297 140 299 139 m 754 149 l 754 149 q 763 150 758 150 q 771 149 767 150 q 783 126 783 143 q 780 113 783 119 q 769 106 776 107 q 758 104 764 103 q 747 110 751 106 q 741 121 743 114 q 740 135 739 128 q 746 143 742 139 q 754 149 750 147 m 769 140 l 769 140 q 751 138 758 146 q 750 118 744 131 q 759 112 753 113 q 771 114 765 111 q 775 128 775 119 q 769 140 775 136 m 828 149 l 828 149 q 840 149 835 151 q 849 142 846 147 q 850 136 850 140 q 850 122 850 132 l 850 106 l 847 106 l 843 106 l 843 121 q 843 132 843 128 q 842 138 843 136 q 840 140 842 139 q 835 142 839 142 q 828 140 832 143 q 823 135 824 139 q 821 119 822 131 l 821 106 l 817 106 l 814 106 l 814 128 l 814 150 l 818 150 q 821 149 821 150 q 819 144 821 147 q 817 142 818 143 q 817 139 817 140 l 817 136 l 818 139 q 823 145 821 143 q 828 149 825 147 m 992 149 l 992 149 q 997 150 994 150 q 1001 150 999 150 q 1015 144 1011 150 q 1018 126 1018 139 q 1018 119 1018 121 q 1018 115 1018 117 q 1019 114 1018 114 q 1022 110 1021 113 q 1022 107 1022 108 q 1019 106 1021 106 q 1013 113 1015 106 l 1010 117 l 1010 114 q 1006 106 1008 108 q 996 104 1003 104 q 985 108 989 104 q 981 118 981 113 q 989 128 982 124 q 994 130 990 129 q 1001 132 997 131 q 1007 133 1004 132 q 1010 133 1010 133 q 1010 135 1010 133 q 1008 138 1010 136 q 1003 142 1007 140 q 996 142 1000 143 q 990 138 992 142 q 988 136 989 136 q 985 136 988 136 q 982 137 982 136 q 983 142 982 138 q 987 146 985 144 q 992 149 989 147 m 1010 124 l 1010 124 q 1008 126 1010 126 q 1003 125 1007 126 q 1001 125 1003 125 q 994 122 997 124 q 991 120 992 121 q 990 119 990 119 q 989 117 989 118 q 997 111 989 111 q 1006 115 1001 111 q 1010 124 1010 119 m 493 132 l 493 132 l 493 150 l 497 150 l 501 150 l 501 133 q 501 122 501 125 q 502 117 501 118 q 503 114 503 115 q 513 113 507 111 q 521 118 518 114 q 522 124 522 121 q 522 136 522 128 l 524 150 l 526 150 l 531 150 l 531 132 q 531 123 531 126 q 531 117 531 119 q 531 115 531 115 q 533 114 532 114 q 535 110 535 113 q 535 107 535 108 q 533 106 535 106 q 528 108 531 106 q 524 114 525 110 q 522 115 522 115 q 521 111 522 114 q 517 106 519 107 q 510 104 515 104 q 494 111 500 104 q 494 118 494 114 q 493 132 493 122 m 196 49 l 196 49 q 199 49 197 49 q 204 50 201 50 l 210 49 l 210 44 l 210 40 l 204 40 q 198 40 200 40 q 194 38 196 39 q 192 33 193 35 q 192 29 192 32 l 192 25 l 197 25 l 204 25 l 204 19 l 204 15 l 194 15 q 188 15 190 15 q 185 14 185 15 q 185 13 185 14 q 188 11 186 13 l 192 8 l 192 -10 l 192 -28 l 186 -28 l 182 -28 l 182 -7 l 182 15 l 178 15 q 176 15 176 15 q 175 17 175 15 q 175 19 175 18 q 176 24 175 22 q 178 25 176 25 q 180 25 179 25 q 181 26 181 25 q 182 31 182 28 q 196 49 183 46 m 575 36 l 575 36 l 575 50 l 579 50 l 585 50 l 585 17 q 585 1 585 7 q 585 -10 585 -6 q 585 -15 585 -14 q 586 -17 586 -17 q 588 -18 588 -18 q 589 -18 589 -18 q 590 -19 590 -18 q 590 -24 590 -21 q 590 -26 590 -25 q 589 -28 589 -28 q 584 -26 588 -28 q 579 -22 581 -25 l 576 -19 l 572 -24 q 549 -28 561 -32 q 536 -12 539 -22 q 537 9 533 -1 q 550 24 540 19 q 553 26 551 25 q 557 26 556 26 q 567 24 561 26 q 575 17 572 21 q 578 18 583 8 q 576 22 576 19 q 576 27 576 24 q 575 36 575 31 m 568 13 l 568 13 q 560 16 565 15 q 551 14 556 17 q 544 -4 544 8 q 547 -10 546 -7 q 547 -14 547 -12 q 557 -19 551 -18 q 568 -17 563 -21 q 575 -2 575 -11 q 568 13 575 7 m 626 44 l 626 44 l 626 50 l 631 50 l 635 49 l 636 44 l 636 39 l 631 39 l 626 39 l 626 44 m 397 32 l 397 32 l 397 39 l 401 39 l 407 39 l 407 32 l 407 25 l 413 25 l 419 25 l 419 19 l 419 15 l 410 15 q 403 15 406 15 q 401 14 401 14 q 402 12 401 13 q 403 11 403 11 q 403 11 403 11 q 406 10 404 11 q 406 6 406 10 q 407 -4 407 3 q 408 -17 407 -15 q 410 -18 408 -18 q 415 -18 413 -18 l 419 -18 l 419 -24 l 419 -28 l 414 -28 q 404 -26 407 -28 q 400 -22 401 -25 q 398 -15 399 -19 q 397 -1 397 -10 l 397 15 l 394 15 q 392 15 393 15 q 391 17 392 15 q 390 19 390 18 q 391 24 390 22 q 392 25 392 25 q 394 25 393 25 l 397 25 l 397 32 m 1051 32 l 1051 32 l 1051 39 l 1056 39 l 1061 39 l 1061 32 l 1061 25 l 1067 25 l 1072 25 l 1072 19 l 1072 15 l 1064 15 q 1056 15 1057 15 q 1058 11 1054 14 q 1060 8 1060 10 q 1060 4 1060 7 q 1061 -4 1061 1 l 1061 -18 l 1068 -18 l 1074 -18 l 1074 -24 l 1074 -29 l 1067 -28 q 1059 -27 1061 -28 q 1056 -24 1057 -26 l 1051 -21 l 1051 -3 l 1051 15 l 1047 15 q 1045 15 1046 15 q 1044 17 1044 15 q 1044 19 1044 18 q 1044 24 1044 22 q 1045 25 1044 25 q 1047 25 1046 25 l 1051 25 l 1051 32 m 249 25 l 249 25 q 260 25 254 26 q 271 19 267 24 l 274 17 l 274 21 q 274 24 274 24 q 278 25 275 25 l 282 25 l 282 -7 q 282 -26 282 -19 q 282 -35 282 -32 q 281 -40 282 -39 q 279 -43 281 -42 q 277 -46 279 -44 q 274 -49 275 -47 q 270 -51 272 -50 q 265 -51 268 -51 q 254 -51 261 -51 l 239 -51 l 239 -47 l 239 -43 l 251 -43 q 261 -42 257 -43 q 267 -42 265 -42 q 274 -29 274 -37 q 274 -26 274 -28 q 276 -22 275 -24 q 274 -19 281 -12 q 261 -28 268 -25 q 247 -28 254 -31 q 240 -22 243 -26 q 235 -12 236 -17 q 233 -2 233 -8 q 235 8 233 4 q 240 18 236 14 q 249 25 243 22 m 265 14 l 265 14 q 259 16 264 15 q 251 15 254 17 q 243 3 244 13 q 246 -14 242 -6 q 258 -20 250 -21 q 271 -11 265 -19 q 272 1 274 -6 q 265 14 271 8 m 331 25 l 331 25 q 336 25 333 25 q 342 25 339 25 q 358 15 354 25 q 360 10 361 11 q 356 8 360 8 q 350 10 350 8 q 347 15 350 13 q 340 17 343 17 q 331 13 333 17 q 332 7 328 8 q 337 5 333 6 q 344 3 340 4 q 358 -3 354 0 q 361 -12 361 -7 q 361 -17 361 -15 q 358 -22 361 -19 q 338 -29 350 -31 q 319 -18 325 -28 q 318 -11 318 -12 q 322 -10 318 -10 q 327 -10 326 -10 q 328 -12 328 -11 q 328 -14 328 -12 q 332 -17 329 -15 q 334 -19 333 -18 q 337 -19 335 -19 q 342 -19 339 -19 q 348 -19 346 -19 q 350 -17 350 -18 q 352 -15 351 -15 q 353 -12 353 -14 q 338 -6 353 -10 q 330 -3 333 -4 q 325 0 326 -1 q 321 5 322 1 q 319 13 319 8 q 324 20 321 17 q 331 25 328 24 m 689 25 l 689 25 q 705 24 697 26 q 718 14 713 21 q 720 7 719 10 q 721 0 721 4 q 713 -24 722 -15 q 689 -28 701 -32 q 672 -10 676 -24 q 671 1 671 -4 q 674 11 671 7 q 681 19 676 15 q 689 25 685 24 m 703 15 l 703 15 q 692 15 697 17 q 683 10 688 14 q 681 1 681 6 q 681 -8 681 -4 q 694 -19 685 -18 q 710 -12 704 -21 q 712 3 714 -6 q 703 15 710 11 m 768 24 l 768 24 q 786 24 778 28 q 793 19 790 22 q 796 14 796 15 q 797 12 796 13 q 797 10 797 11 q 797 9 797 10 q 793 8 796 8 q 789 9 790 8 q 788 11 788 10 q 781 15 786 14 q 770 15 775 17 q 765 10 765 14 q 767 8 765 8 q 772 6 768 7 q 783 1 775 4 q 793 -2 790 0 q 797 -8 796 -4 q 794 -24 800 -18 q 776 -29 788 -29 q 762 -24 768 -29 q 756 -12 756 -19 q 756 -10 756 -11 q 760 -10 757 -10 q 764 -10 763 -10 q 765 -12 765 -11 q 778 -19 767 -19 q 789 -14 786 -19 q 787 -10 789 -11 q 779 -7 785 -8 q 765 -2 769 -4 q 758 3 761 0 q 756 6 757 4 q 757 11 756 8 q 768 24 757 21 m 901 22 l 901 22 q 906 25 904 24 q 910 26 908 26 q 921 22 915 26 q 928 13 926 18 q 928 5 928 11 q 929 -10 929 -1 l 929 -28 l 924 -28 l 919 -28 l 919 -12 q 919 6 919 0 q 915 14 918 13 q 906 15 911 17 q 897 8 900 14 q 895 5 896 7 q 894 -1 894 3 q 894 -11 894 -4 l 893 -28 l 889 -28 l 885 -28 l 885 -1 l 885 25 l 889 25 q 893 24 892 25 q 894 22 894 24 q 893 21 894 22 q 892 18 892 19 q 889 13 889 15 q 889 10 889 10 q 892 15 889 11 q 901 22 896 19 m 983 25 l 983 25 q 996 25 989 26 q 1007 18 1003 24 q 1013 11 1011 15 q 1015 1 1014 7 l 1015 -6 l 994 -6 q 983 -6 988 -6 q 977 -6 979 -6 q 974 -6 975 -6 q 974 -7 974 -7 q 976 -12 974 -10 q 982 -18 979 -15 q 992 -19 986 -21 q 1003 -14 999 -18 q 1004 -12 1003 -12 q 1008 -11 1006 -11 q 1013 -12 1013 -11 q 1011 -18 1014 -14 q 997 -28 1006 -25 q 981 -28 989 -31 q 964 -1 964 -21 q 983 25 965 19 m 997 14 l 997 14 q 990 16 994 15 q 983 15 986 17 q 978 11 981 14 q 975 6 975 8 l 974 3 l 989 3 q 999 3 996 3 q 1003 3 1003 3 q 1004 6 1004 4 q 1002 10 1004 7 q 997 14 1000 13 m 454 6 l 454 6 l 454 25 l 458 25 l 463 25 l 463 6 q 463 -6 463 -1 q 463 -12 463 -10 q 464 -15 464 -14 q 465 -17 464 -15 q 476 -19 469 -21 q 485 -12 482 -18 q 487 -9 486 -11 q 488 -3 488 -7 q 488 8 488 1 l 489 25 l 493 25 l 497 25 l 497 6 l 497 -15 l 500 -17 q 502 -19 501 -18 q 503 -24 503 -21 q 501 -28 503 -28 q 495 -26 499 -28 q 490 -19 492 -24 q 488 -17 489 -17 q 486 -24 486 -18 q 481 -28 485 -26 q 471 -29 476 -29 q 461 -26 465 -29 q 458 -24 460 -25 q 456 -19 457 -22 q 455 -15 456 -18 q 454 -8 454 -12 q 454 6 454 -4 m 626 -1 l 626 -1 l 626 25 l 631 25 l 635 24 l 636 -1 l 636 -28 l 631 -28 l 626 -28 l 626 -1 m 836 -17 l 836 -17 q 838 -15 836 -15 q 842 -15 840 -15 l 847 -15 l 847 -22 l 847 -28 l 842 -28 l 835 -28 l 835 -22 q 835 -18 835 -19 q 836 -17 836 -17 z "},"9":{"ha":1250,"x_min":83,"x_max":1167,"o":"m 328 1032 l 328 1032 q 420 1033 335 1032 q 631 1033 506 1033 l 926 1033 l 942 1031 q 1063 978 1008 1018 q 1085 956 1071 969 q 1107 932 1099 943 q 1160 826 1146 885 q 1161 822 1161 824 q 1164 807 1163 814 q 1166 787 1165 800 q 1167 748 1167 774 q 1167 676 1167 722 q 1167 651 1167 665 q 1167 563 1167 596 q 1167 514 1167 531 q 1165 489 1167 497 q 1163 472 1164 481 q 1085 332 1146 390 q 940 258 1026 274 l 924 256 l 632 256 q 486 254 543 254 q 397 255 429 254 q 347 256 364 256 q 323 256 331 256 q 307 258 315 257 q 307 260 307 258 q 147 351 211 276 q 86 482 100 407 l 83 499 l 83 643 l 83 788 l 86 803 q 163 954 100 892 q 328 1032 231 1021 m 699 774 l 699 774 q 664 772 681 779 q 638 747 647 765 q 635 742 636 744 q 635 736 635 739 q 635 726 635 733 q 635 717 635 721 q 635 712 635 714 q 638 707 636 710 q 660 684 646 692 q 690 679 674 676 q 725 703 714 683 q 729 744 736 722 q 717 762 725 754 q 699 774 708 769 m 854 728 l 854 728 l 854 776 l 842 776 l 829 776 l 829 754 l 828 733 l 815 754 l 801 775 l 789 775 l 775 775 l 775 726 l 775 679 l 789 679 l 803 679 l 803 700 l 803 722 l 817 701 l 831 679 l 843 679 l 854 679 l 854 728 m 228 774 l 228 774 q 222 774 225 774 q 215 775 219 775 q 200 775 210 775 l 179 775 l 179 726 l 179 679 l 192 679 l 206 679 l 206 694 l 206 710 l 215 711 q 224 712 221 711 q 231 714 228 713 q 249 744 250 725 q 228 774 246 765 m 353 763 l 353 763 l 353 775 l 322 775 l 290 775 l 290 726 l 290 679 l 322 679 l 353 679 l 353 692 l 353 704 l 335 704 l 318 704 l 318 708 l 318 714 l 333 714 l 349 714 l 349 726 l 349 739 l 333 739 l 318 739 l 318 744 l 318 749 l 335 749 l 353 749 l 353 763 m 454 771 l 454 771 l 449 775 l 424 775 l 400 775 l 400 728 l 400 679 l 413 679 l 426 679 l 426 694 q 426 706 426 703 q 428 710 426 710 q 432 706 429 710 q 439 694 435 701 l 449 679 l 464 679 q 474 679 469 679 q 479 679 479 679 q 476 685 479 679 q 468 697 472 690 l 457 714 l 461 718 q 465 723 463 721 q 468 728 467 725 q 471 733 471 731 q 471 742 471 736 q 471 751 471 747 q 469 756 471 754 q 454 771 464 765 m 567 774 l 567 774 q 552 775 561 775 q 538 772 543 775 q 515 749 517 765 q 516 738 515 742 q 521 729 517 733 q 549 717 528 721 q 560 714 557 715 q 565 710 564 713 q 565 708 565 708 q 564 706 565 707 q 553 703 560 703 q 543 708 546 704 l 540 711 l 533 710 q 532 710 533 710 q 526 708 529 708 q 521 707 522 707 q 515 704 515 706 q 517 697 514 703 q 541 679 524 683 q 576 683 558 675 q 592 711 594 692 q 558 739 592 733 q 544 749 538 743 q 553 751 547 751 q 561 747 558 751 l 564 744 l 578 747 q 585 749 582 749 q 588 749 588 749 q 590 751 589 750 q 589 753 590 751 q 581 765 588 760 q 567 774 575 771 m 957 768 l 957 768 l 954 775 l 939 775 l 925 775 l 910 728 q 899 694 904 708 q 894 679 894 681 q 899 679 894 679 q 908 679 903 679 l 922 679 l 924 685 l 925 690 l 940 689 l 954 689 l 956 683 l 957 679 l 971 679 q 982 679 979 679 q 985 681 985 679 q 982 688 985 681 q 971 722 978 700 q 963 749 967 736 q 957 767 958 761 q 957 768 957 768 m 1050 740 l 1050 740 l 1050 775 l 1038 775 l 1024 775 l 1024 726 l 1024 679 l 1051 679 l 1079 679 l 1079 692 l 1079 704 l 1065 704 l 1050 704 l 1050 740 m 685 607 l 685 607 q 643 596 661 611 q 627 552 624 576 q 654 515 631 528 q 660 512 658 513 q 666 511 663 511 q 676 511 669 511 q 685 511 682 511 q 691 512 689 511 q 697 515 693 513 q 711 525 704 518 q 721 538 718 532 q 725 568 728 553 q 710 594 721 583 q 685 607 699 604 m 849 560 l 849 560 l 849 608 l 835 608 q 822 607 821 608 q 821 600 821 606 q 821 586 821 594 l 821 567 l 808 586 l 794 607 l 782 607 l 769 607 l 769 558 l 769 511 l 783 511 l 796 511 l 796 532 l 797 554 l 811 532 l 824 511 l 836 511 l 849 511 l 849 560 m 231 578 l 231 578 l 231 607 l 217 607 l 204 607 l 204 572 l 204 538 l 208 532 q 217 520 211 525 q 229 513 222 515 q 243 511 235 511 q 258 513 251 511 q 272 522 265 515 q 279 535 278 528 q 281 541 281 538 q 282 551 282 544 q 282 574 282 558 l 282 607 l 269 607 l 256 607 l 256 578 q 256 553 256 561 q 254 543 256 546 q 250 538 253 540 q 242 536 246 536 q 235 539 239 536 q 232 544 233 540 q 231 554 231 547 q 231 578 231 561 m 381 606 l 381 606 q 366 607 375 607 q 350 606 357 607 q 340 600 344 604 q 332 592 335 596 q 328 588 329 590 q 328 581 328 585 q 329 569 328 572 q 335 561 331 565 q 345 554 339 557 q 363 549 351 551 q 378 542 378 546 q 373 536 378 538 q 363 535 368 535 q 356 540 358 536 l 353 543 l 340 540 q 331 538 335 539 q 326 538 328 538 q 327 534 326 536 q 330 528 328 532 q 333 522 332 525 q 363 511 343 511 q 400 525 389 510 q 403 531 403 528 q 404 536 404 533 q 375 571 407 564 q 358 576 361 574 q 357 582 354 578 q 360 583 358 583 q 365 583 363 583 q 371 583 369 583 q 374 579 372 582 l 376 576 l 389 579 q 398 581 394 581 q 401 582 401 582 q 402 585 403 583 q 400 589 401 586 q 381 606 393 601 m 511 594 l 511 594 l 511 607 l 481 607 l 449 607 l 449 558 l 449 511 l 481 511 l 511 511 l 511 524 l 511 536 l 493 536 l 476 536 l 476 542 l 476 546 l 492 546 l 507 546 l 507 558 l 507 571 l 492 571 l 476 571 l 476 576 l 476 582 l 493 582 l 511 582 l 511 594 m 922 572 l 922 572 l 922 607 l 910 607 l 896 607 l 896 558 l 896 511 l 924 511 l 951 511 l 951 524 l 951 536 l 936 536 l 922 536 l 922 572 m 1001 594 l 1001 594 l 994 607 l 979 607 l 963 607 l 965 604 q 971 594 967 601 q 982 576 975 586 l 996 551 l 996 531 l 996 511 l 1008 511 l 1022 511 l 1022 531 l 1022 551 l 1036 576 q 1048 595 1043 588 q 1053 604 1053 603 l 1054 607 l 1039 607 l 1024 607 l 1017 594 q 1012 585 1014 589 q 1008 582 1010 582 q 1006 585 1008 582 q 1001 594 1004 589 m 674 749 l 674 749 q 699 743 689 754 q 703 717 708 732 q 681 704 694 703 q 661 721 667 706 q 663 737 660 729 q 674 749 667 744 m 206 742 l 206 742 l 206 749 l 213 749 q 219 748 218 749 q 221 743 221 747 q 219 738 221 739 q 213 735 217 736 l 206 735 l 206 742 m 426 742 l 426 742 l 426 749 l 435 749 q 443 748 442 749 q 444 742 444 747 q 433 735 444 735 l 426 735 l 426 742 m 938 729 l 938 729 q 939 736 938 733 q 940 738 940 739 q 942 732 940 738 q 943 726 943 729 l 947 714 l 940 714 l 933 714 l 933 718 q 934 721 933 718 q 936 728 935 724 q 938 729 936 729 m 667 581 l 667 581 q 685 580 676 585 q 697 565 694 575 q 693 544 700 553 q 675 536 686 536 q 657 547 664 536 q 655 567 651 557 q 667 581 658 576 m 194 169 l 194 169 q 212 171 203 172 q 226 165 221 169 q 231 161 229 164 q 235 156 233 158 q 236 151 236 153 q 235 151 236 151 q 232 150 235 150 q 229 151 231 150 q 226 154 228 151 q 209 163 221 163 q 190 156 197 164 q 183 135 182 149 q 193 115 185 121 q 214 113 201 110 q 225 120 221 115 q 229 129 229 125 l 229 132 l 219 132 l 210 132 l 210 136 l 210 140 l 224 140 l 236 140 l 236 122 l 236 106 l 233 106 q 229 107 229 106 q 232 114 229 108 q 233 117 233 117 q 232 118 233 118 q 231 117 232 118 q 228 114 229 115 q 207 104 221 104 q 179 121 189 104 q 177 125 178 124 q 176 129 176 126 q 176 138 176 132 q 176 146 176 143 q 177 150 176 149 q 179 154 178 151 q 194 169 185 165 m 451 168 l 451 168 q 461 171 454 171 l 468 171 l 468 167 l 468 163 l 463 163 q 457 162 458 163 q 454 160 456 161 q 453 156 454 158 q 453 153 453 154 l 453 150 l 458 150 l 464 150 l 464 146 l 464 142 l 457 142 q 451 142 453 142 q 447 140 449 142 q 448 140 447 140 q 450 138 449 139 q 452 135 451 136 q 453 131 453 133 q 453 119 453 128 l 453 106 l 449 106 l 444 106 l 444 124 l 444 142 l 442 142 q 440 142 440 142 q 439 146 439 143 q 440 149 439 149 q 442 150 440 150 q 444 151 444 150 q 444 154 444 151 q 451 168 444 163 m 565 138 l 565 138 l 565 171 l 569 171 l 574 171 l 574 138 l 574 106 l 569 106 l 565 106 l 565 138 m 604 138 l 604 138 l 604 171 l 608 171 l 613 171 l 613 138 l 613 106 l 608 106 l 604 106 l 604 138 m 704 168 l 704 168 q 713 171 707 171 l 719 171 l 719 167 l 719 163 l 714 163 q 709 162 711 163 q 707 160 707 161 q 705 156 706 158 q 704 153 704 154 l 704 150 l 710 150 l 717 150 l 717 146 l 717 142 l 708 142 q 702 142 704 142 q 700 140 700 142 q 699 140 699 140 q 701 138 700 139 q 703 135 703 136 q 704 131 704 133 q 704 119 704 128 l 704 106 l 700 106 l 696 106 l 696 124 l 696 142 l 694 142 q 692 142 692 142 q 692 146 692 143 q 692 149 692 149 q 694 150 692 150 q 696 151 696 150 q 696 154 696 151 q 704 168 696 163 m 342 156 l 342 156 l 342 161 l 346 161 l 350 161 l 350 156 l 350 150 l 356 150 l 360 150 l 360 146 l 360 142 l 353 142 q 347 138 340 142 q 349 136 349 138 q 349 133 349 135 q 350 125 350 131 l 350 114 l 356 113 l 361 113 l 361 108 l 361 106 l 354 106 q 349 106 350 106 q 344 108 347 106 l 342 111 l 342 126 l 342 142 l 339 142 q 335 142 336 142 q 335 146 335 143 q 335 149 335 149 q 339 150 336 150 q 341 150 340 150 q 342 151 342 150 q 342 156 342 153 m 883 156 l 883 156 l 883 161 l 888 161 l 890 161 l 890 156 l 890 150 l 896 150 l 901 150 l 901 146 l 901 142 l 894 142 q 888 142 889 142 q 886 140 886 142 q 887 140 886 140 q 889 138 888 139 q 890 137 889 138 q 890 134 890 136 q 890 128 890 132 q 892 115 890 118 q 897 113 893 113 q 901 113 900 113 q 903 112 903 113 q 903 108 903 111 l 903 106 l 897 106 q 891 106 893 106 q 888 108 889 106 l 883 111 l 883 126 l 883 142 l 881 142 q 878 142 879 142 q 878 146 878 143 q 878 149 878 149 q 881 150 879 150 q 883 150 882 150 q 883 151 883 150 q 883 156 883 153 m 1050 156 l 1050 156 l 1050 161 l 1054 161 l 1058 161 l 1058 156 l 1058 150 l 1063 150 l 1068 150 l 1068 146 l 1068 142 l 1061 142 q 1055 142 1057 142 q 1053 140 1053 142 q 1053 140 1053 140 q 1056 138 1054 139 q 1057 137 1057 138 q 1058 134 1057 136 q 1058 128 1058 132 q 1059 115 1058 118 q 1065 113 1060 113 q 1068 113 1067 113 q 1069 112 1069 113 q 1069 108 1069 111 l 1069 106 l 1064 106 q 1058 106 1060 106 q 1054 108 1056 106 l 1050 111 l 1050 126 l 1050 142 l 1047 142 q 1045 142 1046 142 q 1044 146 1044 143 q 1045 149 1044 149 q 1047 150 1046 150 q 1049 150 1049 150 q 1050 151 1050 150 q 1050 156 1050 153 m 282 149 l 282 149 q 301 147 293 153 q 311 129 310 140 l 311 125 l 293 125 q 280 124 283 125 q 276 122 276 124 q 278 118 275 121 q 287 112 281 113 q 299 115 293 111 q 303 119 301 118 q 308 119 306 119 q 310 118 310 119 q 307 114 310 117 q 301 108 304 111 q 297 106 299 106 q 286 105 292 104 q 276 107 281 106 q 268 129 267 115 q 282 149 269 143 m 297 140 l 297 140 q 287 142 292 143 q 278 136 282 142 q 277 133 278 135 q 276 132 276 132 q 280 131 276 132 q 288 131 283 131 q 297 131 293 131 q 301 132 301 132 q 302 134 303 132 q 300 138 301 136 q 297 140 299 139 m 754 149 l 754 149 q 763 150 758 150 q 771 149 767 150 q 783 126 783 143 q 780 113 783 119 q 769 106 776 107 q 758 104 764 103 q 747 110 751 106 q 741 121 743 114 q 740 135 739 128 q 746 143 742 139 q 754 149 750 147 m 769 140 l 769 140 q 751 138 758 146 q 750 118 744 131 q 759 112 753 113 q 771 114 765 111 q 775 128 775 119 q 769 140 775 136 m 828 149 l 828 149 q 840 149 835 151 q 849 142 846 147 q 850 136 850 140 q 850 122 850 132 l 850 106 l 847 106 l 843 106 l 843 121 q 843 132 843 128 q 842 138 843 136 q 840 140 842 139 q 835 142 839 142 q 828 140 832 143 q 823 135 824 139 q 821 119 822 131 l 821 106 l 817 106 l 814 106 l 814 128 l 814 150 l 818 150 q 821 149 821 150 q 819 144 821 147 q 817 142 818 143 q 817 139 817 140 l 817 136 l 818 139 q 823 145 821 143 q 828 149 825 147 m 992 149 l 992 149 q 997 150 994 150 q 1001 150 999 150 q 1015 144 1011 150 q 1018 126 1018 139 q 1018 119 1018 121 q 1018 115 1018 117 q 1019 114 1018 114 q 1022 110 1021 113 q 1022 107 1022 108 q 1019 106 1021 106 q 1013 113 1015 106 l 1010 117 l 1010 114 q 1006 106 1008 108 q 996 104 1003 104 q 985 108 989 104 q 981 118 981 113 q 989 128 982 124 q 994 130 990 129 q 1001 132 997 131 q 1007 133 1004 132 q 1010 133 1010 133 q 1010 135 1010 133 q 1008 138 1010 136 q 1003 142 1007 140 q 996 142 1000 143 q 990 138 992 142 q 988 136 989 136 q 985 136 988 136 q 982 137 982 136 q 983 142 982 138 q 987 146 985 144 q 992 149 989 147 m 1010 124 l 1010 124 q 1008 126 1010 126 q 1003 125 1007 126 q 1001 125 1003 125 q 994 122 997 124 q 991 120 992 121 q 990 119 990 119 q 989 117 989 118 q 997 111 989 111 q 1006 115 1001 111 q 1010 124 1010 119 m 493 132 l 493 132 l 493 150 l 497 150 l 501 150 l 501 133 q 501 122 501 125 q 502 117 501 118 q 503 114 503 115 q 513 113 507 111 q 521 118 518 114 q 522 124 522 121 q 522 136 522 128 l 524 150 l 526 150 l 531 150 l 531 132 q 531 123 531 126 q 531 117 531 119 q 531 115 531 115 q 533 114 532 114 q 535 110 535 113 q 535 107 535 108 q 533 106 535 106 q 528 108 531 106 q 524 114 525 110 q 522 115 522 115 q 521 111 522 114 q 517 106 519 107 q 510 104 515 104 q 494 111 500 104 q 494 118 494 114 q 493 132 493 122 m 196 49 l 196 49 q 199 49 197 49 q 204 50 201 50 l 210 49 l 210 44 l 210 40 l 204 40 q 198 40 200 40 q 194 38 196 39 q 192 33 193 35 q 192 29 192 32 l 192 25 l 197 25 l 204 25 l 204 19 l 204 15 l 194 15 q 188 15 190 15 q 185 14 185 15 q 185 13 185 14 q 188 11 186 13 l 192 8 l 192 -10 l 192 -28 l 186 -28 l 182 -28 l 182 -7 l 182 15 l 178 15 q 176 15 176 15 q 175 17 175 15 q 175 19 175 18 q 176 24 175 22 q 178 25 176 25 q 180 25 179 25 q 181 26 181 25 q 182 31 182 28 q 196 49 183 46 m 575 36 l 575 36 l 575 50 l 579 50 l 585 50 l 585 17 q 585 1 585 7 q 585 -10 585 -6 q 585 -15 585 -14 q 586 -17 586 -17 q 588 -18 588 -18 q 589 -18 589 -18 q 590 -19 590 -18 q 590 -24 590 -21 q 590 -26 590 -25 q 589 -28 589 -28 q 584 -26 588 -28 q 579 -22 581 -25 l 576 -19 l 572 -24 q 549 -28 561 -32 q 536 -12 539 -22 q 537 9 533 -1 q 550 24 540 19 q 553 26 551 25 q 557 26 556 26 q 567 24 561 26 q 575 17 572 21 q 578 18 583 8 q 576 22 576 19 q 576 27 576 24 q 575 36 575 31 m 568 13 l 568 13 q 560 16 565 15 q 551 14 556 17 q 544 -4 544 8 q 547 -10 546 -7 q 547 -14 547 -12 q 557 -19 551 -18 q 568 -17 563 -21 q 575 -2 575 -11 q 568 13 575 7 m 626 44 l 626 44 l 626 50 l 631 50 l 635 49 l 636 44 l 636 39 l 631 39 l 626 39 l 626 44 m 397 32 l 397 32 l 397 39 l 401 39 l 407 39 l 407 32 l 407 25 l 413 25 l 419 25 l 419 19 l 419 15 l 410 15 q 403 15 406 15 q 401 14 401 14 q 402 12 401 13 q 403 11 403 11 q 403 11 403 11 q 406 10 404 11 q 406 6 406 10 q 407 -4 407 3 q 408 -17 407 -15 q 410 -18 408 -18 q 415 -18 413 -18 l 419 -18 l 419 -24 l 419 -28 l 414 -28 q 404 -26 407 -28 q 400 -22 401 -25 q 398 -15 399 -19 q 397 -1 397 -10 l 397 15 l 394 15 q 392 15 393 15 q 391 17 392 15 q 390 19 390 18 q 391 24 390 22 q 392 25 392 25 q 394 25 393 25 l 397 25 l 397 32 m 1051 32 l 1051 32 l 1051 39 l 1056 39 l 1061 39 l 1061 32 l 1061 25 l 1067 25 l 1072 25 l 1072 19 l 1072 15 l 1064 15 q 1056 15 1057 15 q 1058 11 1054 14 q 1060 8 1060 10 q 1060 4 1060 7 q 1061 -4 1061 1 l 1061 -18 l 1068 -18 l 1074 -18 l 1074 -24 l 1074 -29 l 1067 -28 q 1059 -27 1061 -28 q 1056 -24 1057 -26 l 1051 -21 l 1051 -3 l 1051 15 l 1047 15 q 1045 15 1046 15 q 1044 17 1044 15 q 1044 19 1044 18 q 1044 24 1044 22 q 1045 25 1044 25 q 1047 25 1046 25 l 1051 25 l 1051 32 m 249 25 l 249 25 q 260 25 254 26 q 271 19 267 24 l 274 17 l 274 21 q 274 24 274 24 q 278 25 275 25 l 282 25 l 282 -7 q 282 -26 282 -19 q 282 -35 282 -32 q 281 -40 282 -39 q 279 -43 281 -42 q 277 -46 279 -44 q 274 -49 275 -47 q 270 -51 272 -50 q 265 -51 268 -51 q 254 -51 261 -51 l 239 -51 l 239 -47 l 239 -43 l 251 -43 q 261 -42 257 -43 q 267 -42 265 -42 q 274 -29 274 -37 q 274 -26 274 -28 q 276 -22 275 -24 q 274 -19 281 -12 q 261 -28 268 -25 q 247 -28 254 -31 q 240 -22 243 -26 q 235 -12 236 -17 q 233 -2 233 -8 q 235 8 233 4 q 240 18 236 14 q 249 25 243 22 m 265 14 l 265 14 q 259 16 264 15 q 251 15 254 17 q 243 3 244 13 q 246 -14 242 -6 q 258 -20 250 -21 q 271 -11 265 -19 q 272 1 274 -6 q 265 14 271 8 m 331 25 l 331 25 q 336 25 333 25 q 342 25 339 25 q 358 15 354 25 q 360 10 361 11 q 356 8 360 8 q 350 10 350 8 q 347 15 350 13 q 340 17 343 17 q 331 13 333 17 q 332 7 328 8 q 337 5 333 6 q 344 3 340 4 q 358 -3 354 0 q 361 -12 361 -7 q 361 -17 361 -15 q 358 -22 361 -19 q 338 -29 350 -31 q 319 -18 325 -28 q 318 -11 318 -12 q 322 -10 318 -10 q 327 -10 326 -10 q 328 -12 328 -11 q 328 -14 328 -12 q 332 -17 329 -15 q 334 -19 333 -18 q 337 -19 335 -19 q 342 -19 339 -19 q 348 -19 346 -19 q 350 -17 350 -18 q 352 -15 351 -15 q 353 -12 353 -14 q 338 -6 353 -10 q 330 -3 333 -4 q 325 0 326 -1 q 321 5 322 1 q 319 13 319 8 q 324 20 321 17 q 331 25 328 24 m 689 25 l 689 25 q 705 24 697 26 q 718 14 713 21 q 720 7 719 10 q 721 0 721 4 q 713 -24 722 -15 q 689 -28 701 -32 q 672 -10 676 -24 q 671 1 671 -4 q 674 11 671 7 q 681 19 676 15 q 689 25 685 24 m 703 15 l 703 15 q 692 15 697 17 q 683 10 688 14 q 681 1 681 6 q 681 -8 681 -4 q 694 -19 685 -18 q 710 -12 704 -21 q 712 3 714 -6 q 703 15 710 11 m 768 24 l 768 24 q 786 24 778 28 q 793 19 790 22 q 796 14 796 15 q 797 12 796 13 q 797 10 797 11 q 797 9 797 10 q 793 8 796 8 q 789 9 790 8 q 788 11 788 10 q 781 15 786 14 q 770 15 775 17 q 765 10 765 14 q 767 8 765 8 q 772 6 768 7 q 783 1 775 4 q 793 -2 790 0 q 797 -8 796 -4 q 794 -24 800 -18 q 776 -29 788 -29 q 762 -24 768 -29 q 756 -12 756 -19 q 756 -10 756 -11 q 760 -10 757 -10 q 764 -10 763 -10 q 765 -12 765 -11 q 778 -19 767 -19 q 789 -14 786 -19 q 787 -10 789 -11 q 779 -7 785 -8 q 765 -2 769 -4 q 758 3 761 0 q 756 6 757 4 q 757 11 756 8 q 768 24 757 21 m 901 22 l 901 22 q 906 25 904 24 q 910 26 908 26 q 921 22 915 26 q 928 13 926 18 q 928 5 928 11 q 929 -10 929 -1 l 929 -28 l 924 -28 l 919 -28 l 919 -12 q 919 6 919 0 q 915 14 918 13 q 906 15 911 17 q 897 8 900 14 q 895 5 896 7 q 894 -1 894 3 q 894 -11 894 -4 l 893 -28 l 889 -28 l 885 -28 l 885 -1 l 885 25 l 889 25 q 893 24 892 25 q 894 22 894 24 q 893 21 894 22 q 892 18 892 19 q 889 13 889 15 q 889 10 889 10 q 892 15 889 11 q 901 22 896 19 m 983 25 l 983 25 q 996 25 989 26 q 1007 18 1003 24 q 1013 11 1011 15 q 1015 1 1014 7 l 1015 -6 l 994 -6 q 983 -6 988 -6 q 977 -6 979 -6 q 974 -6 975 -6 q 974 -7 974 -7 q 976 -12 974 -10 q 982 -18 979 -15 q 992 -19 986 -21 q 1003 -14 999 -18 q 1004 -12 1003 -12 q 1008 -11 1006 -11 q 1013 -12 1013 -11 q 1011 -18 1014 -14 q 997 -28 1006 -25 q 981 -28 989 -31 q 964 -1 964 -21 q 983 25 965 19 m 997 14 l 997 14 q 990 16 994 15 q 983 15 986 17 q 978 11 981 14 q 975 6 975 8 l 974 3 l 989 3 q 999 3 996 3 q 1003 3 1003 3 q 1004 6 1004 4 q 1002 10 1004 7 q 997 14 1000 13 m 454 6 l 454 6 l 454 25 l 458 25 l 463 25 l 463 6 q 463 -6 463 -1 q 463 -12 463 -10 q 464 -15 464 -14 q 465 -17 464 -15 q 476 -19 469 -21 q 485 -12 482 -18 q 487 -9 486 -11 q 488 -3 488 -7 q 488 8 488 1 l 489 25 l 493 25 l 497 25 l 497 6 l 497 -15 l 500 -17 q 502 -19 501 -18 q 503 -24 503 -21 q 501 -28 503 -28 q 495 -26 499 -28 q 490 -19 492 -24 q 488 -17 489 -17 q 486 -24 486 -18 q 481 -28 485 -26 q 471 -29 476 -29 q 461 -26 465 -29 q 458 -24 460 -25 q 456 -19 457 -22 q 455 -15 456 -18 q 454 -8 454 -12 q 454 6 454 -4 m 626 -1 l 626 -1 l 626 25 l 631 25 l 635 24 l 636 -1 l 636 -28 l 631 -28 l 626 -28 l 626 -1 m 836 -17 l 836 -17 q 838 -15 836 -15 q 842 -15 840 -15 l 847 -15 l 847 -22 l 847 -28 l 842 -28 l 835 -28 l 835 -22 q 835 -18 835 -19 q 836 -17 836 -17 z "},"\u0000":{"ha":0,"x_min":0,"x_max":0,"o":""},"\n":{"ha":0,"x_min":0,"x_max":0,"o":""}," ":{"ha":483,"x_min":0,"x_max":0,"o":""},"!":{"ha":379,"x_min":63,"x_max":317,"o":"m 278 335 l 101 338 l 104 1110 l 275 1118 l 278 335 m 190 3 q 100 40 138 3 q 63 131 63 78 q 100 219 63 182 q 190 257 138 257 q 279 219 242 257 q 317 131 317 182 q 279 40 317 78 q 190 3 242 3 z "},"\"":{"ha":558,"x_min":57,"x_max":500,"o":"m 500 647 l 329 647 l 329 1107 l 500 1107 l 500 647 m 228 604 l 57 613 l 82 1111 l 253 1103 l 228 604 z "},"#":{"ha":957,"x_min":60,"x_max":900,"o":"m 561 92 l 561 336 l 385 336 l 385 114 l 186 119 l 186 336 l 60 336 l 60 507 l 186 507 l 186 746 l 79 746 l 79 917 l 186 917 l 186 1058 l 385 1058 l 385 917 l 561 917 l 561 1078 l 760 1081 l 760 917 l 900 917 l 900 746 l 760 746 l 760 507 l 876 507 l 876 336 l 760 336 l 760 97 l 561 92 m 561 507 l 561 746 l 385 746 l 385 507 l 561 507 z "},"$":{"ha":833,"x_min":53,"x_max":776,"o":"m 492 -160 l 321 -160 l 321 -7 q 54 165 149 28 l 53 165 l 229 286 l 229 285 q 400 199 294 199 q 514 233 463 199 q 563 300 551 257 l 564 319 q 532 400 564 360 q 436 460 490 442 q 292 528 343 500 q 176 607 229 560 q 82 751 100 679 q 72 828 72 792 q 78 878 72 854 q 200 1061 99 993 q 346 1121 264 1106 l 350 1267 l 522 1261 l 517 1118 q 733 979 640 1092 l 735 978 l 572 840 l 571 842 q 464 911 522 903 q 425 915 444 915 q 319 886 364 915 q 286 829 286 863 q 317 767 286 793 q 418 703 363 726 l 576 628 q 693 539 644 596 q 776 321 776 436 q 769 253 776 288 q 654 72 744 144 q 492 -4 583 17 l 492 -160 z "},"%":{"ha":1192,"x_min":44,"x_max":1147,"o":"m 442 67 l 290 147 l 797 1096 l 949 1015 l 442 67 m 292 550 q 117 622 190 550 q 44 797 44 694 q 117 972 44 900 q 292 1044 190 1044 q 467 972 394 1044 q 539 797 539 900 q 467 622 539 694 q 292 550 394 550 m 292 721 q 346 744 325 722 q 368 797 367 765 q 346 851 367 829 q 292 874 325 872 q 238 851 260 872 q 217 797 217 829 q 238 744 217 765 q 292 721 260 722 m 900 61 q 726 133 799 61 q 654 308 654 206 q 726 482 654 410 q 900 554 799 554 q 1075 482 1003 554 q 1147 308 1147 410 q 1075 133 1147 206 q 900 61 1003 61 m 900 232 q 954 254 933 233 q 976 308 975 275 q 954 362 975 340 q 900 383 933 383 q 847 362 868 383 q 825 308 825 340 q 847 254 825 275 q 900 232 868 233 z "},"&":{"ha":835,"x_min":58,"x_max":807,"o":"m 561 -164 l 339 -161 l 344 -10 q 138 122 218 25 q 58 344 58 218 q 188 618 58 507 q 113 811 113 703 q 217 1032 113 938 q 344 1101 274 1081 l 339 1249 l 561 1251 l 551 1103 q 739 968 672 1068 l 564 853 q 450 908 522 908 q 360 879 399 908 q 322 811 322 850 q 356 744 322 772 q 440 713 390 717 l 514 713 l 514 504 l 440 504 q 317 453 367 499 q 267 344 267 408 q 321 232 267 279 q 451 185 375 185 q 552 210 507 185 q 621 281 597 236 l 807 186 q 663 33 757 90 q 551 -12 610 3 l 561 -164 z "},"'":{"ha":308,"x_min":57,"x_max":253,"o":"m 228 604 l 57 613 l 82 1111 l 253 1103 l 228 604 z "},"(":{"ha":468,"x_min":64,"x_max":460,"o":"m 274 -193 q 64 567 64 206 q 278 1289 64 943 l 456 1178 q 274 572 274 888 q 460 -94 274 251 l 274 -193 z "},")":{"ha":488,"x_min":29,"x_max":424,"o":"m 208 -201 l 33 -86 q 214 490 214 189 q 29 1125 214 794 l 213 1228 q 424 490 424 846 q 208 -201 424 132 z "},"*":{"ha":654,"x_min":49,"x_max":606,"o":"m 397 494 l 257 494 l 257 632 l 142 556 l 64 674 l 201 764 l 49 869 l 129 986 l 257 896 l 257 1029 l 397 1029 l 397 892 l 513 967 l 589 849 l 453 760 l 606 653 l 525 538 l 397 626 l 397 494 z "},"+":{"ha":742,"x_min":47,"x_max":694,"o":"m 258 217 l 258 496 l 47 496 l 50 667 l 258 667 l 258 947 l 485 944 l 481 667 l 694 667 l 694 496 l 478 496 l 474 226 l 258 217 z "},"-":{"ha":554,"x_min":44,"x_max":510,"o":"m 510 496 l 44 496 l 44 667 l 510 667 l 510 496 z "},"/":{"ha":465,"x_min":26,"x_max":432,"o":"m 211 -224 l 26 -190 l 243 1276 l 432 1240 l 211 -224 z "},"<":{"ha":688,"x_min":49,"x_max":638,"o":"m 560 219 l 49 482 l 49 631 l 546 922 l 632 774 l 268 561 l 638 372 l 560 219 z "},"=":{"ha":706,"x_min":53,"x_max":653,"o":"m 650 646 l 53 646 l 53 817 l 653 822 l 650 646 m 647 335 l 53 335 l 53 506 l 653 506 l 647 335 z "},">":{"ha":688,"x_min":50,"x_max":639,"o":"m 142 218 l 56 365 l 419 579 l 50 768 l 128 919 l 639 658 l 639 508 l 142 218 z "},"?":{"ha":719,"x_min":11,"x_max":672,"o":"m 192 343 l 197 631 l 296 631 q 440 713 379 631 q 460 763 454 732 l 461 779 q 450 829 461 801 q 315 907 403 907 q 189 842 236 907 l 11 954 q 141 1074 60 1031 q 315 1118 222 1117 q 508 1064 421 1118 q 640 918 596 1010 q 672 779 672 847 q 618 600 672 688 q 401 436 542 483 l 401 349 l 192 343 m 289 3 q 199 40 236 3 q 161 131 161 78 q 199 219 161 182 q 289 257 236 257 q 378 219 340 257 q 415 131 415 182 q 378 40 415 78 q 289 3 340 3 z "},"@":{"ha":1390,"x_min":58,"x_max":1333,"o":"m 671 -142 q 357 -53 501 -142 q 63 413 103 113 q 58 497 58 456 q 82 676 58 590 q 192 893 115 799 q 717 1118 381 1118 q 1058 1027 901 1118 q 1292 722 1214 936 q 1333 479 1333 601 q 1282 244 1333 342 q 1068 110 1210 110 q 1017 117 1047 110 q 961 140 986 124 q 879 231 904 181 q 683 164 794 164 q 485 235 572 165 q 368 449 383 319 l 367 481 q 442 690 367 597 q 650 801 517 783 l 683 803 q 831 765 761 803 l 849 819 l 965 832 q 999 517 997 531 q 1018 343 1000 503 q 1031 313 1021 331 q 1072 281 1046 281 q 1089 283 1079 281 q 1131 325 1111 289 q 1163 486 1163 386 q 1131 665 1163 568 q 713 947 1026 947 q 325 785 461 947 q 229 499 229 667 q 233 432 229 467 q 446 93 263 214 q 611 33 508 51 q 669 28 639 28 q 851 64 750 28 l 911 -97 q 671 -142 789 -142 m 685 335 q 797 390 754 335 q 829 481 829 431 l 829 489 q 778 597 824 557 q 683 632 736 632 l 668 631 q 569 576 607 622 q 538 485 538 536 q 593 368 538 414 q 685 335 635 335 z "},"A":{"ha":1014,"x_min":-4,"x_max":1006,"o":"m 188 -10 l -4 90 l 444 1119 l 760 1131 l 1006 44 l 806 -4 l 722 367 l 368 404 l 188 -10 m 682 543 l 597 926 l 440 568 l 682 543 z "},"B":{"ha":911,"x_min":68,"x_max":892,"o":"m 533 13 l 76 13 l 68 1119 l 461 1119 q 660 1037 578 1119 q 742 838 742 954 q 699 688 742 757 q 839 558 786 642 q 892 371 892 474 q 787 117 892 222 q 533 13 682 13 m 422 740 q 500 769 468 740 q 532 838 532 797 q 500 908 532 879 q 422 936 468 936 l 286 936 l 286 740 l 422 740 m 494 200 q 628 251 574 203 q 682 371 682 300 q 627 490 682 440 q 494 540 572 540 l 286 540 l 286 200 l 494 200 z "},"C":{"ha":1064,"x_min":26,"x_max":1072,"o":"m 586 -7 q 305 70 432 -7 q 102 278 178 147 q 26 565 26 408 q 102 853 26 724 q 305 1061 178 983 q 586 1139 432 1139 q 865 1063 735 1138 l 758 882 q 586 929 678 928 q 339 822 442 929 q 236 565 236 715 q 339 309 236 415 q 586 203 442 203 q 760 251 679 203 q 889 385 842 300 l 1072 282 q 866 70 996 147 q 586 -7 736 -7 z "},"D":{"ha":1010,"x_min":64,"x_max":982,"o":"m 456 13 l 64 13 l 78 1119 l 456 1119 q 727 1044 608 1119 q 914 844 846 969 q 982 565 982 718 q 914 288 982 413 q 727 88 846 163 q 456 13 608 13 m 407 200 q 663 304 564 200 q 761 565 761 408 q 663 828 761 724 q 407 933 564 933 l 293 933 l 293 200 l 407 200 z "},"E":{"ha":682,"x_min":68,"x_max":663,"o":"m 663 13 l 68 13 l 76 1119 l 614 1119 l 614 942 l 297 942 l 297 701 l 529 701 l 529 531 l 297 531 l 297 183 l 663 192 l 663 13 z "},"F":{"ha":621,"x_min":68,"x_max":614,"o":"m 286 13 l 76 13 l 68 1119 l 614 1119 l 614 947 l 297 947 l 293 660 l 529 660 l 529 489 l 292 489 l 286 13 z "},"G":{"ha":1115,"x_min":26,"x_max":1086,"o":"m 586 -7 q 305 70 432 -7 q 102 278 178 147 q 26 565 26 408 q 102 853 26 724 q 305 1061 178 983 q 586 1139 432 1139 q 865 1063 735 1138 l 758 882 q 586 929 678 928 q 339 822 442 929 q 236 565 236 715 q 339 309 236 415 q 586 203 442 203 q 876 363 761 203 l 876 522 l 660 522 l 660 699 l 1086 707 l 1086 306 l 1072 282 q 866 70 996 147 q 586 -7 736 -7 z "},"H":{"ha":906,"x_min":64,"x_max":835,"o":"m 290 13 l 64 13 l 78 1119 l 290 1119 l 290 701 l 608 701 l 611 1097 l 835 1097 l 835 35 l 603 35 l 607 531 l 290 531 l 290 13 z "},"I":{"ha":369,"x_min":69,"x_max":299,"o":"m 299 13 l 69 18 l 75 1117 l 299 1125 l 299 13 z "},"J":{"ha":744,"x_min":-10,"x_max":682,"o":"m 329 -15 l 325 -15 q -10 208 90 -6 l 169 310 q 235 222 190 257 q 321 193 274 193 l 336 194 q 431 246 400 203 q 461 374 461 289 l 461 947 l 297 947 l 297 1119 l 682 1119 l 682 336 q 586 88 682 190 q 329 -15 490 -15 z "},"K":{"ha":882,"x_min":68,"x_max":876,"o":"m 704 -11 l 294 396 l 297 13 l 68 13 l 79 1119 l 294 1119 l 294 763 l 697 1207 l 876 1071 l 417 575 l 876 136 l 704 -11 z "},"L":{"ha":638,"x_min":68,"x_max":643,"o":"m 643 13 l 68 13 l 76 1119 l 297 1128 l 297 183 l 643 183 l 643 13 z "},"M":{"ha":1179,"x_min":72,"x_max":1114,"o":"m 293 -15 l 72 -15 l 72 1119 l 326 1119 l 588 592 l 853 1119 l 1103 1119 l 1114 40 l 882 49 l 882 760 l 650 297 l 525 297 l 293 775 l 293 -15 z "},"N":{"ha":981,"x_min":71,"x_max":910,"o":"m 300 13 l 71 13 l 71 1119 l 310 1119 l 692 399 l 681 1063 l 910 1071 l 910 25 l 679 25 l 289 749 l 300 13 z "},"O":{"ha":1171,"x_min":26,"x_max":1146,"o":"m 586 -7 q 305 70 432 -7 q 102 278 178 147 q 26 565 26 408 q 102 853 26 724 q 305 1061 178 983 q 586 1139 432 1139 q 867 1061 740 1139 q 1070 853 994 983 q 1146 565 1146 724 q 1070 278 1146 408 q 867 70 994 147 q 586 -7 740 -7 m 586 203 q 833 309 731 203 q 936 565 936 415 q 833 822 936 715 q 586 929 731 929 q 339 822 442 929 q 236 565 236 715 q 339 309 236 415 q 586 203 442 203 z "},"P":{"ha":843,"x_min":65,"x_max":826,"o":"m 299 7 l 65 13 l 76 1119 l 449 1119 q 716 1008 606 1119 q 826 742 826 897 q 716 474 826 585 q 449 364 606 364 l 299 364 l 299 7 m 425 560 q 548 613 497 560 q 599 742 599 667 q 549 869 599 817 q 425 924 499 921 l 299 924 l 299 560 l 425 560 z "},"Q":{"ha":1182,"x_min":26,"x_max":1146,"o":"m 999 -24 l 897 89 q 586 -7 756 -6 q 305 70 432 -7 q 102 278 178 147 q 26 565 26 408 q 102 853 26 724 q 305 1061 178 983 q 586 1139 432 1139 q 867 1061 740 1139 q 1070 853 994 983 q 1146 565 1146 724 q 1022 207 1144 365 l 1125 92 l 999 -24 m 586 203 q 754 247 675 203 l 618 396 l 746 511 l 878 365 q 936 565 936 457 q 833 822 936 715 q 586 929 731 929 q 339 822 442 929 q 236 565 236 715 q 339 309 236 415 q 586 203 442 203 z "},"R":{"ha":833,"x_min":71,"x_max":815,"o":"m 633 -24 l 297 490 l 311 21 l 71 13 l 74 1119 l 458 1119 q 679 1028 588 1119 q 771 807 771 936 q 706 616 771 699 q 540 504 642 533 l 815 92 l 633 -24 m 432 689 q 515 722 482 689 q 550 807 549 756 q 515 890 549 857 q 432 925 482 924 l 297 925 l 297 689 l 432 689 z "},"S":{"ha":771,"x_min":21,"x_max":744,"o":"m 367 -8 q 207 22 283 -8 q 22 171 92 69 l 21 172 l 196 292 l 197 290 q 365 206 263 206 q 482 239 429 206 q 531 306 518 263 l 532 326 q 503 395 532 364 q 432 447 475 426 l 288 522 q 144 613 200 567 q 50 757 67 685 q 39 836 39 800 q 44 883 39 861 q 167 1068 67 999 q 390 1133 268 1133 q 471 1126 429 1133 q 701 985 604 1103 l 703 985 l 540 847 l 539 847 q 432 917 490 908 q 393 921 413 921 q 288 892 328 921 q 254 835 254 868 q 279 776 254 801 q 335 735 304 751 q 399 703 365 718 q 425 690 413 697 l 469 669 q 572 617 522 646 q 661 544 622 589 q 744 326 744 442 q 738 258 744 293 q 622 78 713 150 q 442 -1 544 18 q 367 -8 404 -8 z "},"T":{"ha":572,"x_min":3,"x_max":565,"o":"m 414 13 l 174 18 l 178 947 l 4 946 l 3 1117 l 564 1121 l 565 950 l 399 949 l 414 13 z "},"U":{"ha":826,"x_min":61,"x_max":765,"o":"m 413 -7 q 165 99 268 -7 q 61 353 61 204 l 61 1131 l 279 1119 l 274 353 q 313 249 274 292 q 413 206 353 206 q 513 249 474 206 q 553 353 553 292 l 547 1108 l 765 1108 l 765 353 q 662 99 765 204 q 413 -7 558 -7 z "},"V":{"ha":901,"x_min":7,"x_max":903,"o":"m 558 13 l 263 13 l 7 1097 l 208 1136 l 417 235 l 701 1125 l 903 1072 l 558 13 z "},"W":{"ha":1179,"x_min":71,"x_max":1113,"o":"m 1101 -12 l 847 -12 l 586 528 l 321 51 l 71 51 l 71 1147 l 300 1136 l 292 411 l 524 824 l 649 824 l 881 332 l 881 1101 l 1113 1101 l 1101 -12 z "}}}
